<svg width="197" height="194" viewBox="0 0 197 194" fill="none" xmlns="http://www.w3.org/2000/svg">
<g filter="url(#filter0_d)">
<path d="M144.768 77.946C144.547 73.0761 143.739 69.7282 142.582 66.8271C141.388 63.7477 139.551 60.9907 137.145 58.6988C134.794 56.3713 131.947 54.5627 128.824 53.4171C125.831 52.289 122.414 51.5015 117.418 51.2867C112.385 51.0539 110.787 51 98.0216 51C85.256 51 83.6581 51.0539 78.6436 51.2686C73.6476 51.4833 70.213 52.2715 67.2376 53.3989C64.0777 54.5627 61.2494 56.3531 58.8982 58.6988C56.5103 60.9907 54.6556 63.7659 53.4797 66.8096C52.3223 69.7282 51.5144 73.058 51.2942 77.9278C51.0552 82.834 51 84.3915 51 96.835C51 109.278 51.0552 110.836 51.2755 115.724C51.4958 120.594 52.3044 123.942 53.4617 126.843C54.6556 129.922 56.5103 132.679 58.8982 134.971C61.2494 137.299 64.0964 139.107 67.2189 140.253C70.213 141.381 73.629 142.169 78.6256 142.383C83.6395 142.599 85.238 142.652 98.0037 142.652C110.769 142.652 112.367 142.599 117.382 142.383C122.378 142.169 125.812 141.381 128.788 140.253C135.107 137.871 140.103 133.002 142.546 126.843C143.702 123.924 144.511 120.594 144.731 115.724C144.951 110.836 145.007 109.278 145.007 96.835C145.007 84.3915 144.988 82.834 144.768 77.946ZM136.301 115.366C136.098 119.842 135.327 122.259 134.684 123.87C133.104 127.863 129.853 131.032 125.757 132.572C124.104 133.199 121.606 133.951 117.032 134.147C112.073 134.363 110.586 134.416 98.0402 134.416C85.4949 134.416 83.9889 134.363 79.0475 134.147C74.4555 133.951 71.9759 133.199 70.3228 132.572C68.2844 131.838 66.429 130.674 64.9229 129.152C63.3617 127.666 62.1678 125.876 61.4144 123.889C60.7715 122.277 60.0002 119.842 59.7986 115.384C59.5776 110.55 59.5231 109.099 59.5231 96.8707C59.5231 84.6419 59.5776 83.1739 59.7986 78.3579C60.0002 73.8818 60.7715 71.4647 61.4144 69.8534C62.1678 67.8657 63.3617 66.0578 64.9416 64.5891C66.4656 63.0672 68.3023 61.9034 70.3414 61.1698C71.9945 60.5431 74.4929 59.7913 79.0662 59.5941C84.0255 59.3793 85.5135 59.3255 98.0582 59.3255C110.622 59.3255 112.11 59.3793 117.051 59.5941C121.643 59.7913 124.123 60.5431 125.776 61.1698C127.814 61.9034 129.669 63.0672 131.175 64.5891C132.737 66.0753 133.931 67.8657 134.684 69.8534C135.327 71.4647 136.098 73.8993 136.301 78.3579C136.521 83.1921 136.576 84.6419 136.576 96.8707C136.576 109.099 136.521 110.532 136.301 115.366Z" fill="#C7DAFF"/>
<path d="M98.0216 73.2908C84.687 73.2908 73.8679 83.8361 73.8679 96.8349C73.8679 109.834 84.687 120.379 98.0216 120.379C111.357 120.379 122.175 109.834 122.175 96.8349C122.175 83.8361 111.357 73.2908 98.0216 73.2908ZM98.0216 112.107C89.3708 112.107 82.3537 105.268 82.3537 96.8349C82.3537 88.4017 89.3708 81.5624 98.0216 81.5624C106.673 81.5624 113.689 88.4017 113.689 96.8349C113.689 105.268 106.673 112.107 98.0216 112.107Z" fill="#C7DAFF"/>
<path d="M128.77 72.3607C128.77 75.3961 126.246 77.8572 123.131 77.8572C120.017 77.8572 117.492 75.3961 117.492 72.3607C117.492 69.3247 120.017 66.8643 123.131 66.8643C126.246 66.8643 128.77 69.3247 128.77 72.3607Z" fill="#C7DAFF"/>
</g>
<defs>
<filter id="filter0_d" x="0" y="0" width="196.007" height="193.652" filterUnits="userSpaceOnUse" color-interpolation-filters="sRGB">
<feFlood flood-opacity="0" result="BackgroundImageFix"/>
<feColorMatrix in="SourceAlpha" type="matrix" values="0 0 0 0 0 0 0 0 0 0 0 0 0 0 0 0 0 0 127 0" result="hardAlpha"/>
<feMorphology radius="16" operator="dilate" in="SourceAlpha" result="effect1_dropShadow"/>
<feOffset/>
<feGaussianBlur stdDeviation="17.5"/>
<feColorMatrix type="matrix" values="0 0 0 0 1 0 0 0 0 1 0 0 0 0 1 0 0 0 0.28 0"/>
<feBlend mode="normal" in2="BackgroundImageFix" result="effect1_dropShadow"/>
<feBlend mode="normal" in="SourceGraphic" in2="effect1_dropShadow" result="shape"/>
</filter>
</defs>
</svg>
