<svg width="197" height="194" viewBox="50 50 100 100" fill="none" xmlns="http://www.w3.org/2000/svg">
<g filter="url(#filter0_d)">
<path d="M144.768 78.0387C144.547 73.1689 143.739 69.8209 142.582 66.9199C141.388 63.8405 139.551 61.0835 137.145 58.7916C134.794 56.4641 131.947 54.6554 128.824 53.5099C125.831 52.3817 122.414 51.5942 117.418 51.3795C112.385 51.1466 110.787 51.0928 98.0216 51.0928C85.256 51.0928 83.6581 51.1466 78.6436 51.3613C73.6477 51.576 70.213 52.3643 67.2376 53.4917C64.0777 54.6554 61.2494 56.4459 58.8982 58.7916C56.5103 61.0835 54.6556 63.8587 53.4797 66.9024C52.3223 69.8209 51.5144 73.1507 51.2942 78.0206C51.0552 82.9268 51 84.4843 51 96.9278C51 109.371 51.0552 110.929 51.2755 115.817C51.4958 120.687 52.3044 124.035 53.4617 126.936C54.6556 130.015 56.5103 132.772 58.8982 135.064C61.2494 137.391 64.0964 139.2 67.2189 140.346C70.213 141.474 73.629 142.261 78.6256 142.476C83.6395 142.691 85.238 142.745 98.0037 142.745C110.769 142.745 112.367 142.691 117.382 142.476C122.378 142.261 125.812 141.474 128.788 140.346C135.107 137.964 140.103 133.094 142.546 126.936C143.702 124.017 144.511 120.687 144.731 115.817C144.951 110.929 145.007 109.371 145.007 96.9278C145.007 84.4843 144.988 82.9268 144.768 78.0387ZM136.301 115.459C136.098 119.935 135.327 122.352 134.684 123.963C133.104 127.956 129.853 131.125 125.757 132.665C124.104 133.292 121.606 134.044 117.032 134.24C112.073 134.455 110.586 134.509 98.0402 134.509C85.4949 134.509 83.9889 134.455 79.0475 134.24C74.4555 134.044 71.9759 133.292 70.3228 132.665C68.2844 131.931 66.429 130.767 64.9229 129.245C63.3617 127.759 62.1678 125.968 61.4144 123.981C60.7715 122.37 60.0002 119.935 59.7986 115.477C59.5776 110.643 59.5231 109.192 59.5231 96.9634C59.5231 84.7347 59.5776 83.2667 59.7986 78.4507C60.0002 73.9746 60.7715 71.5575 61.4144 69.9461C62.1678 67.9585 63.3617 66.1506 64.9416 64.6819C66.4656 63.16 68.3023 61.9962 70.3414 61.2626C71.9945 60.6359 74.4929 59.8841 79.0662 59.6868C84.0255 59.4721 85.5135 59.4183 98.0582 59.4183C110.622 59.4183 112.11 59.4721 117.051 59.6868C121.643 59.8841 124.123 60.6359 125.776 61.2626C127.814 61.9962 129.669 63.16 131.175 64.6819C132.737 66.168 133.931 67.9585 134.684 69.9461C135.327 71.5575 136.098 73.9921 136.301 78.4507C136.521 83.2848 136.576 84.7347 136.576 96.9634C136.576 109.192 136.521 110.625 136.301 115.459Z" fill="current"/>
<path d="M98.0217 73.3835C84.6871 73.3835 73.868 83.9289 73.868 96.9277C73.868 109.926 84.6871 120.472 98.0217 120.472C111.357 120.472 122.175 109.926 122.175 96.9277C122.175 83.9289 111.357 73.3835 98.0217 73.3835ZM98.0217 112.2C89.3709 112.2 82.3538 105.361 82.3538 96.9277C82.3538 88.4945 89.3709 81.6552 98.0217 81.6552C106.673 81.6552 113.69 88.4945 113.69 96.9277C113.69 105.361 106.673 112.2 98.0217 112.2Z" fill="current"/>
<path d="M128.77 72.4535C128.77 75.4889 126.246 77.95 123.131 77.95C120.017 77.95 117.492 75.4889 117.492 72.4535C117.492 69.4175 120.017 66.957 123.131 66.957C126.246 66.957 128.77 69.4175 128.77 72.4535Z" fill="current"/>
</g>
<defs>
<filter id="filter0_d" x="0" y="0.0927734" width="196.007" height="193.652" filterUnits="userSpaceOnUse" color-interpolation-filters="sRGB">

<feColorMatrix type="matrix" values="0 0 0 0 1 0 0 0 0 1 0 0 0 0 1 0 0 0 0.28 0"/>
<feBlend mode="normal" in2="BackgroundImageFix" result="effect1_dropShadow"/>
<feBlend mode="normal" in="SourceGraphic" in2="effect1_dropShadow" result="shape"/>
</filter>
</defs>
</svg>
