<svg width="92" height="81" viewBox="0 0 92 81" fill="none" xmlns="http://www.w3.org/2000/svg">
<path d="M20.477 80.0828H1.62516V26.5989H20.477V80.0828ZM11.0511 19.4487C4.87548 19.4487 0 14.8725 0 9.72434C0 4.57616 4.87548 0 11.0511 0C17.2267 0 22.1022 4.29015 22.1022 9.72434C21.7772 14.8725 16.9017 19.4487 11.0511 19.4487ZM91.009 80.0828H72.1572V54.0559C72.1572 47.7637 72.1572 40.0414 62.4062 40.0414C52.6552 40.0414 51.0301 46.9056 51.0301 53.7699V80.0828H32.1782V26.5989H50.38V34.0352H50.705C53.3053 29.745 59.4809 25.4549 68.5818 25.4549C87.7587 25.4549 91.3341 36.6093 91.3341 50.9098L91.009 80.0828Z" fill="#C7DAFF"/>
</svg>
