<svg width="177" height="161" viewBox="40 20 100 115" fill="none" xmlns="http://www.w3.org/2000/svg">
<g filter="url(#filter0_d)">
<path d="M37.8424 118.007V47.5432L81.1059 81.3843L37.8424 118.007Z" fill="current" stroke="current" stroke-width="4"/>
<path d="M139 117.093L138.522 48.0928L96 81.2128L139 117.093Z" fill="current" stroke="current" stroke-width="4"/>
<path d="M89.771 60.8824C90.181 60.4049 90.9249 60.4203 91.3148 60.9144L139.097 121.473C139.614 122.129 139.147 123.093 138.312 123.093L38.5302 123.093C37.6754 123.093 37.2146 122.09 37.7715 121.441L89.771 60.8824Z" fill="current" stroke="current" stroke-width="4"/>
<path d="M94.2364 89.7227C90.8463 92.7121 85.7649 92.7234 82.3615 89.7492L40.881 53.4988C34.6214 48.0285 38.4903 37.722 46.8033 37.722L129.394 37.722C137.687 37.722 141.566 47.9873 135.346 53.4724L94.2364 89.7227Z" fill="current" stroke="current" stroke-width="4"/>
</g>
<defs>
<filter id="filter0_d" x="0.524376" y="0.721924" width="175.793" height="159.371" filterUnits="userSpaceOnUse" color-interpolation-filters="sRGB">
<feFlood flood-opacity="0" result="BackgroundImageFix"/>
<feColorMatrix in="SourceAlpha" type="matrix" values="0 0 0 0 0 0 0 0 0 0 0 0 0 0 0 0 0 0 127 0" result="hardAlpha"/>
<feOffset/>
<feGaussianBlur stdDeviation="17.5"/>
<feComposite in2="hardAlpha" operator="out"/>
<feColorMatrix type="matrix" values="0 0 0 0 1 0 0 0 0 1 0 0 0 0 1 0 0 0 0.29 0"/>
<feBlend mode="normal" in2="BackgroundImageFix" result="effect1_dropShadow"/>
<feBlend mode="normal" in="SourceGraphic" in2="effect1_dropShadow" result="shape"/>
</filter>
</defs>
</svg>
