<svg width="90" height="74" viewBox="0 0 90 74" fill="none" xmlns="http://www.w3.org/2000/svg">
<path d="M89.4112 8.6706C86.1215 10.1413 82.5861 11.1352 78.8754 11.5822C82.663 9.29368 85.5714 5.66996 86.9411 1.3523C83.3969 3.47108 79.471 5.00997 75.2926 5.83941C71.9463 2.2457 67.179 0 61.903 0C51.7721 0 43.5587 8.27896 43.5587 18.4904C43.5587 19.9397 43.7212 21.351 44.0339 22.7043C28.7883 21.9332 15.2718 14.5717 6.22435 3.3847C4.64537 6.11568 3.74076 9.29203 3.74076 12.6807C3.74076 19.0957 6.9795 24.7555 11.9016 28.0713C8.89436 27.9753 6.06606 27.1436 3.59261 25.7586C3.5913 25.8358 3.5913 25.9132 3.5913 25.991C3.5913 34.9501 9.91442 42.4237 18.3061 44.1221C16.7667 44.5448 15.1462 44.7706 13.473 44.7706C12.2911 44.7706 11.1418 44.6549 10.022 44.439C12.3561 51.7853 19.1306 57.1312 27.1576 57.2805C20.8796 62.2397 12.97 65.1959 4.37588 65.1959C2.89534 65.1959 1.43508 65.1085 0 64.9377C8.11795 70.1841 17.7603 73.245 28.1195 73.245C61.8602 73.245 80.3108 45.0693 80.3108 20.6346C80.3108 19.8328 80.2932 19.0354 80.2579 18.2425C83.8416 15.6355 86.9519 12.3787 89.4112 8.6706Z" fill="#C7DAFF"/>
</svg>
