<svg viewBox="0 0 202 240" fill="none" xmlns="http://www.w3.org/2000/svg">
<path d="M2 230.712V154.703C2 150.779 5.60072 147.593 10.0503 147.593H54.1967C58.6394 147.593 62.2469 150.773 62.2469 154.703V230.712C62.2469 234.635 58.6462 237.821 54.1967 237.821H10.0503C5.60072 237.821 2 234.641 2 230.712Z" fill="#94B8FF" stroke="#364B6A" stroke-width="4" stroke-miterlimit="10"/>
<path d="M69.77 230.712V138.477C69.77 134.553 73.3707 131.367 77.8203 131.367H121.967C126.409 131.367 130.017 134.547 130.017 138.477V230.718C130.017 234.641 126.416 237.827 121.967 237.827H77.8203C73.3707 237.821 69.77 234.641 69.77 230.712Z" fill="#6790DF" stroke="#364B6A" stroke-width="4" stroke-miterlimit="10"/>
<path d="M138.909 230.712V83.9473C138.909 80.0238 142.51 76.8379 146.96 76.8379H191.106C195.549 76.8379 199.156 80.0178 199.156 83.9473V230.712C199.156 234.635 195.555 237.821 191.106 237.821H146.96C142.51 237.821 138.909 234.641 138.909 230.712Z" fill="#4B679D" stroke="#364B6A" stroke-width="4" stroke-miterlimit="10"/>
<path d="M91 48.7017V2.29832C91 2.1297 91.1683 2 91.3687 2H94.6312C94.8396 2 95 2.13619 95 2.29832V48.7017C95 48.8703 94.8316 49 94.6312 49H91.3687C91.1683 49 91 48.8638 91 48.7017Z" fill="#364B6A" stroke="#364B6A" stroke-width="2" stroke-miterlimit="10"/>
<path d="M93 3L128.557 3.54502L118.782 12.4303L130 22L93.1924 21.3916L93 3Z" fill="#FAD44D" stroke="#364B6A" stroke-width="4" stroke-miterlimit="10"/>
<path d="M46.3184 48.521C46.3184 48.521 35.3812 62.8752 24.9166 74.9884C13.3467 88.3776 25.8257 88.7902 25.8257 88.7902C25.8257 88.7902 36.5447 73.2361 43.8459 70.011C49.4308 67.5414 48.4128 81.5211 45.9984 93.9136C43.5841 106.306 40.3698 116.07 37.89 123.085C33.9631 134.176 35.0685 136.278 39.8826 136.805C45.9766 137.478 45.8603 137.122 49.1836 123.739C51.4816 114.496 60.3899 90.9614 60.3899 90.9614C60.3899 90.9614 59.6772 85.927 70.7745 93.0819C80.65 99.4432 81.8789 103.183 79.7482 115.143C79.1082 118.743 79.7555 120.724 84.4533 120.755C91.2963 120.806 90.6709 118.927 91.8562 114.673C94.256 106.058 93.2452 97.964 88.9838 94.1929C83.5661 89.3997 76.9921 84.6192 76.9921 84.6192L76.3376 70.5189C76.3376 70.5189 95.1651 60.2596 99.1356 54.622C100.183 53.1364 101.448 45.9688 95.165 48.5591C88.8747 51.1493 80.8463 58.101 75.3849 57.3837C74.105 57.2186 70.2218 53.1936 70.2218 53.1936L46.3184 48.521Z" fill="#8AE3FF" stroke="#364B6A" stroke-width="4" stroke-miterlimit="10"/>
<path d="M59.5 62C69.7172 62 78 53.9411 78 44C78 34.0589 69.7172 26 59.5 26C49.2827 26 41 34.0589 41 44C41 53.9411 49.2827 62 59.5 62Z" fill="#8AE3FF" stroke="#364B6A" stroke-width="4" stroke-miterlimit="10"/>
</svg>
