<svg viewBox="0 0 232 243" fill="none" xmlns="http://www.w3.org/2000/svg">
<g filter="url(#filter0_d_2089_115)">
<path d="M6 224.286V85.131C6 80.3191 10.2142 76.4175 15.4116 76.4175H216.588C221.786 76.4175 226 80.3191 226 85.131V224.286C226 229.098 221.786 233 216.588 233H15.4116C10.2142 232.994 6 229.092 6 224.286Z" fill="#CEE6E9"/>
<path d="M6 224.286V85.131C6 80.3191 10.2142 76.4175 15.4116 76.4175H216.588C221.786 76.4175 226 80.3191 226 85.131V224.286C226 229.098 221.786 233 216.588 233H15.4116C10.2142 232.994 6 229.092 6 224.286Z" stroke="#364B6A" stroke-width="3" stroke-miterlimit="10"/>
</g>
<path d="M15.0472 99.6492L216.465 99.522" stroke="#364B6A" stroke-width="3" stroke-miterlimit="10"/>
<path d="M174.941 92.6035C177.409 92.6035 179.41 90.7512 179.41 88.4663C179.41 86.1814 177.409 84.3291 174.941 84.3291C172.473 84.3291 170.472 86.1814 170.472 88.4663C170.472 90.7512 172.473 92.6035 174.941 92.6035Z" fill="#8FBEAD" stroke="#364B6A" stroke-width="2" stroke-miterlimit="10"/>
<path d="M189.034 92.6035C191.502 92.6035 193.503 90.7512 193.503 88.4663C193.503 86.1814 191.502 84.3291 189.034 84.3291C186.566 84.3291 184.566 86.1814 184.566 88.4663C184.566 90.7512 186.566 92.6035 189.034 92.6035Z" fill="#8FBEBB" stroke="#364B6A" stroke-width="2" stroke-miterlimit="10"/>
<path d="M203.471 92.6035C205.939 92.6035 207.94 90.7512 207.94 88.4663C207.94 86.1814 205.939 84.3291 203.471 84.3291C201.003 84.3291 199.003 86.1814 199.003 88.4663C199.003 90.7512 201.003 92.6035 203.471 92.6035Z" fill="#729DB5" stroke="#364B6A" stroke-width="2" stroke-miterlimit="10"/>
<g filter="url(#filter1_d_2089_115)">
<path d="M73 198.441V115.559C73 113.592 74.9384 112 77.3319 112H143.668C146.062 112 148 113.592 148 115.559V198.441C148 200.408 146.062 202 143.668 202H77.3319C74.9384 202.007 73 200.408 73 198.441Z" fill="#ABCAD1"/>
<path d="M73 198.441V115.559C73 113.592 74.9384 112 77.3319 112H143.668C146.062 112 148 113.592 148 115.559V198.441C148 200.408 146.062 202 143.668 202H77.3319C74.9384 202.007 73 200.408 73 198.441Z" stroke="#364B6A" stroke-width="3" stroke-miterlimit="10"/>
</g>
<path d="M85 187.688V127.312C85 125.482 86.7002 124 88.7997 124H132.2C134.3 124 136 125.482 136 127.312V187.688C136 189.518 134.3 191 132.2 191H88.7997C86.7002 191.006 85 189.518 85 187.688Z" fill="#E6FAFF" stroke="#364B6A" stroke-width="3" stroke-miterlimit="10"/>
<path d="M48 66V47.6835H65.6386C65.6386 47.6835 67.6701 37.9474 72.5646 32.3249L59.492 17.595L77.0897 6.75118L87.1456 21.3194C87.1456 21.3194 97.0382 18.5051 101.172 17.8884V2H126.363V17.595C126.363 17.595 135.164 18.9722 138.739 21.3194L146.958 6.75118L167.518 17.595L157.985 32.3249C157.985 32.3249 164.919 39.7976 167.518 47.6835H185V66" fill="#A6C8DB"/>
<path d="M48 66V47.6835H65.6386C65.6386 47.6835 67.6701 37.9474 72.5646 32.3249L59.492 17.595L77.0897 6.75118L87.1456 21.3194C87.1456 21.3194 97.0382 18.5051 101.172 17.8884V2H126.363V17.595C126.363 17.595 135.164 18.9722 138.739 21.3194L146.958 6.75118L167.518 17.595L157.985 32.3249C157.985 32.3249 164.919 39.7976 167.518 47.6835H185V66" stroke="#364B6A" stroke-width="3" stroke-miterlimit="10"/>
<path d="M153 65.9572C150.369 37.2431 129.307 30.0798 115.408 30.0005C94.709 29.8907 78.5902 47.5304 78 66" fill="#7099B0"/>
<path d="M153 65.9572C150.369 37.2431 129.307 30.0798 115.408 30.0005C94.709 29.8907 78.5902 47.5304 78 66" stroke="#364B6A" stroke-width="3" stroke-miterlimit="10"/>
<path d="M93.4634 66C92.4634 51.5001 104.713 42.8126 115.463 43.0001C126.213 43.1876 136.963 51.0001 136.963 66" fill="#DEF3FF"/>
<path d="M93.4634 66C92.4634 51.5001 104.713 42.8126 115.463 43.0001C126.213 43.1876 136.963 51.0001 136.963 66" stroke="#364B6A" stroke-width="3" stroke-miterlimit="10"/>
<path d="M165.986 224.73C160.589 224.654 155.186 224.584 149.789 224.508C150.325 224.018 149.755 222.14 150.126 221.459C151.934 218.143 152.759 214.254 149.638 211.148C145.87 207.405 138.666 207.475 134.974 211.288C131.777 214.591 132.85 218.646 135.73 222.114C136.177 222.649 135.655 224.565 136.239 224.991C129.859 225.341 124.222 225.297 118.584 225.252C118.908 217.665 118.983 211.421 119.066 206.139C118.316 206.215 115.958 206.45 114.081 206.603C108.891 207.03 106.966 202.281 107 197.489C107.035 192.766 109.977 188.648 115.188 188.979C116.831 189.081 118.495 190.57 119.286 190.729C118.976 185.866 118.646 178.948 118.667 174.257C124.407 174.359 130.588 175.727 136.658 174.868C136.686 173.754 136.431 172.328 134.871 171.577C129.893 169.197 130.698 161.19 134.245 157.403C138.611 152.737 147.52 152.896 151.693 157.715C155.09 161.629 154.175 168.439 150.284 171.024C149.253 171.711 148.71 173.2 148.895 174.518C154.945 174.607 162.026 174.696 167.492 174.709C167.808 178.878 167.416 184.638 167.499 188.705C166.9 188.272 163.841 188.82 163.319 188.342C160.28 185.574 154.265 187.91 153.611 192.855C152.972 197.648 156.822 202.046 161.861 200.238C162.782 199.907 164.041 200.098 166.564 200.245C166.509 207.895 166.447 216.838 165.986 224.73Z" fill="#364B6A"/>
<defs>
<filter id="filter0_d_2089_115" x="0.5" y="74.9175" width="231" height="167.583" filterUnits="userSpaceOnUse" color-interpolation-filters="sRGB">
<feFlood flood-opacity="0" result="BackgroundImageFix"/>
<feColorMatrix in="SourceAlpha" type="matrix" values="0 0 0 0 0 0 0 0 0 0 0 0 0 0 0 0 0 0 127 0" result="hardAlpha"/>
<feOffset dy="4"/>
<feGaussianBlur stdDeviation="2"/>
<feComposite in2="hardAlpha" operator="out"/>
<feColorMatrix type="matrix" values="0 0 0 0 0 0 0 0 0 0 0 0 0 0 0 0 0 0 0.25 0"/>
<feBlend mode="normal" in2="BackgroundImageFix" result="effect1_dropShadow_2089_115"/>
<feBlend mode="normal" in="SourceGraphic" in2="effect1_dropShadow_2089_115" result="shape"/>
</filter>
<filter id="filter1_d_2089_115" x="67.5" y="110.5" width="86" height="101" filterUnits="userSpaceOnUse" color-interpolation-filters="sRGB">
<feFlood flood-opacity="0" result="BackgroundImageFix"/>
<feColorMatrix in="SourceAlpha" type="matrix" values="0 0 0 0 0 0 0 0 0 0 0 0 0 0 0 0 0 0 127 0" result="hardAlpha"/>
<feOffset dy="4"/>
<feGaussianBlur stdDeviation="2"/>
<feComposite in2="hardAlpha" operator="out"/>
<feColorMatrix type="matrix" values="0 0 0 0 0 0 0 0 0 0 0 0 0 0 0 0 0 0 0.25 0"/>
<feBlend mode="normal" in2="BackgroundImageFix" result="effect1_dropShadow_2089_115"/>
<feBlend mode="normal" in="SourceGraphic" in2="effect1_dropShadow_2089_115" result="shape"/>
</filter>
</defs>
</svg>
