<svg viewBox="0 0 293 293" fill="none" xmlns="http://www.w3.org/2000/svg">
<mask id="mask0_1912_736" style="mask-type:alpha" maskUnits="userSpaceOnUse" x="0" y="0" width="293" height="293">
<circle cx="146.5" cy="146.5" r="146.5" fill="#C4C4C4"/>
</mask>
<g mask="url(#mask0_1912_736)">
<path d="M14 63.3929L44.5 23.6834C44.5 21.1331 88.5 -1.06204 88.5 -12L246.5 8.71944C225.5 29.4389 267.5 42.2143 267.5 32.8921L283 63.3929C283 65.9432 281.748 68 280.203 68H16.7967C15.2525 68 14 65.9432 14 63.3929Z" fill="#FECA99"/>
<path d="M-2 116.216V70.7767C-2 69.2396 -0.621829 68 1.07738 68H290.923C292.622 68 294 69.2467 294 70.7767V116.216C294 117.753 292.622 119 290.923 119H1.07738C-0.621829 118.993 -2 117.753 -2 116.216Z" fill="#EFA867"/>
<g filter="url(#filter0_d_1912_736)">
<path d="M148 224C198.81 224 240 182.362 240 131C240 79.6375 198.81 38 148 38C97.1898 38 56 79.6375 56 131C56 182.362 97.1898 224 148 224Z" fill="#FDDE72"/>
<path d="M148 224C198.81 224 240 182.362 240 131C240 79.6375 198.81 38 148 38C97.1898 38 56 79.6375 56 131C56 182.362 97.1898 224 148 224Z" stroke="#364B6A" stroke-width="5" stroke-miterlimit="10"/>
</g>
<path d="M-6 189.5L-11.9999 123.48C-11.9999 121.006 -10.524 119 -8.70423 119H301.704C303.524 119 305 121.006 305 123.48L296.5 213.5C296.5 215.974 286.82 225 285 225L8 228.5C-6.79574 218 -6 191.974 -6 189.5Z" fill="white" stroke="#364B6A" stroke-width="5" stroke-miterlimit="10"/>
<path d="M-4 200L-11.9999 123.48C-11.9999 121.006 -10.5318 119 -8.72157 119H301.722C303.532 119 305 121.006 305 123.48L295.5 217C295.5 219.474 292.81 226.5 291 226.5L13 227.5C23.2216 223.02 -4 202.474 -4 200Z" fill="#61B3E1" stroke="#364B6A" stroke-width="5" stroke-miterlimit="10"/>
<path d="M-0.565578 206C-0.565578 206 -22.7995 174.743 -0.565547 180.244C21.6684 185.744 42.8109 212.221 60.0533 215.144C77.2852 218.067 115.649 187.815 134.905 186.227C154.161 184.639 171.372 213.222 192.768 217.146C214.155 221.07 238 188.55 251.088 187.228C261 186.227 285.401 193.296 298.5 190.5C311.599 187.692 279.348 216.156 284 231C288.652 245.844 263.5 258 263.5 258L8.5 236.5L-0.565578 206Z" fill="#FFF0C4" stroke="#FFF8E4" stroke-width="8" stroke-miterlimit="10"/>
<path d="M4.75406 224.645C4.75406 224.645 -22.4828 191.258 -0.299843 196.573C21.8831 201.889 42.977 227.476 60.1799 230.301C77.3722 233.125 115.648 203.891 134.86 202.356C154.071 200.821 171.243 228.444 192.59 232.236C213.927 236.027 238.699 204.496 250.189 199.763C263.571 194.25 278.027 206.026 291.095 203.323C304.164 200.61 286.454 210.3 291.095 224.645C295.737 238.989 250.776 271.481 250.776 271.481L145.43 311L21.2162 251.478L4.75406 224.645Z" fill="#F7E197"/>
<g filter="url(#filter1_d_1912_736)">
<path d="M104.494 171.368L181.489 172C181.489 172 187.009 152.087 192.739 143.361C198.47 134.634 107.834 153.076 105.379 150.845C102.925 148.615 104.494 171.368 104.494 171.368Z" fill="#3B7C81"/>
<path d="M104.494 171.368L181.489 172C181.489 172 187.009 152.087 192.739 143.361C198.47 134.634 107.834 153.076 105.379 150.845C102.925 148.615 104.494 171.368 104.494 171.368Z" stroke="#364B6A" stroke-width="5" stroke-miterlimit="10"/>
</g>
<path d="M138 134.049C138 134.049 114.284 126.332 108.55 142.972C104.845 153.72 120.915 76.9307 125.343 64.3127C129.782 51.7061 138 134.049 138 134.049Z" fill="#85C6DA" stroke="#364B6A" stroke-width="5" stroke-miterlimit="10"/>
<path d="M145.807 132.401C145.807 132.401 166.082 120.005 171.615 136.879C175.189 147.778 152.934 75.8277 144.474 66.8253C139.931 61.9929 131.429 54.0416 133.252 58.1315C139.264 71.6464 145.807 132.401 145.807 132.401Z" fill="#48889D" stroke="#364B6A" stroke-width="5" stroke-miterlimit="10"/>
</g>
<defs>
<filter id="filter0_d_1912_736" x="49.5" y="28.5" width="197" height="199" filterUnits="userSpaceOnUse" color-interpolation-filters="sRGB">
<feFlood flood-opacity="0" result="BackgroundImageFix"/>
<feColorMatrix in="SourceAlpha" type="matrix" values="0 0 0 0 0 0 0 0 0 0 0 0 0 0 0 0 0 0 127 0" result="hardAlpha"/>
<feOffset dy="-3"/>
<feGaussianBlur stdDeviation="2"/>
<feComposite in2="hardAlpha" operator="out"/>
<feColorMatrix type="matrix" values="0 0 0 0 0.708333 0 0 0 0 0.708333 0 0 0 0 0.708333 0 0 0 0.5 0"/>
<feBlend mode="normal" in2="BackgroundImageFix" result="effect1_dropShadow_1912_736"/>
<feBlend mode="normal" in="SourceGraphic" in2="effect1_dropShadow_1912_736" result="shape"/>
</filter>
<filter id="filter1_d_1912_736" x="97.5" y="138.5" width="102" height="44.0156" filterUnits="userSpaceOnUse" color-interpolation-filters="sRGB">
<feFlood flood-opacity="0" result="BackgroundImageFix"/>
<feColorMatrix in="SourceAlpha" type="matrix" values="0 0 0 0 0 0 0 0 0 0 0 0 0 0 0 0 0 0 127 0" result="hardAlpha"/>
<feOffset dy="4"/>
<feGaussianBlur stdDeviation="2"/>
<feComposite in2="hardAlpha" operator="out"/>
<feColorMatrix type="matrix" values="0 0 0 0 1 0 0 0 0 1 0 0 0 0 1 0 0 0 0.25 0"/>
<feBlend mode="normal" in2="BackgroundImageFix" result="effect1_dropShadow_1912_736"/>
<feBlend mode="normal" in="SourceGraphic" in2="effect1_dropShadow_1912_736" result="shape"/>
</filter>
</defs>
</svg>
