<svg viewBox="0 0 330 330" fill="none" xmlns="http://www.w3.org/2000/svg">
<path d="M80 160.117V136.148C80 133.855 82.0773 132 84.6443 132H260.746C263.313 132 265.39 133.855 265.39 136.148V160.117C265.39 162.41 263.313 164.265 260.746 164.265H84.6443C82.0821 164.265 80 162.406 80 160.117Z" fill="#F4BB9C" stroke="#364B6A" stroke-width="6" stroke-miterlimit="10"/>
<path d="M93 181.706V170.125C93 168.397 94.5687 167 96.4986 167H134.661C136.595 167 138.159 168.401 138.159 170.125V181.706C138.159 183.434 136.59 184.831 134.661 184.831H96.4986C94.5639 184.831 93 183.434 93 181.706Z" fill="#F4BB9C" stroke="#364B6A" stroke-width="6" stroke-miterlimit="10"/>
<path d="M148.255 182.421V170.182C148.255 168.636 149.657 167.384 151.387 167.384H190.286C192.016 167.384 193.419 168.636 193.419 170.182V182.421C193.419 183.967 192.016 185.219 190.286 185.219H151.387C149.652 185.219 148.255 183.967 148.255 182.421Z" fill="#F4BB9C" stroke="#364B6A" stroke-width="6" stroke-miterlimit="10"/>
<path d="M204 181.897V169.929C204 168.312 205.469 167 207.28 167H245.874C247.686 167 249.154 168.312 249.154 169.929V181.897C249.154 183.515 247.686 184.826 245.874 184.826H207.28C205.469 184.826 204 183.515 204 181.897Z" fill="#F4BB9C" stroke="#364B6A" stroke-width="6" stroke-miterlimit="10"/>
<path d="M104 254.498V191.507C104 189.567 105.727 188 107.855 188H124.145C126.277 188 128 189.571 128 191.507V254.493C128 256.433 126.273 258 124.145 258H107.855C105.723 258.004 104 256.433 104 254.498Z" fill="#FFDF8B" stroke="#364B6A" stroke-width="6" stroke-miterlimit="10"/>
<path d="M159 255.468V190.581C159 189.155 160.293 188 161.89 188H180.353C181.95 188 183.243 189.155 183.243 190.581V255.468C183.243 256.895 181.95 258.049 180.353 258.049H161.89C160.293 258.049 159 256.895 159 255.468Z" fill="#FFDF8B" stroke="#364B6A" stroke-width="6" stroke-miterlimit="10"/>
<path d="M215 254.314V191.682C215 189.65 216.83 188 219.084 188H234.916C237.17 188 239 189.65 239 191.682V254.318C239 256.35 237.17 258 234.916 258H219.084C216.826 257.996 215 256.35 215 254.314Z" fill="#FFDF8B" stroke="#364B6A" stroke-width="6" stroke-miterlimit="10"/>
<path d="M89 274.793V265.037C89 262.809 91.025 261 93.5207 261H248.954C251.449 261 253.474 262.809 253.474 265.037V274.793C253.474 277.022 251.449 278.831 248.954 278.831H93.5159C91.0203 278.831 89 277.022 89 274.793Z" fill="#F4BB9C" stroke="#364B6A" stroke-width="6" stroke-miterlimit="10"/>
<path d="M77 297.177V284.658C77 283.193 78.331 282 79.9757 282H261.791C263.431 282 264.767 283.189 264.767 284.658V297.177C264.767 298.642 263.436 299.835 261.791 299.835H79.971C78.331 299.831 77 298.642 77 297.177Z" fill="#D69E80" stroke="#364B6A" stroke-width="6" stroke-miterlimit="10"/>
<path d="M92.1781 90.9416L96.2424 81.5295C96.7748 80.2984 98.3197 79.687 99.6983 80.1625L144.382 95.5648C145.761 96.0403 146.445 97.4201 145.913 98.6513L141.848 108.063C141.316 109.294 139.771 109.906 138.393 109.43L93.7087 94.028C92.3349 93.5525 91.6504 92.1728 92.1781 90.9416Z" fill="#FFE194" stroke="#364B6A" stroke-width="6" stroke-miterlimit="10"/>
<path d="M111.668 45.9404L115.732 36.5283C116.265 35.2971 117.809 34.6858 119.188 35.1613L163.872 50.5636C165.25 51.0391 165.935 52.4189 165.402 53.65L161.338 63.0621C160.806 64.2933 159.261 64.9046 157.882 64.4291L113.198 49.0268C111.825 48.5513 111.14 47.1716 111.668 45.9404Z" fill="#FFE194" stroke="#364B6A" stroke-width="6" stroke-miterlimit="10"/>
<path d="M107.39 77.2119L116.678 55.7217C117.211 54.4905 118.755 53.8792 120.134 54.3546L147.966 63.9493C149.345 64.4248 150.029 65.8045 149.497 67.0357L140.208 88.5259C139.676 89.7571 138.131 90.3684 136.753 89.893L108.92 80.2983C107.546 79.8228 106.862 78.4431 107.39 77.2119Z" fill="#9D6962" stroke="#364B6A" stroke-width="6" stroke-miterlimit="10"/>
<path d="M150.172 82.3066L153.723 74.0832C154.255 72.8521 155.8 72.2407 157.179 72.7162L248.871 104.319C250.249 104.795 250.934 106.174 250.402 107.405L246.851 115.629C246.318 116.86 244.773 117.471 243.395 116.996L151.703 85.393C150.329 84.9175 149.644 83.5378 150.172 82.3066Z" fill="#9D6962" stroke="#364B6A" stroke-width="6" stroke-miterlimit="10"/>
</svg>
