<svg viewBox="0 0 246 198" fill="none" xmlns="http://www.w3.org/2000/svg">
<g filter="url(#filter0_d_1912_766)">
<path d="M119.535 145.457L85.004 145.731L77.0477 174.997C74.6087 183.14 77.4061 187 84.1817 187H126.381C132.124 187 136.671 182.622 132.419 176.838L119.535 145.457Z" fill="#BEDAFB"/>
<path d="M119.535 145.457L85.004 145.731L77.0477 174.997C74.6087 183.14 77.4061 187 84.1817 187H126.381C132.124 187 136.671 182.622 132.419 176.838L119.535 145.457Z" stroke="#364B6A" stroke-width="6" stroke-miterlimit="10"/>
</g>
<path d="M3.34591 120.645C3.34591 120.645 2.9734 118.638 3.00151 115.142C3.06477 106.508 5.83399 106.853 12.1808 101.286C27.6226 87.7426 32.866 79.1207 50.6131 72.6719C68.6274 66.1271 80.6954 78.8267 98.2318 84.4063C115.768 89.986 146.103 50.4876 166.001 38.4655C185.899 26.4434 206.113 61.666 206.113 61.666L204.961 116.683L3.34591 120.645Z" fill="#B2E0EF" stroke="#364B6A" stroke-width="6" stroke-miterlimit="10"/>
<path d="M3.02966 146.089V41.4117C3.02966 37.4875 6.52988 34.311 10.8384 34.311H198.347C202.662 34.311 206.156 37.4939 206.156 41.4117V146.089C206.156 150.013 202.655 153.19 198.347 153.19H10.8384C6.52286 153.196 3.02966 150.013 3.02966 146.089Z" fill="#B2C3EF" stroke="#364B6A" stroke-width="6" stroke-miterlimit="10"/>
<path d="M3.02966 119.201V16.5432C3.02966 9.06538 9.69983 3 17.9233 3H191.262C199.486 3 206.156 9.06538 206.156 16.5432V117.283C105.042 119.444 93.7054 117.769 3.02966 119.201Z" fill="#6F8AA9" stroke="#364B6A" stroke-width="6" stroke-miterlimit="10"/>
<path d="M47.4433 47.7903C54.2365 47.7903 59.7434 42.7827 59.7434 36.6055C59.7434 30.4283 54.2365 25.4207 47.4433 25.4207C40.6502 25.4207 35.1433 30.4283 35.1433 36.6055C35.1433 42.7827 40.6502 47.7903 47.4433 47.7903Z" fill="#FFFBD5" stroke="#364B6A" stroke-width="6" stroke-miterlimit="10"/>
<path d="M7.1377 117.961C7.1377 117.961 34.089 83.9715 52.7288 79.0629C71.3616 74.1544 80.7026 88.4134 98.2389 93.9931C115.775 99.5727 146.111 60.0743 166.008 48.0522C185.906 36.0301 205.418 72.531 205.418 72.531L205.671 117.961H7.1377Z" fill="#B2E0EF" stroke="#364B6A" stroke-width="6" stroke-miterlimit="10"/>
<path d="M3.02966 119.201V16.5432C3.02966 9.06538 9.69983 3 17.9233 3H191.262C199.486 3 206.156 9.06538 206.156 16.5432V117.283C105.042 119.444 93.7054 117.769 3.02966 119.201Z" stroke="#364B6A" stroke-width="6" stroke-miterlimit="10"/>
<path d="M157.827 98.7101C157.827 98.7101 189.196 103.708 194.109 86.1512C199.907 65.4561 179.426 67.3927 176.066 72.8445C171.526 80.2137 173.866 78.5775 170.493 86.0362C167.196 93.3415 157.827 98.7101 157.827 98.7101Z" fill="#F7ECC8" stroke="#364B6A" stroke-width="6" stroke-miterlimit="10"/>
<path d="M183.903 66.5872L226.56 16.9139C226.56 16.9139 231.754 11.6219 238.08 16.3067C243.913 20.6272 241.812 25.4143 241.812 25.4143L197.932 80.6034C197.925 80.6034 200.533 66.0951 183.903 66.5872Z" fill="#B77F7B" stroke="#364B6A" stroke-width="6" stroke-miterlimit="10"/>
<defs>
<filter id="filter0_d_1912_766" x="69.1792" y="142.44" width="71.9095" height="55.5598" filterUnits="userSpaceOnUse" color-interpolation-filters="sRGB">
<feFlood flood-opacity="0" result="BackgroundImageFix"/>
<feColorMatrix in="SourceAlpha" type="matrix" values="0 0 0 0 0 0 0 0 0 0 0 0 0 0 0 0 0 0 127 0" result="hardAlpha"/>
<feOffset dy="4"/>
<feGaussianBlur stdDeviation="2"/>
<feComposite in2="hardAlpha" operator="out"/>
<feColorMatrix type="matrix" values="0 0 0 0 0 0 0 0 0 0 0 0 0 0 0 0 0 0 0.38 0"/>
<feBlend mode="normal" in2="BackgroundImageFix" result="effect1_dropShadow_1912_766"/>
<feBlend mode="normal" in="SourceGraphic" in2="effect1_dropShadow_1912_766" result="shape"/>
</filter>
</defs>
</svg>
