<svg width="237" height="97" viewBox="0 0 237 97" fill="none" xmlns="http://www.w3.org/2000/svg">
<path fill-rule="evenodd" clip-rule="evenodd" d="M6.00087 0.867606C4.06484 2.07069 1.94466 4.58321 0.911007 6.89907C0.021003 8.89212 0 9.1778 0 19.1899C0 28.5504 0.0656344 29.6071 0.756109 31.3638C1.60748 33.529 3.35186 35.7111 5.5238 37.3286L6.98801 38.4186L22.528 38.3084L38.068 38.1983V33.7674V29.3366L23.9165 29.1256L9.76529 28.9146L9.10182 27.8596C8.54936 26.9802 8.40759 25.5745 8.25119 19.4199L8.06367 12.0351L9.12995 10.6687L10.1962 9.30229L24.1321 9.19173L38.068 9.08117V4.6503V0.219433L22.6908 0.135458C8.11505 0.0561244 7.2453 0.0941031 6.00087 0.867606ZM45.5533 0.535924C45.4543 0.826251 45.4176 9.41876 45.4712 19.6309L45.5691 38.1983L49.2885 38.3198C52.0118 38.4089 53.0904 38.2958 53.3147 37.8978C53.4835 37.5991 53.6238 31.038 53.6271 23.3178L53.6328 9.28119L66.6644 9.39217L79.696 9.50316L80.1735 11.1438C80.8857 13.5901 80.4428 15.4182 78.8885 16.4503C77.6767 17.2546 76.9776 17.3099 68.051 17.3099C60.6647 17.3099 58.5092 17.4289 58.5126 17.8374C58.5148 18.1277 59.1476 19.1249 59.919 20.0537C60.6902 20.9829 61.9807 22.597 62.7867 23.6406C63.5927 24.6846 65.1961 26.6844 66.3497 28.0845C68.8798 31.1553 72.3949 35.6567 73.5058 37.2488L74.3151 38.4093H79.8918C83.2444 38.4093 85.5615 38.2392 85.7025 37.9827C85.8312 37.748 84.424 35.7069 82.5753 33.4463C78.1523 28.0385 77.2338 26.7654 77.5219 26.4413C77.6535 26.2928 78.7524 26.1717 79.9642 26.1717C85.47 26.1717 89.2629 20.7377 89.2629 12.8499C89.2629 7.70043 87.6899 3.70885 84.7 1.27229L83.1495 0.00843974H64.4415C49.8207 0.00843974 45.6936 0.123642 45.5533 0.535924ZM101.92 0.922464C100.36 1.8732 97.8269 4.91278 96.9542 6.88135C96.4936 7.92028 96.3889 10.2155 96.3889 19.2903C96.3889 29.494 96.4497 30.5561 97.1169 31.9909C98.0351 33.9649 99.7892 36.0398 101.668 37.3742L103.125 38.4093H117.796C133.96 38.4093 133.308 38.5068 136.076 35.6735C139.311 32.3618 139.886 29.8759 139.891 19.1785C139.895 12.3836 139.772 10.2973 139.271 8.6288C138.094 4.70642 136.64 2.80579 133.241 0.746918C132.138 0.0789116 130.654 0.0109716 117.675 0.0367129C103.989 0.06372 103.263 0.104653 101.92 0.922464ZM151.436 0.914868C147.096 3.56748 144.952 11.7177 147.199 17.0196C148.202 19.3869 149.981 21.7695 151.603 22.9186C152.509 23.5608 153.965 23.6397 164.927 23.6397C175.872 23.6397 177.337 23.7186 178.161 24.3537C178.671 24.7466 179.213 25.2686 179.364 25.5142C179.792 26.2071 179.7 27.6229 179.175 28.4301C178.737 29.104 177.521 29.1606 163.892 29.1454C155.748 29.1365 148.867 29.2863 148.601 29.4788C148.247 29.7345 148.147 30.9515 148.226 34.0134L148.334 38.1983L165.271 38.308L182.208 38.4177L183.833 37.0235C190.108 31.6385 189.644 20.6116 182.94 15.7853L181.541 14.778L169.251 14.7759L156.96 14.7738L155.851 13.7754C154.816 12.8432 154.765 12.6672 155.101 11.1396L155.46 9.50316L170.837 9.29216L186.214 9.08117V4.6503V0.219433L169.525 0.139678C153.403 0.0628762 152.787 0.0894612 151.436 0.914868ZM199.472 1.39425C197.571 3.02607 196.188 5.29003 195.291 8.23719C194.455 10.986 194.484 12.7837 195.413 15.879C196.282 18.7746 197.869 21.1395 199.922 22.5978C201.338 23.6034 201.392 23.6077 213.899 23.7288C225.635 23.8427 226.507 23.9031 227.244 24.6546C228.159 25.5872 228.311 27.9183 227.506 28.6707C227.123 29.0277 222.979 29.1581 212.41 29.1458C204.397 29.1361 197.624 29.2859 197.358 29.4783C197.004 29.7345 196.904 30.9515 196.983 34.0134L197.091 38.1983L213.593 38.3156C222.67 38.3797 230.433 38.3371 230.846 38.2202C232.825 37.6603 235.703 33.5704 236.48 30.2139C237.167 27.2431 237.171 26.3797 236.505 23.503C235.666 19.8794 234.268 17.6361 231.697 15.7853L230.298 14.778H218.083C204.248 14.778 203.654 14.6679 203.654 12.1047C203.654 9.17569 202.929 9.30693 219.782 9.18835L234.971 9.08117V4.6503V0.219433L218.034 0.109717L201.097 0L199.472 1.39425ZM116.689 13.6175C116.681 15.8802 116.666 17.8741 116.658 18.0484C116.649 18.2227 113.899 18.3294 110.548 18.2864L104.453 18.2075L104.342 14.9531C104.238 11.8946 104.294 11.6258 105.265 10.4843L106.299 9.27022L111.503 9.38669L116.705 9.50316L116.689 13.6175ZM130.066 10.0551C130.864 10.7463 130.918 11.0654 130.816 14.513L130.706 18.2261L124.768 18.2252C121.502 18.2248 118.745 18.1294 118.642 18.0134C118.503 17.856 118.389 11.0172 118.501 9.50316C118.51 9.38711 120.922 9.29638 123.862 9.30145C128.384 9.30946 129.339 9.42551 130.066 10.0551ZM116.708 24.6947C116.685 27.0156 116.661 29.0095 116.654 29.1256C116.647 29.2416 114.321 29.2728 111.485 29.1948C106.527 29.058 106.288 29.0104 105.296 27.955C104.342 26.9397 104.265 26.6109 104.265 23.5507V20.2436L110.508 20.3592L116.751 20.4748L116.708 24.6947ZM130.894 23.9963C130.894 29.1095 130.982 29.0412 124.231 29.1593C121.288 29.2108 118.785 29.1454 118.668 29.0133C118.509 28.8357 118.379 22.1286 118.501 20.4748C118.51 20.3588 121.302 20.2638 124.706 20.2638H130.894V23.9963ZM5.63069 56.0007C2.93668 56.6273 1.12516 59.5365 1.12516 63.2378C1.12516 68.1396 3.32261 71.0125 7.1159 71.0707C8.91729 71.0981 9.481 70.9124 10.6534 69.9064C12.7601 68.0986 13.3834 65.4165 11.6964 65.4165C10.9561 65.4165 9.75141 66.6479 9.75141 67.4049C9.75141 67.9455 8.4976 68.3569 6.82674 68.3645C5.96674 68.3687 5.30964 68.0303 4.67018 67.2538C3.88256 66.2972 3.75054 65.7279 3.75054 63.2825C3.75054 60.6126 3.82518 60.3569 4.90458 59.3352C6.60808 57.722 8.25945 57.8578 9.94044 59.7496C11.4808 61.4823 12.142 61.454 12.3025 59.6483C12.5141 57.2671 8.83515 55.2559 5.63069 56.0007ZM92.2634 56.056C90.7849 56.5096 89.3668 57.7637 88.5316 59.3563C87.5238 61.2781 87.4589 65.7558 88.4142 67.4357C89.9283 70.0984 91.5402 71.0926 94.2436 71.0319C98.0489 70.9458 100.268 68.1792 100.271 63.5175C100.273 60.3497 99.3811 58.1478 97.6229 56.9805C96.1812 56.0235 93.7414 55.6027 92.2634 56.056ZM145.709 55.9889C144.225 56.4357 142.896 58.2992 142.896 59.9306C142.896 62.0283 144.27 63.3589 147.678 64.5624C150.193 65.4502 150.397 65.6102 150.397 66.69C150.397 68.029 149.853 68.3704 147.722 68.3704C146.488 68.3704 146.018 68.1067 144.979 66.831C143.554 65.0806 142.521 65.1245 142.521 66.9361C142.521 68.594 144.692 70.731 146.718 71.0673C149.959 71.6049 153.022 69.5249 153.022 66.7867C153.022 64.1079 151.787 62.8221 148.21 61.7781C147.04 61.4367 145.866 60.9151 145.601 60.6189C144.962 59.9058 145.371 58.809 146.391 58.501C148.047 58.0013 148.987 58.2621 150.022 59.5087C150.6 60.2049 151.348 60.7746 151.684 60.7746C153.185 60.7746 152.64 58.0435 150.881 56.7463C149.932 56.0475 146.959 55.6116 145.709 55.9889ZM194.466 55.9737C190.668 57.0232 188.684 61.3933 189.955 65.9085C191.488 71.356 196.542 72.9975 199.955 69.1566C201.685 67.2104 201.835 65.9765 200.393 65.5688C199.772 65.3937 199.327 65.4642 199.242 65.7507C199.166 66.0077 198.765 66.7023 198.352 67.2943C197.77 68.1269 197.26 68.3704 196.102 68.3704C194.105 68.3704 193.264 67.7986 192.59 65.9828C191.863 64.0252 191.879 62.4212 192.643 60.6189C193.82 57.841 196.173 57.503 198.422 59.7884C199.807 61.1962 199.995 61.2747 200.534 60.6679C202.464 58.4976 197.954 55.0094 194.466 55.9737ZM14.2521 63.5175V70.9023H19.1056C21.9654 70.9023 24.0552 70.7276 24.1932 70.4765C24.3215 70.2423 24.3204 69.6727 24.1899 69.2106C23.9753 68.4506 23.6183 68.3704 20.4405 68.3704C17.2165 68.3704 16.9078 68.2987 16.6813 67.496C16.5455 67.015 16.5376 66.1604 16.6633 65.5971C16.8812 64.6198 17.0293 64.5725 19.8719 64.5725C22.3315 64.5725 22.9109 64.4434 23.1896 63.834C23.8685 62.3491 23.3239 62.0406 20.0223 62.0406C16.5879 62.0406 16.1986 61.7722 16.6565 59.7188C16.8838 58.701 16.9982 58.6647 19.9975 58.6647C23.2024 58.6647 24.0035 58.3102 24.0035 56.8923C24.0035 56.1999 23.5729 56.1328 19.1278 56.1328H14.2521V63.5175ZM25.7313 56.8003C25.4317 57.6785 25.4373 67.8906 25.7381 69.5836C25.9181 70.5955 26.1705 70.9023 26.8231 70.9023C27.9584 70.9023 28.1291 70.2368 28.1291 65.8039C28.1291 63.734 28.266 62.0406 28.4336 62.0406C28.7573 62.0406 30.3794 64.3505 30.3794 64.8114C30.3794 64.9612 30.8857 65.8034 31.5046 66.6824C32.1234 67.5614 32.6353 68.4434 32.6421 68.6422C32.6774 69.66 34.1622 70.9538 35.149 70.8264L36.1927 70.6913V63.5175V56.3438L35.2975 56.2015C33.999 55.9948 33.7669 56.7333 33.7605 61.0911C33.7575 63.2382 33.6281 64.989 33.4736 64.9827C33.3191 64.9759 32.6113 63.8842 31.901 62.5563C29.411 57.9005 28.0526 56.1328 26.9642 56.1328C26.3937 56.1328 25.8607 56.4214 25.7313 56.8003ZM37.3033 56.5813C36.8326 57.438 38.3047 58.6647 39.8038 58.6647H41.2353L41.3396 64.678L41.4435 70.6913H42.5687H43.6938L43.7977 64.678L43.902 58.6647H45.5335C47.2715 58.6647 48.2492 57.8735 47.8731 56.7712C47.6938 56.245 46.767 56.1328 42.6024 56.1328C39.4388 56.1328 37.4574 56.3003 37.3033 56.5813ZM48.9228 56.6771C48.8208 56.9767 48.7837 60.2522 48.8411 63.9564L48.9446 70.6913L53.9399 70.8095L58.9357 70.9272L58.8156 69.7545L58.696 68.5814L55.0392 68.4607L51.3824 68.34V66.4563V64.5725H54.3371C57.4163 64.5725 58.4612 64.0324 57.9995 62.6791C57.8289 62.1782 57.0923 62.0406 54.582 62.0406H51.3824V60.3526V58.6647H54.7122C58.1773 58.6647 59.2274 58.1722 58.7496 56.7712C58.4545 55.9053 49.2161 55.8171 48.9228 56.6771ZM60.6114 56.8003C60.2626 57.8224 60.3522 69.771 60.713 70.4116C60.8882 70.7221 61.4339 70.912 61.9263 70.8335C62.756 70.7019 62.8298 70.482 62.9326 67.8429L63.0433 64.9945H64.4951C65.7339 64.9945 66.1161 65.2355 67.1032 66.6377C67.7393 67.5416 68.2655 68.4434 68.2723 68.6422C68.2794 68.8409 68.6113 69.4439 69.01 69.9824C69.756 70.9893 71.6275 71.164 71.893 70.2512C71.9635 70.0094 71.2798 68.5679 70.3741 67.0483L68.7272 64.2851L69.9 63.2226C70.9044 62.3132 71.0728 61.8836 71.0728 60.2353C71.0728 58.779 70.8515 58.0456 70.1637 57.2219C69.2909 56.1766 69.085 56.1328 65.0468 56.1328C61.5558 56.1328 60.8004 56.2463 60.6114 56.8003ZM77.802 56.6771C77.7 56.9767 77.6629 60.2522 77.7203 63.9564L77.8238 70.6913L78.842 70.8234C79.9942 70.9728 80.1847 70.4774 80.3513 66.8934L80.4491 64.7835L83.0745 64.5725C85.575 64.3716 85.6999 64.3113 85.6999 63.3065C85.6999 62.2988 85.5791 62.2423 83.0108 62.0406C81.5319 61.9245 80.2294 61.7249 80.1165 61.5975C80.0036 61.4696 80.0441 60.805 80.2061 60.1205C80.496 58.8955 80.5467 58.8736 83.3483 58.7533C86.2932 58.6263 87.3156 58.0524 86.8787 56.7712C86.5843 55.9074 78.0946 55.8196 77.802 56.6771ZM101.805 56.6771C101.703 56.9767 101.666 60.2522 101.724 63.9564L101.827 70.6913H102.952H104.078L104.189 67.8197L104.3 64.9481L105.877 65.0768C107.365 65.1983 107.548 65.365 109.141 68.0505C110.525 70.3829 111.01 70.896 111.838 70.8989C113.247 70.9036 113.491 70.1849 112.561 68.7692C112.124 68.1045 111.766 67.4454 111.766 67.3045C111.766 67.1635 111.344 66.4259 110.829 65.665C109.699 63.9986 109.688 63.8868 110.629 63.61C111.647 63.3103 112.684 60.7383 112.364 59.3057C112.225 58.6811 111.703 57.7118 111.205 57.1514C110.357 56.1973 110.038 56.1328 106.146 56.1328C103.099 56.1328 101.942 56.2779 101.805 56.6771ZM119.142 56.4142C119.005 56.5687 118.892 59.8028 118.892 63.6011C118.892 69.6051 118.972 70.5415 119.506 70.7719C120.732 71.3011 121.328 70.3136 121.367 67.6893L121.404 65.2055L122.966 65.0755C124.369 64.9586 124.594 65.0764 125.179 66.2335C125.537 66.9415 125.957 67.5222 126.112 67.5239C126.267 67.5252 126.393 67.7239 126.393 67.9653C126.393 68.2071 126.763 68.9667 127.214 69.6532C127.785 70.5221 128.356 70.9023 129.089 70.9023C130.578 70.9023 130.461 69.8634 128.644 66.9445C127.026 64.3463 126.842 63.7285 127.685 63.7285C128.575 63.7285 129.394 61.9722 129.394 60.0648C129.394 58.6579 129.175 58.0482 128.366 57.2046C127.4 56.1969 127.101 56.1328 123.365 56.1328C121.18 56.1328 119.28 56.2594 119.142 56.4142ZM131.435 56.6771C131.333 56.9767 131.296 60.2522 131.353 63.9564L131.457 70.6913H136.332H141.208V69.6364C141.208 68.5957 141.158 68.5784 137.461 68.3704C133.409 68.1421 133.154 67.9552 133.681 65.5941C133.898 64.621 134.05 64.5725 136.875 64.5725C139.962 64.5725 141.22 63.9619 140.782 62.6765C140.628 62.2246 139.704 62.0406 137.141 61.9503L133.707 61.8296V60.3526V58.8757L137.27 58.6647C140.825 58.4541 140.833 58.4512 140.951 57.2932L141.07 56.1328H136.345C132.833 56.1328 131.573 56.2724 131.435 56.6771ZM154.688 56.6771C154.586 56.9767 154.549 60.2522 154.606 63.9564L154.71 70.6913L160.741 70.807L166.771 70.9226L167.374 69.541C167.706 68.781 168.069 67.818 168.183 67.4007C168.358 66.7597 168.744 66.6613 170.67 66.7677C173.072 66.9002 173.101 66.9255 174.401 70.0583C174.545 70.4065 175.111 70.7512 175.657 70.8247C176.501 70.9382 176.651 70.7981 176.651 69.8895C176.651 69.3017 176.412 68.1974 176.119 67.4353C175.827 66.6732 175.313 65.2899 174.976 64.3615C174.639 63.4331 174.203 62.344 174.007 61.941C173.811 61.538 173.65 61.0173 173.65 60.7843C173.65 60.5514 173.281 59.4095 172.83 58.2469C172.081 56.3167 171.9 56.1328 170.759 56.1328C169.742 56.1328 169.433 56.3501 169.105 57.2932C168.883 57.9313 168.479 59.0234 168.207 59.7197C167.935 60.4159 167.426 61.9351 167.076 63.0956C166.726 64.256 166.217 65.7752 165.944 66.4715C165.67 67.1677 165.346 68.1016 165.223 68.5464C165.052 69.1629 164.895 69.2384 164.561 68.8629C164.296 68.5641 162.856 68.3704 160.898 68.3704C159.124 68.3704 157.494 68.1691 157.275 67.9227C157.048 67.6674 156.982 66.8964 157.12 66.1292L157.364 64.7835L160.251 64.6603C162.679 64.5569 163.202 64.4041 163.536 63.702C164.19 62.3284 163.635 62.0406 160.336 62.0406C158.607 62.0406 157.118 61.898 157.027 61.7241C156.936 61.5502 156.946 60.7902 157.048 60.0361L157.233 58.6647H160.332C163.56 58.6647 164.608 58.1435 164.14 56.7712C163.845 55.9066 154.981 55.8184 154.688 56.6771ZM177.566 56.6771C177.464 56.9767 177.427 60.2522 177.485 63.9564L177.588 70.6913H178.713C179.834 70.6913 179.839 70.6804 180.026 67.8366C180.129 66.2664 180.34 64.9844 180.495 64.9882C180.65 64.9915 181.352 64.9945 182.055 64.9945C183.223 64.9945 183.483 65.2494 185.063 67.9484C186.585 70.5474 186.932 70.9023 187.951 70.9023C189.026 70.9023 189.09 70.8196 188.851 69.7419C188.71 69.1038 188.354 68.2818 188.06 67.9151C187.767 67.5488 187.527 67.0559 187.527 66.82C187.527 66.5841 187.19 66.0474 186.777 65.6275C185.843 64.6767 185.817 63.8889 186.709 63.6264C187.586 63.3682 188.768 60.5826 188.461 59.4956C188.332 59.036 187.8 58.0916 187.28 57.3966L186.335 56.1328H182.044C178.885 56.1328 177.703 56.2767 177.566 56.6771ZM202.797 56.3948C202.418 56.8214 202.475 69.73 202.859 70.4116C203.034 70.7221 203.579 70.912 204.072 70.8335C204.908 70.7006 204.974 70.4917 205.077 67.6767C205.201 64.2417 205.281 64.1666 208.811 64.1564L210.781 64.1505L210.786 66.9989C210.793 70.2993 211.086 71.0306 212.323 70.8335L213.218 70.6913V63.5175V56.3438L212.2 56.2117C211.064 56.0644 210.868 56.5488 210.692 59.9306C210.629 61.138 210.422 61.8144 210.124 61.7874C209.867 61.7642 208.651 61.7169 207.423 61.6819L205.19 61.6186L205.079 58.9812C204.974 56.5104 204.907 56.3357 204.016 56.2188C203.492 56.1501 202.943 56.2294 202.797 56.3948ZM220.246 56.6231C219.918 56.9924 219.782 59.0213 219.782 63.5505C219.782 70.2972 219.991 71.1627 221.545 70.8259C222.163 70.6922 222.22 70.0761 222.22 63.5116C222.22 56.6514 222.187 56.3387 221.465 56.2222C221.05 56.1551 220.502 56.3357 220.246 56.6231ZM224.855 56.5362C224.546 57.0995 224.542 69.9279 224.851 70.4909C224.975 70.7171 225.404 70.9023 225.805 70.9023C226.481 70.9023 226.533 70.574 226.533 66.2605C226.533 63.6133 226.686 61.6186 226.889 61.6186C227.272 61.6186 229.158 64.2315 229.158 64.7624C229.158 64.9392 229.664 65.8034 230.283 66.6824C230.902 67.5614 231.408 68.4577 231.408 68.6742C231.408 69.5051 233.228 70.969 234.091 70.8314L234.971 70.6913V63.5175V56.3438L234.076 56.2015C232.745 55.9897 232.495 56.8008 232.614 60.9502C232.692 63.6741 232.592 64.7611 232.252 64.8886C231.995 64.9856 231.784 64.8713 231.784 64.6341C231.784 64.3974 230.711 62.4351 229.4 60.2737C227.572 57.2612 226.793 56.3134 226.059 56.2142C225.534 56.1429 224.992 56.2876 224.855 56.5362ZM68.1579 59.2133C68.6616 59.78 68.6908 60.0897 68.3263 60.9903C67.9107 62.0165 67.7461 62.0735 65.5407 61.9553C63.2762 61.8338 63.1925 61.7891 63.0748 60.6337C62.8512 58.4356 63.1805 58.1191 65.4717 58.333C66.6899 58.4465 67.8001 58.8103 68.1579 59.2133ZM96.0653 58.977C97.318 59.8095 97.6919 60.9472 97.6649 63.8446C97.6371 66.8631 96.6515 68.1248 94.1945 68.2868C92.503 68.3987 92.1478 68.2733 91.3261 67.2758C90.5201 66.2976 90.3881 65.7406 90.3881 63.3184C90.3881 60.9324 90.5179 60.367 91.232 59.6361C92.7626 58.0693 94.3697 57.8503 96.0653 58.977ZM109.454 59.2584C109.915 59.7766 109.941 60.1049 109.59 60.97C109.191 61.9566 108.966 62.0406 106.711 62.0406H104.265V60.4231C104.265 59.5331 104.391 58.6592 104.546 58.4803C105.002 57.9532 108.834 58.5609 109.454 59.2584ZM125.643 58.6204C126.412 58.8609 126.581 59.1761 126.581 60.3716V61.8296H123.955H121.33L121.437 60.5636C121.496 59.8673 121.617 59.0605 121.707 58.7702C121.881 58.206 124.054 58.1229 125.643 58.6204ZM184.491 58.6107C185.902 59.055 186.32 60.1332 185.484 61.1717C184.919 61.8747 184.332 62.0406 182.406 62.0406H180.026V60.4231C180.026 59.5331 180.139 58.6786 180.276 58.5242C180.587 58.1739 183.28 58.2292 184.491 58.6107ZM171.417 61.449C172.365 63.7914 172.195 64.4974 170.704 64.413C169.191 64.3273 168.958 63.9674 169.674 62.8179C170.004 62.287 170.275 61.3253 170.275 60.6805C170.275 59.0495 170.509 59.2074 171.417 61.449ZM4.63042 82.22C3.9797 82.6099 2.92505 83.7873 2.28633 84.8368C1.31832 86.4272 1.12516 87.1493 1.12516 89.1786C1.12516 92.108 2.07743 94.4585 3.83568 95.8696C5.5313 97.2301 9.50913 97.2512 11.0277 95.9072C13.236 93.9525 13.64 92.9638 13.64 89.5137C13.64 85.8234 13.1213 84.5962 10.7412 82.6559C9.00768 81.2431 6.55295 81.068 4.63042 82.22ZM15.846 81.7314C15.4961 81.8904 15.3772 83.8092 15.3772 89.2938V96.6435H16.5024C17.6002 96.6435 17.6276 96.5929 17.6276 94.5682C17.6276 91.5143 17.838 91.1577 19.6393 91.1577C23.4244 91.1577 25.5037 89.5508 25.5037 86.6256C25.5037 84.2072 25.0454 83.3244 23.2556 82.2972C22.1571 81.6668 21.0882 81.4604 19.049 81.4853C17.545 81.5035 16.1041 81.6145 15.846 81.7314ZM27.3827 82.2884C27.1367 82.8049 27.0242 85.6672 27.0883 89.7787L27.1914 96.4326L32.1609 96.5503L37.1304 96.668V95.616C37.1304 94.575 37.0925 94.5627 33.4736 94.4433L29.8168 94.3226V92.4237V90.5247L33.0048 90.3137C36.1054 90.1087 36.1927 90.0736 36.1927 89.0478C36.1927 88.0219 36.1054 87.9869 33.0048 87.7818L29.8168 87.5708L29.7013 86.004L29.5858 84.4371L33.2598 84.316C36.5483 84.2076 36.9488 84.1093 37.073 83.3788C37.3265 81.8888 36.1357 81.452 31.8211 81.452C28.1767 81.452 27.7413 81.5339 27.3827 82.2884ZM39.4745 81.7267C39.1253 81.8888 39.0056 83.7721 39.0056 89.0963C39.0056 95.3282 39.0844 96.2823 39.6192 96.5132C39.9568 96.6587 40.5051 96.5845 40.8382 96.3477C41.3392 95.992 41.421 95.262 41.3137 92.1106C41.2425 90.0107 41.3426 88.1933 41.5376 88.0578C41.7319 87.9228 43.0559 89.8027 44.4799 92.2355C46.8893 96.3511 47.1477 96.6507 48.1945 96.5456L49.3196 96.4326L49.4224 89.4242C49.5079 83.5632 49.4314 82.3285 48.9536 81.8824C48.4971 81.4562 48.2687 81.4545 47.8194 81.874C47.3881 82.2766 47.2568 83.3813 47.2568 86.6028C47.2568 89.6124 47.1327 90.7594 46.8203 90.6425C46.5802 90.5522 45.1749 88.495 43.6976 86.0707C41.1292 81.8571 40.5272 81.2376 39.4745 81.7267ZM58.7192 82.3057C57.5945 83.1142 56.6703 84.5865 56.6463 85.6082C56.6392 85.9213 56.8965 86.8015 57.2183 87.5649C57.8 88.944 59.1922 89.7909 62.0715 90.5176C63.3219 90.8332 64.5093 91.8641 64.5093 92.6347C64.5093 93.4867 63.1903 94.5336 62.1172 94.5336C60.7914 94.5336 58.8835 93.4154 58.8835 92.6389C58.8835 91.6983 57.4542 90.9881 56.7967 91.6021C56.0177 92.3296 56.1306 93.2107 57.2059 94.7969C59.0302 97.4879 63.9678 97.78 65.8179 95.3063C68.4257 91.8194 66.9569 89.3094 61.138 87.3062C58.3198 86.3365 58.6709 84.4253 61.6691 84.4122C62.8685 84.4072 63.3264 84.6545 64.1358 85.7453C65.3558 87.3898 66.3846 87.1704 66.3846 85.2659C66.3846 84.254 66.0621 83.7261 64.8281 82.7205C62.966 81.2026 60.488 81.0347 58.7192 82.3057ZM71.2206 82.4994C69.1431 84.032 68.2599 86.0584 68.2599 89.2913C68.2599 91.4721 68.4474 92.3528 69.1964 93.6875C70.6058 96.2 71.7438 96.8583 74.6291 96.8322C77.4821 96.806 79.0689 95.8021 80.0921 93.3761C81.002 91.2193 80.8782 86.8442 79.8547 84.9811C77.9835 81.5744 74.0188 80.435 71.2206 82.4994ZM82.887 81.8655C82.4369 82.1863 82.3244 83.3016 82.3244 87.4506C82.3244 95.2561 83.3179 96.8925 88.0099 96.8153C92.1066 96.7478 93.0135 95.0396 93.0135 87.3881C93.0135 82.8977 92.9351 82.2787 92.3207 81.9086C91.0868 81.1655 90.7631 82.1706 90.7631 86.7484C90.7631 91.367 90.3315 93.4681 89.2483 94.1205C88.074 94.8277 86.6424 94.5775 85.683 93.4976C84.8043 92.5093 84.7623 92.2232 84.7623 87.213C84.7623 82.8163 84.6659 81.9225 84.1689 81.7081C83.4485 81.3971 83.5651 81.3828 82.887 81.8655ZM95.7326 81.7314C95.3834 81.89 95.2638 83.7696 95.2638 89.0963C95.2638 95.3282 95.3425 96.2823 95.8774 96.5132C97.1383 97.0575 97.7039 96.0545 97.6664 93.3381C97.6278 90.5273 97.8944 90.1677 99.6388 90.6796C100.351 90.8885 101.318 91.9257 102.566 93.8175C104.087 96.1232 104.622 96.6435 105.473 96.6435C106.925 96.6435 106.818 95.7679 104.998 92.7676L103.48 90.2665L104.602 89.0883C106.037 87.5797 106.319 86.2555 105.61 84.3477C104.842 82.2778 102.939 81.441 99.1006 81.4853C97.5059 81.5035 95.9906 81.6145 95.7326 81.7314ZM110.208 82.8395C108.289 84.4861 107.094 87.5101 107.384 89.9901C107.638 92.1713 108.952 95.002 110.178 96.0106C111.601 97.1812 115.693 97.1702 117.081 95.9916C118.132 95.0999 119.267 93.1237 119.267 92.1865C119.267 91.3552 117.298 90.8425 117.069 91.6143C116.722 92.7866 114.81 94.5336 113.875 94.5336C110.646 94.5336 108.814 90.1057 110.506 86.3893C111.315 84.6123 111.628 84.4198 113.724 84.4122C115.259 84.4068 115.604 84.5739 116.326 85.6719C117.19 86.9864 117.615 87.1674 118.445 86.5749C119.301 85.9643 118.525 83.9957 116.912 82.6808C114.729 80.9013 112.402 80.9566 110.208 82.8395ZM121.146 82.2884C120.9 82.8049 120.788 85.6672 120.852 89.7787L120.955 96.4326L125.744 96.5507C129.848 96.652 130.567 96.5722 130.764 95.9949C131.18 94.7746 130.259 94.3648 127.339 94.4699C123.854 94.5948 123.018 94.1568 123.018 92.2059C123.018 90.5074 123.305 90.3745 127.331 90.2099C129.856 90.107 129.956 90.0622 129.956 89.0478C129.956 88.0333 129.856 87.9886 127.331 87.8856C123.28 87.7198 122.951 87.5717 123.089 85.974L123.205 84.6169L126.765 84.4059C129.806 84.2257 130.342 84.0848 130.452 83.4362C130.73 81.7968 129.889 81.452 125.611 81.452C121.94 81.452 121.505 81.5334 121.146 82.2884ZM139.015 82.9492C137.427 84.6849 137.222 86.35 138.373 88.1684C139.057 89.2503 140.241 89.8525 143.235 90.6425C143.937 90.8277 144.751 91.3852 145.044 91.8814C145.52 92.6878 145.493 92.8769 144.798 93.6588C144.371 94.1399 143.548 94.5336 142.97 94.5336C141.692 94.5336 139.902 93.65 139.898 93.0166C139.893 92.238 138.458 91.0404 137.846 91.3041C136.786 91.762 137.164 93.831 138.593 95.3886C139.859 96.7693 140.036 96.8309 142.72 96.8309C145.278 96.8309 145.615 96.7292 146.554 95.6726C147.4 94.721 147.584 94.1412 147.584 92.4224C147.584 90.6716 147.431 90.2082 146.647 89.5833C145.089 88.3414 144.154 87.8814 142.585 87.5831C140.886 87.2602 139.762 86.131 140.114 85.1001C140.293 84.5751 140.842 84.4059 142.363 84.4059C144.221 84.4059 144.422 84.5038 144.958 85.6719C145.278 86.3682 145.691 86.9378 145.875 86.9378C147.423 86.9378 147.868 85.2777 146.728 83.7598C145.461 82.0744 144.269 81.452 142.307 81.452C140.613 81.452 140.223 81.6297 139.015 82.9492ZM152.032 82.6559C149.658 84.5912 149.173 85.7537 149.173 89.5082C149.173 93.0263 149.551 93.9643 151.751 95.9114C153.133 97.1347 157.191 97.1959 158.78 96.0173C160.673 94.6138 161.648 92.3562 161.648 89.3816C161.648 87.1244 161.481 86.4694 160.486 84.8368C158.336 81.306 154.806 80.3953 152.032 82.6559ZM163.534 82.2745C163.28 82.8083 163.168 85.6018 163.233 89.7787L163.336 96.4326H164.461H165.586L165.774 93.4786L165.962 90.5247L168.704 90.4002C171.44 90.2762 171.446 90.2732 171.329 89.1343C171.217 88.0384 171.107 87.9844 168.587 87.7818L165.962 87.5708V86.0939V84.6169L169.078 84.4941L172.195 84.3709L172.079 83.0172L171.962 81.663L167.95 81.5436C164.254 81.4334 163.907 81.4908 163.534 82.2745ZM173.419 82.0605C172.91 83.5531 173.433 84.1907 175.341 84.4059L177.213 84.6169L177.317 90.6572L177.422 96.6971L178.443 96.5651L179.463 96.4326L179.651 90.5247L179.839 84.6169L181.714 84.3603C182.745 84.2194 183.686 84.1624 183.804 84.2337C183.923 84.3051 184.226 85.1803 184.479 86.1783C184.732 87.1763 185.184 88.8727 185.483 89.9483C185.782 91.0239 186.027 92.2992 186.027 92.7824C186.027 93.2655 186.311 94.3319 186.659 95.1522C187.164 96.3435 187.506 96.6435 188.359 96.6435C188.946 96.6435 189.485 96.4064 189.557 96.1161C189.629 95.8262 189.951 94.5442 190.272 93.2676C190.594 91.9911 191.056 90.0922 191.299 89.0478C192.034 85.8909 192.11 85.7837 192.487 87.3598C192.682 88.1721 192.996 89.1664 193.185 89.5694C193.373 89.9724 193.528 90.6446 193.528 91.0628C193.528 91.4809 193.853 92.8604 194.249 94.1277C194.887 96.1646 195.091 96.4326 196.003 96.4326C197.113 96.4326 197.419 95.6941 198.983 89.2588C199.321 87.8662 199.751 86.1437 199.938 85.4309C200.386 83.7274 200.372 81.9883 199.907 81.6651C198.774 80.8773 197.64 83.421 196.948 88.3034C196.792 89.4022 196.561 90.4184 196.434 90.561C196.006 91.0425 195.462 90.3116 195.227 88.9376C194.599 85.2676 193.436 81.9453 192.706 81.7305C191.383 81.3414 190.951 81.8871 190.134 84.9718C188.34 91.7485 187.87 92.4363 187.495 88.8368C187.374 87.6763 187.079 86.1922 186.839 85.5389C186.599 84.8857 186.402 83.8843 186.402 83.3142C186.402 82.0563 184.85 81.0465 184.056 81.7879C183.743 82.0808 183.364 82.1057 183.014 81.8563C182.711 81.6411 180.475 81.4621 178.045 81.4583C174.539 81.4533 173.584 81.5778 173.419 82.0605ZM204.231 83.0269C203.707 83.8932 203.279 84.8363 203.279 85.1225C203.279 85.409 203.041 86.2669 202.748 87.029C202.456 87.7911 201.949 89.1081 201.623 89.9555C201.297 90.8028 201.029 91.6759 201.029 91.8949C201.029 92.1144 200.764 92.8929 200.439 93.6246C199.658 95.3856 199.865 96.4326 200.993 96.4326C201.918 96.4326 202.274 95.9772 202.895 94.0061C203.244 92.9001 203.376 92.8457 205.717 92.8457C208.058 92.8457 208.191 92.9001 208.539 94.0061C209.145 95.9283 209.504 96.4258 210.393 96.5739C211.635 96.7803 212.017 96.1338 211.496 94.7032C210.596 92.2296 209.972 90.5041 209.682 89.6808C209.518 89.2166 209.108 88.1181 208.77 87.24C208.432 86.3618 208.155 85.409 208.155 85.1225C208.155 84.2582 206.291 81.452 205.717 81.452C205.423 81.452 204.754 82.1605 204.231 83.0269ZM213.406 81.8643C212.957 82.1825 212.819 83.5176 212.721 88.4532C212.572 96.0106 212.694 96.744 214.075 96.5646C215.057 96.4372 215.098 96.3313 215.204 93.6065C215.294 91.3084 215.442 90.7349 215.998 90.5365C217.173 90.1171 218.589 91.0531 219.627 92.9347C221.087 95.5839 222.055 96.6435 223.013 96.6435C224.444 96.6435 224.399 95.892 222.809 93.2119C221.969 91.797 221.282 90.4931 221.282 90.3142C221.282 90.1352 221.683 89.693 222.174 89.3314C222.687 88.9528 223.163 88.0814 223.295 87.2784C223.933 83.3965 221.833 81.4663 216.969 81.4655C215.319 81.4651 213.715 81.6444 213.406 81.8643ZM225.988 82.1255C225.48 82.6964 225.405 83.8324 225.492 89.6158L225.595 96.4326L230.44 96.5511C235.567 96.6769 236.583 96.3764 235.428 95.0771C234.921 94.507 234.197 94.38 231.881 94.4551C230.28 94.5074 228.777 94.4036 228.539 94.2251C228.015 93.8302 227.763 91.5691 228.163 90.8408C228.357 90.4863 229.496 90.3137 231.643 90.3137H234.834L234.715 89.1533C234.598 88.008 234.557 87.9911 231.614 87.8679C229.973 87.7995 228.448 87.5725 228.225 87.364C228.002 87.1556 227.839 86.4521 227.864 85.801L227.908 84.6169L231.44 84.4059C234.814 84.2042 234.977 84.1502 235.098 83.1876C235.168 82.6336 234.999 82.0196 234.723 81.8225C234.447 81.6259 232.504 81.4621 230.404 81.4583C227.403 81.4533 226.458 81.5959 225.988 82.1255ZM10.0582 85.3794C11.0866 86.6108 11.4902 89.6989 10.8901 91.7451C10.0751 94.5226 7.21567 95.3544 5.00472 93.4571C3.80155 92.4245 3.75054 92.2654 3.75054 89.5398C3.75054 87.2493 3.90919 86.477 4.57041 85.5525C5.27064 84.5734 5.67232 84.4059 7.31806 84.4059C8.84603 84.4059 9.41424 84.6076 10.0582 85.3794ZM22.8056 86.1719C22.9492 88.1114 22.1143 88.7258 19.5838 88.5427C17.8788 88.4194 17.8106 88.3642 17.6951 87.0033C17.4884 84.5798 17.7296 84.3511 20.3418 84.4912L22.6908 84.6169L22.8056 86.1719ZM77.2428 85.4385C77.9584 86.2956 78.1088 86.9518 78.1287 89.2946C78.1508 91.9536 78.0822 92.1882 76.9506 93.3259C75.423 94.8615 73.8268 94.905 72.1394 93.4571C70.9239 92.414 70.8853 92.2882 70.8853 89.3702C70.8853 85.4136 71.6087 84.4059 74.4483 84.4059C76.013 84.4059 76.5441 84.6021 77.2428 85.4385ZM103.14 85.2499C103.426 85.8521 103.424 86.3407 103.131 86.9564C102.77 87.7151 102.418 87.8042 100.211 87.6949C97.7095 87.5712 97.7016 87.567 97.6548 86.3049C97.6289 85.6086 97.681 84.8963 97.7706 84.7224C97.8603 84.5485 99.0147 84.4059 100.336 84.4059C102.355 84.4059 102.803 84.541 103.14 85.2499ZM158.202 85.655C158.837 86.6205 159.023 87.4915 159.023 89.4942C159.023 91.8485 158.917 92.1971 157.858 93.3094C156.544 94.6906 155.091 94.8864 153.41 93.9078C152.009 93.0925 151.357 90.8965 151.686 88.1013C152.012 85.3347 152.936 84.4388 155.483 84.4198C157.159 84.4076 157.478 84.5523 158.202 85.655ZM220.754 85.4664C221.151 87.2442 220.354 87.8358 217.753 87.6949L215.469 87.5708L215.352 85.9884L215.236 84.4059H217.877C220.385 84.4059 220.53 84.4595 220.754 85.4664ZM206.412 87.2543C206.513 87.6607 206.704 88.4199 206.838 88.9423C207.058 89.8027 206.953 89.8917 205.717 89.8917C204.482 89.8917 204.377 89.8027 204.597 88.9423C204.73 88.4199 204.921 87.6607 205.022 87.2543C205.123 86.848 205.436 86.5158 205.717 86.5158C205.999 86.5158 206.312 86.848 206.412 87.2543Z" fill="white"/>
</svg>
