<svg width="270" height="98" viewBox="0 0 270 98" fill="none" xmlns="http://www.w3.org/2000/svg">
<path d="M15.6582 51.2524V59.4092H14.9355C14.795 58.1003 14.3734 56.8286 13.694 55.6651C13.0737 54.7407 12.1824 53.9887 11.1184 53.4922C10.0718 52.9599 8.89174 52.6779 7.69032 52.6732C6.46177 52.6356 5.26532 53.0313 4.35493 53.7764C3.95051 54.0884 3.62533 54.4753 3.40151 54.9108C3.17768 55.3464 3.06047 55.8203 3.05784 56.3003C3.05169 57.0208 3.34222 57.7176 3.87315 58.2559C5.55449 59.6901 7.48174 60.8698 9.58037 61.7493C11.3256 62.5361 12.9986 63.4472 14.5834 64.4738C15.4501 65.0571 16.1648 65.8045 16.6773 66.6634C17.151 67.5022 17.3986 68.4299 17.4 69.3712C17.4074 70.244 17.2059 71.1079 16.8094 71.9041C16.4129 72.7002 15.8306 73.4098 15.1023 73.9845C13.4874 75.3137 11.3573 76.0163 9.17271 75.9401C8.45234 75.9378 7.73341 75.8819 7.02324 75.7729C6.17734 75.6368 5.34183 75.4526 4.5217 75.2213C3.75669 74.9574 2.96101 74.7723 2.14987 74.6698C2.00683 74.6644 1.86408 74.6854 1.73029 74.7314C1.5965 74.7773 1.47447 74.8474 1.37162 74.9372C1.12691 75.2584 0.985794 75.6344 0.963958 76.0236H0.259821V67.8334H0.963958C1.15991 69.1662 1.61799 70.4568 2.31664 71.6444C2.94996 72.5443 3.84813 73.2676 4.91083 73.7337C6.09092 74.2994 7.41032 74.5868 8.74652 74.5695C10.1253 74.6292 11.4793 74.224 12.5452 73.4329C12.9869 73.0996 13.3421 72.6828 13.5854 72.212C13.8288 71.7412 13.9544 71.2278 13.9534 70.7084C13.9259 70.1203 13.7415 69.547 13.4161 69.0369C13.0059 68.3793 12.4434 67.8092 11.7669 67.3654C10.4385 66.5618 9.06549 65.8198 7.65326 65.1424C5.99262 64.3491 4.40071 63.4439 2.89107 62.4346C2.00527 61.8285 1.27256 61.0593 0.741599 60.1781C0.243721 59.359 -0.0115646 58.4379 0.000402156 57.5037C-0.00653548 56.6764 0.183412 55.8573 0.557419 55.1018C0.931427 54.3464 1.48079 53.6721 2.1684 53.1245C2.91078 52.4972 3.78556 52.0111 4.7406 51.6952C5.69565 51.3794 6.71142 51.2401 7.72738 51.2859C9.25842 51.3111 10.7668 51.6242 12.156 52.2052C12.6314 52.4269 13.1453 52.5739 13.6755 52.6398C13.8243 52.6468 13.9732 52.6267 14.1132 52.5807C14.2533 52.5348 14.3817 52.4639 14.4908 52.3723C14.7735 52.0614 14.9533 51.6848 15.0096 51.2859L15.6582 51.2524Z" fill="white"/>
<path d="M33.9652 51.2533C35.625 51.2434 37.2685 51.5495 38.7883 52.1514C40.3082 52.7534 41.6702 53.6377 42.7854 54.7467C44.0162 55.9016 44.9782 57.2671 45.6147 58.7628C46.2512 60.2584 46.5493 61.8538 46.4914 63.455C46.5537 65.0894 46.2584 66.7189 45.6226 68.2504C44.9867 69.7818 44.0226 71.1853 42.7854 72.3807C41.6287 73.5189 40.2189 74.4243 38.648 75.0378C37.0771 75.6513 35.3804 75.959 33.6687 75.9409C31.9695 75.9691 30.2827 75.6741 28.7183 75.075C27.1539 74.476 25.7469 73.5864 24.589 72.4643C23.3465 71.2654 22.3793 69.8565 21.7432 68.3189C21.1072 66.7812 20.8148 65.1452 20.883 63.5052C20.8187 61.7905 21.1644 60.0835 21.8966 58.5C22.6288 56.9166 23.7304 55.494 25.1264 54.3288C27.5116 52.2979 30.6858 51.1934 33.9652 51.2533ZM33.5946 52.5236C32.531 52.5026 31.4764 52.7028 30.5124 53.1086C29.5484 53.5144 28.7009 54.1149 28.0356 54.8637C26.0458 57.3791 25.0833 60.4386 25.3117 63.5219C25.0917 66.6798 26.0578 69.8124 28.0541 72.4141C28.7098 73.1749 29.5545 73.786 30.5201 74.1983C31.4857 74.6106 32.5452 74.8124 33.6131 74.7876C34.7833 74.8059 35.9423 74.5801 36.9998 74.1278C38.0572 73.6755 38.9846 73.0089 39.7094 72.1801C41.303 70.4529 42.0998 67.7284 42.0998 64.0066C42.3685 60.8118 41.4421 57.6279 39.4686 54.964C38.7698 54.1706 37.8741 53.5365 36.8538 53.1126C35.8336 52.6887 34.7171 52.487 33.5946 52.5236Z" fill="white"/>
<path d="M66.9112 52.4392V51.8208H76.1762V52.4727H75.1756C74.7024 52.4578 74.2332 52.5568 73.8164 52.7594C73.3996 52.9621 73.0501 53.2612 72.8038 53.626C72.4534 54.4217 72.3138 55.2802 72.3961 56.1332V65.7107C72.4741 67.5754 72.2111 69.439 71.6178 71.2266C71.0218 72.6074 69.9501 73.7792 68.5604 74.5695C66.6862 75.586 64.5184 76.0748 62.3344 75.9736C60.0663 76.1049 57.8053 75.6342 55.8303 74.6197C54.3739 73.7638 53.2676 72.5018 52.6803 71.026C52.1639 69.1186 51.9579 67.1535 52.0688 65.1926V55.966C52.1955 54.9733 51.9614 53.9703 51.4017 53.1078C51.1173 52.8642 50.7782 52.6785 50.4074 52.5631C50.0366 52.4478 49.6427 52.4056 49.2522 52.4392H48.2701V51.8208H59.5734V52.4727H58.5728C58.1316 52.4331 57.6866 52.497 57.2809 52.658C56.8751 52.8191 56.5223 53.0719 56.2565 53.392C55.8403 54.2066 55.6739 55.1071 55.7748 55.9995V66.279C55.7865 67.3366 55.8794 68.3921 56.0527 69.4381C56.1616 70.4171 56.5029 71.3634 57.0533 72.2127C57.5923 72.9261 58.3263 73.5018 59.1843 73.8842C60.2326 74.3464 61.3904 74.5702 62.5567 74.5361C64.1583 74.5614 65.7405 74.2161 67.1521 73.5332C68.3751 72.9759 69.3542 72.0632 69.9316 70.9424C70.5264 69.2186 70.7773 67.4133 70.6728 65.6104V55.966C70.7913 55.0139 70.6048 54.051 70.1354 53.1914C69.8422 52.9298 69.4906 52.7275 69.1041 52.5978C68.7175 52.4682 68.3048 52.4141 67.8933 52.4392H66.9112Z" fill="white"/>
<path d="M99.4502 51.8208L99.7467 57.3534H99.024C98.96 56.5992 98.7597 55.8596 98.4311 55.1637C98.0815 54.5323 97.5252 54.0129 96.8375 53.6761C96.0215 53.3314 95.1249 53.1708 94.2248 53.2081H90.5188V71.2935C90.4053 72.2275 90.5851 73.1716 91.0376 74.018C91.3353 74.2778 91.6907 74.4778 92.0804 74.6046C92.4701 74.7313 92.8852 74.7821 93.2983 74.7534H94.2062V75.3886H83.0883V74.7534H84.0148C84.4596 74.7943 84.9087 74.7329 85.3201 74.5751C85.7316 74.4173 86.0921 74.1681 86.3681 73.8508C86.7467 73.0443 86.8933 72.1647 86.7943 71.2935V53.275H83.6998C82.8208 53.2342 81.94 53.3131 81.0871 53.509C80.3819 53.7632 79.7804 54.2066 79.3638 54.7793C78.8441 55.5457 78.5565 56.4218 78.5299 57.3199H77.8258L78.1038 51.8208H99.4502Z" fill="white"/>
<path d="M108.864 62.7355H121.02V56.0496C121.069 55.2456 120.982 54.4396 120.761 53.6594C120.596 53.3338 120.306 53.0726 119.945 52.924C119.417 52.6463 118.815 52.5019 118.204 52.5061H117.277V51.8208H128.395V52.4727H127.468C126.823 52.4584 126.184 52.5967 125.615 52.8738C125.421 52.9546 125.246 53.0704 125.103 53.2141C124.96 53.3578 124.85 53.5264 124.782 53.7096C124.591 54.4656 124.516 55.2418 124.559 56.0162V71.2099C124.565 72.0039 124.702 72.7927 124.967 73.5499C125.137 73.8707 125.416 74.1342 125.764 74.3021C126.33 74.585 126.969 74.7291 127.617 74.72H128.543V75.3551H117.425V74.72H118.352C118.788 74.7524 119.226 74.6922 119.631 74.5441C120.037 74.3961 120.398 74.1643 120.687 73.8675C121.107 73.0244 121.273 72.0961 121.168 71.1764V64.0225H108.864V71.2099C108.816 71.9964 108.897 72.785 109.105 73.5499C109.28 73.8733 109.566 74.1371 109.921 74.3021C110.487 74.585 111.126 74.7291 111.774 74.72H112.719V75.3551H101.415V74.72H102.342C102.781 74.7537 103.222 74.6942 103.631 74.5462C104.04 74.3981 104.404 74.1657 104.695 73.8675C105.097 73.0197 105.257 72.0943 105.158 71.1764V55.9828C105.207 55.1788 105.12 54.3727 104.899 53.5926C104.736 53.2714 104.454 53.0114 104.102 52.8571C103.539 52.5665 102.898 52.4219 102.249 52.4392H101.323V51.8208H112.533V52.4727H111.588C110.942 52.4584 110.304 52.5967 109.735 52.8738C109.347 53.0433 109.048 53.3433 108.901 53.7096C108.71 54.4656 108.636 55.2418 108.679 56.0162L108.864 62.7355Z" fill="white"/>
<path d="M157.282 51.2524V59.4092H156.559C156.419 58.1003 155.997 56.8286 155.318 55.6651C154.703 54.743 153.818 53.9912 152.761 53.4922C151.708 52.9578 150.522 52.6758 149.314 52.6732C148.092 52.6382 146.902 53.0338 145.997 53.7764C145.593 54.0884 145.268 54.4753 145.044 54.9108C144.82 55.3464 144.703 55.8203 144.7 56.3003C144.694 57.0208 144.985 57.7176 145.515 58.2559C147.197 59.6901 149.124 60.8698 151.223 61.7493C152.965 62.5402 154.638 63.451 156.226 64.4738C157.083 65.0704 157.785 65.8292 158.283 66.6968C158.756 67.5356 159.004 68.4633 159.005 69.4046C159.013 70.2774 158.811 71.1414 158.415 71.9375C158.018 72.7336 157.436 73.4432 156.708 74.0179C155.093 75.3472 152.963 76.0497 150.778 75.9735C150.058 75.9713 149.339 75.9154 148.628 75.8064C147.788 75.6586 146.959 75.4632 146.145 75.2213C145.38 74.9574 144.585 74.7723 143.774 74.6698C143.631 74.6644 143.488 74.6854 143.354 74.7314C143.22 74.7773 143.098 74.8474 142.995 74.9372C142.751 75.2584 142.61 75.6344 142.588 76.0236H141.884V67.8334H142.68C142.876 69.1662 143.334 70.4568 144.033 71.6444C144.666 72.5443 145.565 73.2676 146.627 73.7337C147.807 74.2994 149.127 74.5868 150.463 74.5695C151.81 74.6084 153.127 74.2045 154.169 73.4329C154.624 73.1061 154.994 72.6922 155.25 72.221C155.506 71.7498 155.643 71.2332 155.651 70.7084C155.624 70.1203 155.439 69.547 155.114 69.0369C154.704 68.3793 154.141 67.8092 153.465 67.3654C152.136 66.5618 150.763 65.8198 149.351 65.1424C147.669 64.3298 146.058 63.4022 144.533 62.3677C143.649 61.7827 142.91 61.0368 142.365 60.1781C141.868 59.359 141.612 58.4379 141.624 57.5037C141.617 56.6764 141.807 55.8573 142.181 55.1018C142.555 54.3464 143.105 53.6721 143.792 53.1245C144.535 52.4972 145.409 52.0111 146.364 51.6952C147.319 51.3794 148.335 51.2401 149.351 51.2859C150.882 51.3111 152.391 51.6242 153.78 52.2052C154.255 52.4269 154.769 52.5739 155.299 52.6398C155.448 52.6468 155.597 52.6267 155.737 52.5807C155.877 52.5348 156.005 52.4639 156.115 52.3723C156.397 52.0614 156.577 51.6848 156.633 51.2859L157.282 51.2524Z" fill="white"/>
<path d="M198.122 51.8208V52.4727C197.551 52.4478 196.983 52.5573 196.473 52.7903C195.956 53.1034 195.536 53.5288 195.25 54.0271C194.764 54.9683 194.355 55.9403 194.027 56.9355L186.744 75.9736H185.966L180 60.9303L174.089 75.9736H173.384L165.602 56.3338C165.027 54.8629 164.657 54.0104 164.509 53.743C164.277 53.324 163.909 52.9796 163.452 52.7568C162.875 52.5086 162.237 52.3992 161.599 52.4392V51.8208H171.291V52.4727H170.827C170.264 52.4369 169.705 52.5852 169.252 52.8905C169.084 53.0099 168.948 53.1622 168.855 53.336C168.762 53.5098 168.714 53.7004 168.715 53.8934C168.87 54.8575 169.156 55.8006 169.567 56.7015L174.719 69.9395L179.055 58.6738L178.295 56.7015L177.72 55.1637C177.486 54.6208 177.181 54.1046 176.812 53.626C176.647 53.4101 176.44 53.2232 176.201 53.0744C175.913 52.8724 175.586 52.7195 175.237 52.6231C174.861 52.5432 174.475 52.5095 174.089 52.5228V51.8208H184.261V52.4727H183.576C183.011 52.4256 182.448 52.5751 182.001 52.8905C181.832 53.0333 181.7 53.2074 181.614 53.4008C181.528 53.5942 181.489 53.8022 181.501 54.0104C181.618 55.0782 181.905 56.1252 182.353 57.1194L187.374 69.9395L192.359 56.8352C192.793 55.8775 193.08 54.8709 193.211 53.8433C193.21 53.5722 193.113 53.3087 192.933 53.0911C192.753 52.874 192.509 52.7063 192.229 52.6064C191.631 52.4345 191.004 52.3554 190.376 52.3724V51.8208H198.122Z" fill="white"/>
<path d="M206.702 53.0744V62.4012H212.446C213.487 62.507 214.537 62.2951 215.429 61.7995C215.818 61.4212 216.119 60.9761 216.313 60.4908C216.507 60.0055 216.591 59.4899 216.56 58.9747H217.264V67.1983H216.56C216.473 66.4415 216.293 65.6959 216.022 64.9753C215.764 64.5538 215.361 64.2195 214.873 64.0225C214.102 63.7484 213.274 63.6286 212.446 63.6715H206.702V71.4606C206.655 72.0989 206.705 72.7399 206.85 73.3661C206.955 73.5951 207.145 73.7842 207.387 73.9009C207.852 74.0682 208.353 74.1368 208.851 74.1015H213.298C214.383 74.1469 215.469 74.0512 216.523 73.8174C217.226 73.5913 217.861 73.2191 218.376 72.7309C219.365 71.7592 220.189 70.6609 220.821 69.4715H221.6L219.339 75.3886H199.253V74.7534H200.179C200.787 74.7507 201.386 74.6129 201.921 74.3522C202.118 74.2716 202.295 74.1561 202.441 74.0125C202.588 73.869 202.701 73.7003 202.773 73.5165C202.966 72.7664 203.041 71.9955 202.996 71.2266V55.8992C203.12 54.9503 202.946 53.9891 202.495 53.1246C202.182 52.8731 201.815 52.6826 201.416 52.5647C201.018 52.4468 200.597 52.4041 200.179 52.4392H199.253V51.8208H219.413L219.71 56.9857H218.95C218.805 56.0941 218.498 55.2301 218.042 54.4283C217.698 53.9467 217.191 53.5775 216.597 53.3753C215.711 53.1525 214.791 53.0621 213.873 53.1078L206.702 53.0744Z" fill="white"/>
<path d="M245.225 68.8698L245.874 68.9868L243.631 75.3886H223.36V74.7534H224.36C224.816 74.7878 225.275 74.715 225.69 74.5422C226.106 74.3694 226.465 74.1024 226.732 73.7672C227.086 72.949 227.226 72.0681 227.14 71.1932V55.9661C227.266 55.0119 227.072 54.0455 226.584 53.1914C226.296 52.9285 225.948 52.725 225.564 52.5952C225.18 52.4653 224.769 52.4121 224.36 52.4392H223.36V51.8208H235.219V52.4727C234.228 52.406 233.232 52.5196 232.291 52.807C231.802 52.9932 231.397 53.323 231.142 53.743C230.863 54.6049 230.756 55.5049 230.827 56.4006V71.2266C230.778 71.9022 230.885 72.5796 231.142 73.2156C231.301 73.4688 231.559 73.6594 231.865 73.7505C232.853 73.9246 233.862 73.9863 234.867 73.9344H236.72C238.143 73.9997 239.568 73.8644 240.945 73.5332C241.805 73.2334 242.569 72.7451 243.168 72.1125C244.04 71.1366 244.734 70.0421 245.225 68.8698Z" fill="white"/>
<path d="M269.37 68.8698L270 68.9868L267.776 75.3886H247.505V74.7534H248.487C248.943 74.7912 249.403 74.7199 249.819 74.5468C250.235 74.3737 250.594 74.1049 250.859 73.7672C251.222 72.9513 251.362 72.0683 251.266 71.1932V55.9661C251.385 55.0139 251.198 54.051 250.729 53.1914C250.438 52.9271 250.086 52.723 249.699 52.5932C249.312 52.4633 248.899 52.4108 248.487 52.4392H247.505V51.8208H259.419V52.4727C258.428 52.406 257.433 52.5196 256.492 52.807C256.003 52.9932 255.598 53.323 255.343 53.743C255.063 54.6049 254.956 55.5049 255.028 56.4006V71.2266C254.978 71.9022 255.085 72.5796 255.343 73.2156C255.498 73.4646 255.748 73.6545 256.047 73.7505C257.042 73.923 258.056 73.9848 259.067 73.9344H260.92C262.343 73.9973 263.768 73.862 265.145 73.5332C266.005 73.2334 266.77 72.7451 267.369 72.1125C268.221 71.1333 268.896 70.0389 269.37 68.8698Z" fill="white"/>
<path d="M148.369 82.0912V82.509C147.867 82.5743 147.394 82.7589 146.998 83.0439C146.47 83.5151 146.065 84.086 145.812 84.7154L139.808 97.9033H139.345L132.915 84.5315C132.723 84.0952 132.487 83.6756 132.211 83.2779C132.003 83.041 131.737 82.852 131.432 82.7263C131.04 82.569 130.619 82.4783 130.191 82.4589V82.041H137.121V82.4589C136.583 82.4671 136.055 82.5933 135.583 82.8266C135.465 82.918 135.374 83.0348 135.319 83.1663C135.264 83.2977 135.246 83.4396 135.268 83.5788C135.334 84.202 135.529 84.8087 135.843 85.3672L140.216 94.46L144.274 85.4842C144.594 84.8831 144.806 84.2399 144.904 83.5788C144.894 83.4554 144.857 83.3352 144.793 83.2258C144.729 83.1164 144.641 83.0203 144.533 82.9436C144.174 82.6948 143.743 82.544 143.292 82.509H143.088V82.0912H148.369Z" fill="white"/>
<path d="M154.114 82.9269V89.0612H157.82C158.539 89.126 159.261 88.9604 159.858 88.5932C160.362 88.0854 160.622 87.4182 160.581 86.7378H161.063V92.1367H160.581C160.54 91.6394 160.421 91.1499 160.229 90.6825C160.065 90.4038 159.804 90.1809 159.487 90.0473C158.979 89.8749 158.436 89.8009 157.894 89.83H154.188V94.8445C154.158 95.265 154.195 95.6872 154.299 96.0981C154.364 96.2507 154.489 96.376 154.651 96.4491C154.953 96.5704 155.286 96.6166 155.615 96.5828H158.524C159.234 96.6132 159.946 96.5513 160.636 96.3989C161.12 96.265 161.555 96.0169 161.896 95.6802C162.557 95.0493 163.101 94.327 163.508 93.5407H164.027L162.545 97.4352H149.222V97.0174H149.833C150.235 97.014 150.629 96.9221 150.982 96.7499C151.113 96.699 151.23 96.6235 151.326 96.5283C151.422 96.4332 151.494 96.3207 151.538 96.1983C151.664 95.7054 151.713 95.1992 151.686 94.694V84.6652C151.772 84.047 151.656 83.4198 151.353 82.86C151.155 82.6842 150.915 82.5508 150.652 82.4698C150.389 82.3888 150.109 82.3622 149.833 82.392H149.222V81.9741H162.471L162.656 85.3171H162.156C162.069 84.7328 161.868 84.167 161.563 83.6456C161.342 83.328 161.009 83.0867 160.618 82.9603C160.016 82.8054 159.39 82.7432 158.765 82.7764L154.114 82.9269Z" fill="white"/>
<path d="M164.194 82.0913H168.864L179.352 93.7916V84.7824C179.438 84.1678 179.315 83.5442 179 82.9939C178.807 82.8197 178.575 82.686 178.319 82.6022C178.062 82.5184 177.789 82.4867 177.517 82.5092H176.924V82.0913H182.91V82.5092H182.298C182.006 82.4831 181.712 82.5247 181.443 82.63C181.173 82.7353 180.938 82.9008 180.76 83.1109C180.516 83.6388 180.42 84.2131 180.482 84.7824V97.8366H180.019L168.623 85.3507V94.8948C168.549 95.5073 168.665 96.1262 168.957 96.6833C169.149 96.8574 169.381 96.9912 169.638 97.0749C169.894 97.1587 170.168 97.1905 170.439 97.168H171.05V97.5858H165.158V97.168H165.751C166.045 97.1865 166.339 97.1415 166.61 97.0369C166.88 96.9322 167.12 96.7709 167.307 96.5662C167.55 96.0378 167.645 95.464 167.585 94.8948V84.1305C167.246 83.7482 166.868 83.3957 166.455 83.0775C166.098 82.8738 165.711 82.7163 165.306 82.6095C164.942 82.5302 164.568 82.4964 164.194 82.5092V82.0913Z" fill="white"/>
<path d="M198.271 82.0913L198.456 85.7184H197.974C197.925 85.2478 197.8 84.7861 197.604 84.3478C197.367 83.9369 196.999 83.5993 196.547 83.3783C196.018 83.1441 195.432 83.0348 194.843 83.0608H192.415V94.8948C192.342 95.5073 192.457 96.1262 192.749 96.6833C192.941 96.8574 193.174 96.9912 193.43 97.0749C193.686 97.1587 193.96 97.1905 194.231 97.168H194.843V97.5858H187.542V97.168H188.153C188.447 97.1865 188.742 97.1415 189.012 97.0369C189.283 96.9322 189.522 96.7709 189.71 96.5662C189.952 96.0378 190.047 95.464 189.988 94.8948V83.0608H187.912C187.338 83.0326 186.762 83.0891 186.208 83.2279C185.743 83.3837 185.346 83.671 185.077 84.0469C184.731 84.5499 184.539 85.1267 184.521 85.7184H184.04L184.244 82.0913H198.271Z" fill="white"/>
<path d="M211.501 82.5092V82.0913H217.579V82.5092H216.93C216.618 82.4997 216.309 82.5661 216.035 82.7014C215.761 82.8367 215.533 83.0358 215.374 83.2781C215.13 83.806 215.041 84.3815 215.114 84.9495V91.2343C215.16 92.4606 214.985 93.6856 214.595 94.8614C214.202 95.7731 213.494 96.5466 212.576 97.0677C211.347 97.7307 209.929 98.0506 208.499 97.987C207.008 98.0685 205.522 97.761 204.219 97.1011C203.271 96.534 202.551 95.7081 202.162 94.7444C201.816 93.4939 201.678 92.2038 201.754 90.9167V84.8325C201.837 84.1814 201.681 83.5237 201.31 82.9605C201.122 82.8012 200.901 82.6788 200.658 82.6011C200.416 82.5234 200.158 82.4921 199.901 82.5092H199.253V82.0913H206.665V82.5092H205.998C205.709 82.486 205.418 82.529 205.152 82.6342C204.887 82.7394 204.655 82.9034 204.478 83.1109C204.224 83.6367 204.116 84.2104 204.163 84.7824V91.4683C204.178 92.1619 204.239 92.8541 204.348 93.5409C204.428 94.1782 204.655 94.7933 205.015 95.3461C205.366 95.8113 205.845 96.1859 206.405 96.4325C207.099 96.7297 207.861 96.873 208.629 96.8504C209.683 96.8691 210.724 96.6386 211.649 96.1818C212.461 95.8324 213.115 95.2424 213.502 94.5103C213.892 93.3753 214.055 92.1868 213.984 91.0003V84.8325C214.067 84.2072 213.945 83.5736 213.632 83.0106C213.443 82.8357 213.214 82.7002 212.962 82.6136C212.709 82.5269 212.438 82.4913 212.168 82.5092H211.501Z" fill="white"/>
<path d="M235.331 97.5863H230.754L224.991 90.2653H223.935H223.193V94.7782C223.106 95.3982 223.229 96.0276 223.546 96.5834C223.725 96.7649 223.95 96.9062 224.201 96.9961C224.451 97.086 224.722 97.1221 224.991 97.1016H225.658V97.5195H218.246V97.1016H218.895C219.194 97.1251 219.496 97.0772 219.769 96.9628C220.042 96.8485 220.277 96.6716 220.451 96.4497C220.679 95.9179 220.767 95.346 220.71 94.7782V84.7494C220.797 84.124 220.675 83.4895 220.358 82.9275C220.17 82.7526 219.941 82.6171 219.688 82.5305C219.435 82.4438 219.164 82.4082 218.895 82.4261H218.246V82.0082H224.509C225.861 81.9622 227.213 82.0803 228.53 82.3592C229.395 82.5994 230.162 83.0645 230.735 83.6964C231.346 84.3298 231.67 85.1472 231.643 85.9863C231.665 86.9059 231.293 87.7979 230.605 88.4768C229.742 89.2613 228.627 89.7816 227.418 89.9644L230.957 94.4105C231.521 95.1884 232.23 95.8726 233.051 96.433C233.747 96.803 234.526 97.0259 235.331 97.0849V97.5863ZM223.138 89.6134H223.842C225.164 89.7046 226.478 89.3667 227.548 88.6607C227.949 88.3633 228.269 87.9874 228.484 87.5616C228.699 87.1358 228.803 86.6714 228.789 86.2036C228.808 85.7701 228.729 85.3378 228.557 84.9328C228.385 84.5277 228.124 84.1583 227.789 83.8468C227.432 83.545 227.013 83.3098 226.555 83.1549C226.097 83 225.609 82.9284 225.121 82.9442C224.454 82.9603 223.79 83.0331 223.138 83.1615V89.6134Z" fill="white"/>
<path d="M240.575 82.9269V89.0612H244.281C244.967 89.1301 245.659 88.9888 246.245 88.66C246.498 88.4099 246.693 88.1173 246.82 87.7989C246.947 87.4806 247.004 87.1427 246.986 86.8047H247.449V92.2036H246.986C246.932 91.7065 246.808 91.2177 246.616 90.7494C246.451 90.4707 246.191 90.2478 245.874 90.1142C245.366 89.9418 244.823 89.8677 244.281 89.8969H240.575V94.9113C240.545 95.3319 240.582 95.7541 240.686 96.1649C240.75 96.3176 240.876 96.4429 241.038 96.516C241.34 96.6373 241.673 96.6835 242.002 96.6497H244.911C245.621 96.6822 246.333 96.6203 247.023 96.4658C247.51 96.3282 247.95 96.0808 248.302 95.7471C248.95 95.1106 249.487 94.3892 249.895 93.6076H250.414L248.932 97.5021H235.683V97.0843H236.294C236.696 97.0808 237.09 96.989 237.443 96.8168C237.574 96.7659 237.691 96.6903 237.787 96.5952C237.883 96.5001 237.955 96.3876 237.999 96.2652C238.125 95.7723 238.174 95.2661 238.147 94.7609V84.7321C238.233 84.1139 238.117 83.4867 237.814 82.9269C237.616 82.7511 237.376 82.6177 237.113 82.5367C236.85 82.4557 236.57 82.4291 236.294 82.4589H235.683V82.041H248.932L249.117 85.384H248.617C248.523 84.8031 248.329 84.2391 248.042 83.7125C247.809 83.3987 247.472 83.159 247.079 83.0272C246.477 82.8722 245.85 82.8101 245.226 82.8433L240.575 82.9269Z" fill="white"/>
<path d="M262.903 81.7402V87.0889H262.44C262.339 86.2294 262.056 85.3954 261.606 84.6319C261.211 84.0213 260.633 83.5233 259.939 83.1944C259.251 82.8361 258.472 82.646 257.678 82.6428C256.876 82.622 256.098 82.8861 255.51 83.3783C255.24 83.5843 255.023 83.8402 254.873 84.1286C254.723 84.417 254.643 84.7311 254.639 85.0497C254.643 85.5227 254.833 85.9791 255.176 86.3368C256.272 87.2694 257.522 88.042 258.882 88.6267C260.032 89.1445 261.135 89.7425 262.181 90.4152C262.744 90.8052 263.205 91.3015 263.533 91.8693C263.841 92.4186 264 93.0258 263.997 93.6411C264.001 94.2154 263.87 94.7839 263.611 95.3086C263.352 95.8332 262.972 96.3019 262.496 96.6832C261.424 97.5466 260.022 98.0019 258.586 97.9535C258.12 97.9554 257.655 97.9218 257.196 97.8532C256.643 97.7452 256.099 97.6056 255.566 97.4353C255.055 97.266 254.528 97.1428 253.991 97.0676C253.898 97.0661 253.805 97.0816 253.719 97.1132C253.633 97.1448 253.555 97.1919 253.49 97.2515C253.338 97.4614 253.249 97.7032 253.231 97.9535H252.749V92.6215H253.231C253.352 93.4975 253.647 94.3468 254.102 95.1287C254.523 95.7159 255.112 96.1894 255.806 96.4993C256.583 96.8673 257.449 97.0567 258.326 97.0509C259.236 97.0967 260.131 96.8277 260.828 96.2987C261.117 96.0788 261.349 95.805 261.509 95.4962C261.669 95.1875 261.753 94.8511 261.755 94.5103C261.742 94.1058 261.621 93.7101 261.402 93.3569C261.127 92.9291 260.755 92.5588 260.309 92.2705C259.447 91.7374 258.55 91.2518 257.622 90.8163C256.534 90.2916 255.488 89.6996 254.491 89.0446C253.913 88.6434 253.428 88.1436 253.064 87.5737C252.759 87.0587 252.594 86.4859 252.582 85.9022C252.579 85.3589 252.705 84.8214 252.951 84.3255C253.197 83.8297 253.558 83.387 254.009 83.0273C254.506 82.6133 255.09 82.2935 255.727 82.0868C256.363 81.8801 257.039 81.7907 257.715 81.8238C258.714 81.8424 259.698 82.0473 260.606 82.4255C260.92 82.5678 261.258 82.6637 261.606 82.7097C261.705 82.7171 261.805 82.7044 261.898 82.6726C261.991 82.6408 262.075 82.5907 262.144 82.5258C262.333 82.327 262.455 82.0834 262.496 81.8238L262.903 81.7402Z" fill="white"/>
<path d="M48.9377 40.3044C48.9377 40.3044 98.6165 11.505 159.635 12.3574C220.654 13.2099 216.652 42.0093 216.652 42.0093H195.843C195.843 42.0093 193.471 19.3943 154.669 20.2802C115.868 21.1661 97.1896 26.2306 48.9377 40.3044Z" fill="white"/>
<path d="M29.7781 42.0096C29.7781 42.0096 206.72 -52.512 262.069 42.0096H231.087C231.087 42.0096 220.21 -35.8642 29.7781 42.0096Z" fill="white"/>
</svg>
