<svg width="1440" height="392" viewBox="0 0 1440 392" fill="none" xmlns="http://www.w3.org/2000/svg">
<g filter="url(#filter0_d)">
<path d="M617.5 156.5C500.074 102.113 432.823 149.457 289.5 197.953C214 223.5 127.991 219.794 58.5 155C6.91119 106.898 0 44.5 0 0C559.5 0 877.5 -0.5 1439 -0.5C1442.5 67 1442.5 177.5 1442.5 282.5C1442.5 398.035 1356 399.5 1278.5 360.304C1236.18 338.902 1150 228.939 1049 161.804C948 94.6686 902.497 154.533 823 197.953C729.5 249.022 707 197.953 617.5 156.5Z" fill="#B1EBFE" fill-opacity="0.34" shape-rendering="crispEdges"/>
</g>
<defs>
<filter id="filter0_d" x="-4" y="-0.5" width="1450.5" height="391.904" filterUnits="userSpaceOnUse" color-interpolation-filters="sRGB">
<feFlood flood-opacity="0" result="BackgroundImageFix"/>
<feColorMatrix in="SourceAlpha" type="matrix" values="0 0 0 0 0 0 0 0 0 0 0 0 0 0 0 0 0 0 127 0" result="hardAlpha"/>
<feOffset dy="4"/>
<feGaussianBlur stdDeviation="2"/>
<feComposite in2="hardAlpha" operator="out"/>
<feColorMatrix type="matrix" values="0 0 0 0 0 0 0 0 0 0 0 0 0 0 0 0 0 0 0.25 0"/>
<feBlend mode="normal" in2="BackgroundImageFix" result="effect1_dropShadow"/>
<feBlend mode="normal" in="SourceGraphic" in2="effect1_dropShadow" result="shape"/>
</filter>
</defs>
</svg>
