<svg width="335" height="72" viewBox="0 0 335 72" fill="none" xmlns="http://www.w3.org/2000/svg">
<path fill-rule="evenodd" clip-rule="evenodd" d="M304.336 0.484863C290.689 0.484863 282.977 2.82259 278.55 8.30119C273.925 14.0236 272.996 23.0568 272.996 35.7791C272.996 60.7524 277.351 71.1924 304.336 71.1924C307.578 71.1924 318.658 71.1377 325.126 70.4373C327.643 70.0671 328.769 68.3574 328.769 66.8272V64.0691C328.769 61.922 326.941 60.3032 324.516 60.3032H304.336C289.11 60.3032 286.364 57.1187 285.974 39.0161V33.1562C286.103 14.6309 288.849 11.3741 304.336 11.3741C318.618 11.3741 321.356 14.2645 321.831 30.5739H299.139V41.5836H328.985C334.864 41.5836 334.864 37.9366 334.864 36.7382V33.2235C334.438 7.82759 327.59 0.484863 304.336 0.484863Z" fill="white"/>
<path fill-rule="evenodd" clip-rule="evenodd" d="M265.037 1.45572L264.713 1.37961C261.933 0.86094 254.336 0.484863 250.571 0.484863C237.244 0.484863 230.2 5.43518 230.2 14.8009V66.9462C230.2 69.0933 231.893 70.5925 234.319 70.5925H239.059C241.485 70.5925 243.179 69.0933 243.179 66.9462V15.7584C243.179 13.4473 243.838 11.3741 251.791 11.3741L263.566 11.3645C264.719 11.4871 265.819 11.2041 266.665 10.568C267.59 9.87569 268.098 8.86642 268.098 7.72784V5.09014C268.098 3.35826 266.982 2.0335 265.037 1.45572Z" fill="white"/>
<path fill-rule="evenodd" clip-rule="evenodd" d="M208.12 1.32471H203.38C200.954 1.32471 199.26 2.82384 199.26 4.97021V60.3036H179.544C167.348 60.3036 162.401 59.6158 162.401 42.3717V4.97021C162.401 2.82384 160.706 1.32471 158.281 1.32471H153.675C151.25 1.32471 149.422 2.89181 149.422 4.97021V42.3717C149.422 66.8794 159.441 71.1921 180.492 71.1921C188.065 71.1921 198.436 71.1921 208.328 69.9568L208.556 69.9161C210.999 69.3745 212.239 68.1333 212.239 66.2278V4.97021C212.239 2.82384 210.544 1.32471 208.12 1.32471Z" fill="white"/>
<path fill-rule="evenodd" clip-rule="evenodd" d="M134.799 3.03769V3.03695C134.191 1.88951 132.886 1.20459 131.308 1.20459H125.215C123.445 1.20459 122.121 1.83705 121.424 2.97562L112.393 14.6828L120.3 24.276L134.104 6.70831C135.619 5.07544 135.095 3.597 134.799 3.03769Z" fill="white"/>
<path fill-rule="evenodd" clip-rule="evenodd" d="M87.1858 2.84337L87.1774 2.83228C85.801 1.20459 83.9688 1.20459 83.3661 1.20459H77.4062C75.8795 1.20459 74.6291 1.8267 73.9755 2.9106C73.3035 4.02036 73.4454 5.35473 74.3753 6.59009L96.4553 33.7459L71.0656 65.1642C70.1783 66.3456 70.054 67.6593 70.7242 68.7683C71.3812 69.8522 72.6324 70.4728 74.1566 70.4728H80.2501C81.8168 70.4728 83.1941 69.7517 83.8836 68.6146L112.303 33.8708L87.1858 2.84337Z" fill="white"/>
<path fill-rule="evenodd" clip-rule="evenodd" d="M137.83 65.4378L120.115 43.8691L112.323 53.3996L126.333 69.9876L126.697 70.1287C127.302 70.36 127.879 70.4716 128.464 70.4716H134.423C135.862 70.4716 137.084 69.9041 137.776 68.9133C138.484 67.8981 138.504 66.6317 137.83 65.4378Z" fill="white"/>
<path fill-rule="evenodd" clip-rule="evenodd" d="M47.6314 41.1031V59.42C41.5981 60.2408 32.4028 60.4234 29.2692 60.4234C15.4045 60.4234 13.8862 57.0623 13.8862 49.925C13.8862 43.2465 16.7034 41.1031 25.4771 41.1031H47.6314ZM28.5923 0.485352C24.3085 0.485352 18.4663 0.583619 11.1984 1.36015L10.8695 1.4237C8.7518 1.95863 7.67919 3.19251 7.67919 5.09062V7.72833C7.67919 9.97666 9.25764 11.3746 11.7985 11.3746H28.5923C42.1156 11.3746 47.6314 14.624 47.6314 22.5926V30.335H25.4771C8.16165 30.335 0.772705 36.1934 0.772705 49.925C0.772705 65.2296 8.42042 71.1929 28.0506 71.1929C36.0013 71.1929 50.6381 70.6446 56.0479 69.181C60.6097 68.0579 60.6097 64.9666 60.6097 63.9506V21.8744C60.6097 7.48155 50.1364 0.485352 28.5923 0.485352Z" fill="white"/>
</svg>
