<svg width="288" height="83" viewBox="0 0 288 83" fill="none" xmlns="http://www.w3.org/2000/svg">
<path fill-rule="evenodd" clip-rule="evenodd" d="M6.12513 1.68164C4.04917 2.67745 1.99907 4.73 1.27704 6.53543C0.721322 7.92513 0.680171 10.3734 0.681871 41.9329L0.683572 75.8375L1.5549 77.4798C2.59832 79.446 5.16911 81.8645 6.21593 81.8645C6.46863 81.8645 6.97231 82.0649 7.33553 82.3097C7.91336 82.6993 24.9839 82.756 144.243 82.7645L280.489 82.7742L282.182 81.9403C284.434 80.8311 285.035 80.399 286.126 79.107L287.045 78.0168V41.6248V5.23306L285.71 3.88036C284.976 3.13654 283.584 2.16196 282.618 1.715L280.861 0.902344L144.258 0.924783L7.65557 0.947524L6.12513 1.68164ZM51.2798 29.1785C51.3305 32.6389 51.4951 35.4705 51.6458 35.4705C51.7965 35.4705 52.2906 35.116 52.7443 34.683C54.3839 33.1165 56.0096 32.6065 59.3572 32.608C61.8188 32.6089 62.7438 32.7426 64.0379 33.2851C65.8217 34.0326 68.2742 36.1542 68.5799 37.214C68.6881 37.5894 68.888 37.8963 69.0244 37.8963C69.471 37.8963 70.4035 42.0345 70.4035 44.0164C70.4035 46.0125 69.7322 48.8638 68.8775 50.4985C68.0317 52.1165 65.7323 54.1576 63.7478 55.053C62.0517 55.818 61.4872 55.9148 58.8892 55.8872C55.5719 55.8514 54.1441 55.4263 52.4263 53.9626C51.1948 52.9134 50.7908 53.0159 50.619 54.4223C50.5122 55.2947 50.4327 55.3359 48.6737 55.4251C47.6649 55.4763 46.7004 55.3941 46.5304 55.2425C46.2001 54.9481 46.1359 23.4577 46.4644 22.9835C46.5695 22.8322 47.6752 22.7485 48.9216 22.7973L51.188 22.8865L51.2798 29.1785ZM107.058 38.5028C107.11 47.0917 107.067 54.4323 106.963 54.815C106.785 55.4666 106.628 55.5051 104.488 55.4214L102.203 55.332L102.115 39.0201L102.027 22.7082L104.495 22.7973L106.964 22.8865L107.058 38.5028ZM209.235 24.6643C210.054 25.2189 210.589 26.6329 210.348 27.6077C210.03 28.898 209.032 29.5069 207.233 29.5069C205.895 29.5069 205.531 29.3713 204.859 28.6226C203.833 27.4792 203.853 26.5234 204.929 25.265C205.674 24.3947 205.999 24.2525 207.225 24.2607C208.01 24.2658 208.915 24.4475 209.235 24.6643ZM250.214 32.5103C252.342 33.3503 253.211 35.0296 252.549 37.0254C251.96 38.8039 250.93 39.3976 248.419 39.4058C246.251 39.4127 245.721 39.1289 244.618 37.3699C243.68 35.8738 244.666 33.5149 246.576 32.682C248.011 32.0564 248.952 32.0121 250.214 32.5103ZM89.6809 33.1935C91.0569 33.8057 92.6894 35.2288 93.4118 36.4466C94.3654 38.054 94.632 40.3379 94.7769 48.1451L94.9136 55.513L92.7782 55.4226C90.7342 55.3359 90.6202 55.2892 90.1142 54.331C89.5996 53.357 89.57 53.3455 88.999 53.908C87.7012 55.1867 85.5382 55.866 82.713 55.882C79.7446 55.899 78.289 55.4572 76.7276 54.0654C75.3927 52.8749 74.8248 51.4421 74.8248 49.2653C74.8248 46.2736 75.9641 44.4651 78.7403 43.0491C81.1758 41.8064 83.4238 41.2391 85.9252 41.2352C88.6164 41.2309 89.5765 40.6348 89.2449 39.1741C88.9354 37.8099 87.4859 36.516 85.7463 36.0515C84.4931 35.7167 83.9489 35.7406 81.7529 36.2282C80.3544 36.5387 79.1328 36.9047 79.0379 37.0412C78.591 37.6865 77.5289 37.2347 77.0398 36.1915C76.2008 34.401 76.2182 34.3801 79.5861 33.0847C81.5063 32.3463 87.9314 32.4154 89.6809 33.1935ZM126.795 33.031C127.111 33.1811 127.638 33.3776 127.965 33.4679C128.728 33.6784 128.735 34.8194 127.982 36.2273C127.567 37.003 127.255 37.2513 126.877 37.1067C122.595 35.4689 119.699 35.7406 118.708 37.8732C118.343 38.6601 118.372 38.923 118.915 39.7505C119.633 40.8434 119.562 40.8012 123.459 42.4274C128.212 44.4112 129.408 45.7548 129.409 49.1124C129.411 52.0995 128.375 53.6078 125.336 55.0436C123.838 55.7513 123.25 55.845 120.235 55.8547C117.871 55.8623 116.279 55.7034 115.038 55.3356C112.863 54.6909 112.538 53.9962 113.57 52.1929C114.269 50.9712 114.735 50.8396 115.806 51.5619C116.489 52.0222 120.278 52.5389 121.487 52.3367C123.284 52.0359 124.155 51.2848 124.344 49.8708C124.63 47.7315 123.907 47.122 118.621 45.0443C115.865 43.9615 114.049 42.2595 113.75 40.4816C113.08 36.5039 115.652 33.215 119.888 32.6325C121.342 32.4324 126.112 32.7074 126.795 33.031ZM149.136 33.175C150.538 33.8264 151.444 34.5392 152.323 35.683C153.859 37.6804 154.06 39.0455 154.064 47.5238L154.067 55.4836H152.033C150.091 55.4836 149.99 55.446 149.793 54.6497C149.68 54.1912 149.558 53.7036 149.523 53.5666C149.488 53.4295 149.08 53.5836 148.617 53.9089C146.404 55.4605 145.122 55.8675 142.334 55.902C139.145 55.9415 137.797 55.4836 136.017 53.7558C134.797 52.5708 133.998 50.7732 134.007 49.2322C134.017 47.4629 135.353 45.0252 137.024 43.7241C138.706 42.415 142.444 41.24 145.05 41.2015C148.885 41.1448 149.505 40.6369 148.461 38.4085C147.879 37.1661 146.38 36.1873 144.602 35.8877C143.484 35.6994 139.521 36.462 138.383 37.0846C137.613 37.506 136.772 37.1422 136.377 36.2167C135.667 34.5514 135.862 34.3282 139.103 33.0859C141.078 32.3287 147.436 32.3854 149.136 33.175ZM175.664 32.645C176.711 32.799 177.456 33.2335 178.904 34.5368L180.783 36.2285L181.941 35.0696C183.828 33.1805 185.398 32.6137 188.757 32.6095C191.297 32.6062 191.814 32.7014 193.009 33.3924C194.981 34.5329 195.827 35.5781 196.761 38.0309C197.174 39.1159 197.254 40.8931 197.181 47.3516L197.09 55.332H194.709H192.328L192.158 47.448C192.017 40.8967 191.893 39.41 191.428 38.6538C190.521 37.1798 189.572 36.6058 187.788 36.4529C185.557 36.2619 184.001 36.9487 182.946 38.5895C182.152 39.8257 182.12 40.1193 181.955 47.5996L181.785 55.332H179.405H177.024L176.826 47.5996C176.717 43.3468 176.511 39.5046 176.367 39.0613C175.894 37.5997 174.352 36.5973 172.355 36.4538C170.782 36.3407 170.392 36.4353 169.174 37.2271C166.682 38.8466 166.494 39.5268 166.388 47.2964C166.337 51.0489 166.22 54.4259 166.127 54.8013C165.975 55.4141 165.755 55.4836 163.965 55.4836C162.695 55.4836 161.833 55.3332 161.587 55.0688C161.311 54.7722 161.226 51.5516 161.29 43.7735L161.38 32.893L163.24 32.799C165.332 32.6935 165.971 33.1186 165.971 34.6187C165.971 35.0872 166.049 35.4705 166.144 35.4705C166.239 35.4705 166.805 35.0547 167.401 34.5465C169.53 32.7332 172.155 32.1289 175.664 32.645ZM231.864 33.3457C232.595 33.6605 233.391 34.1308 233.633 34.391C234.215 35.0159 234.668 34.9911 234.681 34.3334C234.704 33.2011 235.512 32.7414 237.477 32.7414C238.691 32.7414 239.402 32.876 239.48 33.1204C239.547 33.3291 239.525 40.4586 239.432 48.9642L239.262 64.4288L237.278 64.5204C236.107 64.5747 235.096 64.4661 234.812 64.256C234.429 63.9731 234.33 62.7823 234.33 58.4665V53.0332L233.395 53.8252C231.638 55.3135 229.71 55.9081 226.641 55.9081C224.374 55.9081 223.55 55.7735 222.292 55.1964C218.054 53.2533 215.965 49.7104 215.965 44.4682C215.965 40.9716 216.533 39.1414 218.353 36.7716C220.042 34.5726 222.518 33.0628 225.148 32.6295C226.739 32.3672 230.532 32.7717 231.864 33.3457ZM209.673 44.1125V55.332L207.494 55.4235C205.98 55.4869 205.228 55.3944 205.033 55.1203C204.709 54.6652 204.634 33.9501 204.954 33.2081C205.126 32.8087 205.593 32.7323 207.42 32.8042L209.673 32.893V44.1125ZM247.855 34.005C248.149 34.2669 248.455 34.2721 249.028 34.0256C249.758 33.7123 249.733 33.6908 248.631 33.6717C247.737 33.6559 247.553 33.7354 247.855 34.005ZM250.682 35.9505C250.698 36.3037 250.779 36.3756 250.887 36.1339C250.986 35.915 250.973 35.6533 250.86 35.5526C250.748 35.452 250.667 35.6309 250.682 35.9505ZM57.99 36.2276C57.8029 36.2843 57.104 36.4114 56.4371 36.5102C55.0709 36.7128 53.2415 38.1007 52.2117 39.7157C51.6454 40.6041 51.5346 41.3446 51.5315 44.2641C51.5274 48.2716 52.0005 49.4696 54.2193 51.0707C55.4028 51.9246 55.7069 51.9965 58.1331 51.9965C60.5125 51.9965 60.8873 51.9125 62.0579 51.1162C62.77 50.6322 63.4264 49.9839 63.5165 49.6758C63.607 49.3678 63.7828 49.1158 63.907 49.1158C64.4511 49.1158 65.1286 46.0632 65.0851 43.8093C65.0089 39.88 63.2979 37.3799 60.1067 36.5351C59.1551 36.2831 58.3661 36.0878 58.3532 36.1009C58.3406 36.1139 58.177 36.1712 57.99 36.2276ZM226.566 36.3811C224.935 36.7204 223.087 38.175 222.104 39.8937C221.439 41.0569 221.224 41.9559 221.127 43.9948C221.016 46.3191 221.1 46.7864 221.889 48.24C223.018 50.3226 223.66 50.9794 225.199 51.6262C226.498 52.172 228.057 52.2812 229.888 51.9546C231.129 51.7336 233.65 49.7802 233.65 49.0403C233.65 48.768 233.803 48.4608 233.99 48.3577C234.466 48.0957 234.43 40.4568 233.95 39.6199C233.161 38.2468 231.15 36.6907 229.928 36.5081C229.263 36.4087 228.489 36.2865 228.209 36.2364C227.928 36.1864 227.189 36.2516 226.566 36.3811ZM248.274 37.5752C248.274 37.9184 248.427 38.1995 248.614 38.1995C248.802 38.1995 248.955 38.003 248.955 37.7626C248.955 37.5221 248.802 37.2413 248.614 37.1382C248.427 37.0351 248.274 37.2319 248.274 37.5752ZM85.5378 44.5858C82.7252 45.0944 82.2634 45.2733 81.1098 46.3018C80.0616 47.2364 79.9273 47.5356 79.9337 48.9187C79.9449 51.2138 81.2968 52.4513 83.7928 52.4513C87.3057 52.4513 89.7891 49.8799 89.7891 46.2424C89.7891 44.1719 89.168 43.9296 85.5378 44.5858ZM145.395 44.4585C141.883 45.0995 140.097 46.1114 139.52 47.7876C138.383 51.0895 141.78 53.4529 145.609 52.0228C147.953 51.1471 148.966 49.4936 148.966 46.5426V44.2641L147.521 44.2993C146.726 44.3187 145.769 44.3903 145.395 44.4585Z" fill="white"/>
</svg>
