<svg width="294" height="100" viewBox="0 0 294 100" fill="none" xmlns="http://www.w3.org/2000/svg">
<path fill-rule="evenodd" clip-rule="evenodd" d="M43.0607 1.10661C32.023 3.00485 21.7221 8.30771 14.0764 16.0272C-5.45501 35.7457 -4.54925 66.9098 16.0961 85.536C36.1143 103.596 67.4326 103.697 87.5021 85.7648C109.08 66.4856 109.401 33.9998 88.2052 14.4958C80.347 7.26482 71.257 2.86932 60.4638 1.08163C55.9556 0.335197 47.4757 0.347071 43.0607 1.10661ZM191.827 8.73068C188.578 9.60445 187.085 12.01 187.085 16.3687V19.1898L185.253 19.555C183.527 19.899 183.413 20.01 183.287 21.4557L183.153 22.9912H185.119H187.085V31.1803V39.3694H189.456H191.827V31.1983V23.0272L194.953 22.9069L198.078 22.7865V20.9439V19.1014L194.902 18.9802L191.726 18.859L191.917 16.3601C192.171 13.016 193.122 12.2254 196.659 12.4158L199.158 12.5501L199.157 10.6531C199.156 9.03204 199.015 8.71962 198.186 8.50875C196.776 8.15007 193.569 8.26185 191.827 8.73068ZM114.651 9.3768C114.646 9.77069 115.948 16.7798 117.542 24.9525L120.441 39.8112L123.459 39.6929L126.477 39.5742L129.293 27.2102C130.843 20.41 132.232 15.0666 132.381 15.336C132.531 15.6054 133.878 21.2228 135.375 27.8187L138.098 39.8116L141.113 39.6929L144.127 39.5742L147.052 24.629C148.66 16.4092 149.983 9.45378 149.993 9.17207C150.004 8.81953 149.23 8.66025 147.504 8.66025H144.998L143.367 18.1801C141.231 30.6431 140.885 32.4779 140.708 32.3096C140.573 32.1818 135.352 9.31906 135.352 8.85761C135.352 8.7491 134.001 8.66025 132.351 8.66025H129.349L128.936 10.1957C128.708 11.0404 127.502 16.2954 126.255 21.8734C125.008 27.4518 123.858 31.8739 123.699 31.7003C123.54 31.5271 122.591 26.5944 121.591 20.7392C120.591 14.884 119.675 9.77069 119.557 9.3768C119.386 8.80724 118.862 8.66025 117.001 8.66025C115.06 8.66025 114.657 8.78309 114.651 9.3768ZM174.154 21.8447C174.155 29.8643 174.336 35.6831 174.612 36.6269C175.163 38.5124 177.095 39.7752 179.433 39.7772L181.049 39.7789V37.9842C181.049 36.5376 180.883 36.1478 180.193 35.9767C179.364 35.7707 179.333 35.342 179.223 22.3144L179.109 8.86498L176.63 8.74214L174.152 8.6193L174.154 21.8447ZM46.1919 19.3372C47.0657 22.135 48.5005 26.8196 49.3799 29.7472L50.9794 35.0701L53.8074 37.689C60.9182 44.2735 72.6986 53.0915 79.2838 56.7582C82.5163 58.5582 83.3229 59.4086 84.1498 61.8895C84.2623 62.2273 83.5678 63.4249 82.6064 64.5509C81.6446 65.677 80.8276 66.649 80.7901 66.7112C80.7526 66.7735 71.9882 65.9906 61.3135 64.9711C41.8623 63.1138 37.7465 62.8906 33.9333 63.4868C32.8072 63.6628 31.8855 63.687 31.8855 63.5408C31.8855 62.9586 35.0361 58.3334 36.2432 57.1431C37.784 55.6236 37.5938 55.3902 33.6707 53.9894L30.9996 53.0354L32.2205 51.423C34.2821 48.7009 34.2467 48.6346 31.485 50.0329C28.3366 51.6265 25.1512 54.1864 25.5512 54.801C25.7056 55.0381 26.4078 55.3419 27.1114 55.4754C27.815 55.6093 29.0751 55.99 29.9115 56.3217L31.432 56.9253L29.9416 59.0286C28.575 60.9576 26.7122 65.6127 26.7122 67.0986C26.7122 67.56 27.014 67.655 27.8978 67.4728C30.29 66.979 41.7497 66.6969 47.4779 66.9905L53.3699 67.2927L61.0014 79.3794C66.8351 88.62 68.4949 91.5472 68.0491 91.8088C66.8291 92.525 60.8091 93.8315 56.5351 94.3077C51.3428 94.8863 44.9706 94.3814 39.6455 92.9696C31.0987 90.7033 20.7577 84.4611 15.9 78.6358L14.5584 77.0267L16.7928 68.537C21.0211 52.4728 25.2895 42.227 29.6446 37.6866C32.1584 35.0656 32.5796 34.3266 35.1184 28.0881C36.1893 25.4569 37.7434 22.0822 38.572 20.5885C40.2861 17.5 43.3845 13.8718 44.1144 14.0986C44.3834 14.1822 45.318 16.5398 46.1919 19.3372ZM157.234 19.0449C154.612 19.9747 153.615 20.7883 152.551 22.8675C151.707 24.5181 151.543 25.4909 151.532 28.9283C151.516 33.773 152.327 36.2436 154.538 38.0878C157.927 40.9139 165.201 40.6174 168.049 37.5371C169.866 35.5717 170.443 33.5597 170.462 29.1326C170.476 25.7133 170.336 24.9672 169.307 22.9691C168.433 21.2735 167.679 20.4522 166.34 19.7373C164.107 18.5449 159.609 18.203 157.234 19.0449ZM207.26 19.1268C206.146 19.458 205.116 19.91 204.972 20.1316C204.545 20.7871 203.976 20.5942 203.675 19.6922C203.455 19.035 203.093 18.8778 202.029 18.9757L200.665 19.1014L200.55 29.2354L200.434 39.3694H203.029H205.623V31.4252V23.4809L206.98 23.0313C207.727 22.784 209.484 22.5817 210.884 22.5817H213.43L213.298 20.6368L213.167 18.6919L211.227 18.6088C210.16 18.5629 208.375 18.7959 207.26 19.1268ZM220.28 18.7468C219.688 18.8545 218.572 19.1304 217.801 19.3606C216.491 19.752 216.4 19.8994 216.4 21.6375C216.4 23.458 216.424 23.4907 217.586 23.2246C220.053 22.6595 225.32 22.4851 226.213 22.9388C227.274 23.4785 227.957 25.8095 227.186 26.2619C226.903 26.4282 225.169 26.662 223.333 26.7815C217.313 27.1734 214.922 29.0802 214.903 33.5048C214.89 36.3714 215.701 37.7869 218.133 39.1393C220.183 40.2792 224.213 40.2088 226.706 38.989C228.405 38.1574 228.646 38.1288 228.99 38.7147C229.23 39.1205 229.951 39.3694 230.889 39.3694H232.401L232.268 31.0042C232.121 21.708 231.989 21.2576 228.917 19.5489C227.511 18.7668 222.656 18.316 220.28 18.7468ZM244.42 18.8696C243.825 19.0416 242.717 19.4875 241.957 19.8605C240.634 20.5103 240.556 20.5046 240.113 19.718C239.809 19.1792 239.21 18.8966 238.372 18.8966H237.094V29.133V39.3694H239.465H241.836V31.4252V23.4809L243.193 23.0313C245.249 22.3508 248.095 22.4659 248.789 23.2578C249.231 23.7643 249.416 25.8713 249.522 31.6516L249.663 39.3694H252H254.338V31.451V23.5321L255.436 23.0571C256.871 22.436 260.489 22.4462 261.149 23.0731C261.516 23.4211 261.667 25.8664 261.667 31.4669V39.3694H264.292H266.917L266.766 31.0779C266.589 21.3788 266.344 20.5951 263.07 19.2193C260.719 18.2317 257.018 18.4114 254.506 19.6357C252.986 20.3764 252.942 20.374 250.993 19.4363C248.998 18.4774 246.518 18.2636 244.42 18.8696ZM59.1506 37.1293C58.8768 37.594 58.2543 37.3271 56.1376 35.8366C54.6701 34.8036 53.3798 33.6559 53.2694 33.2861C53.1595 32.916 52.8405 31.5185 52.5607 30.18L52.052 27.7462L55.6565 24.6L59.261 21.4537L59.3782 28.9983C59.4429 33.1482 59.3403 36.8071 59.1506 37.1293ZM164.269 23.6385C165.25 24.6303 165.314 24.9836 165.314 29.4061C165.314 34.0604 165.299 34.1292 164.104 35.1058C162.431 36.4725 159.575 36.4725 157.901 35.1062C156.756 34.1714 156.683 33.9069 156.542 30.1755C156.301 23.8482 157.032 22.5817 160.928 22.5817C162.838 22.5817 163.399 22.759 164.269 23.6385ZM227.609 32.1933C227.609 34.7147 227.547 34.8748 226.337 35.469C224.894 36.1781 221.911 36.294 220.718 35.6876C219.705 35.1729 219.254 33.2808 219.812 31.8874C220.324 30.6075 222.269 29.9769 226.855 29.6039C227.502 29.5511 227.609 29.9184 227.609 32.1933ZM51.1156 48.4397C49.9805 49.9788 50.2361 50.7097 52.0196 51.0275C52.8978 51.1839 54.3549 51.6699 55.2573 52.1072C56.8278 52.868 57.0028 52.8733 59.3511 52.2247L61.8045 51.5475L60.7483 50.7216C59.2575 49.5563 55.7017 48.0896 53.5945 47.771C52.0451 47.5368 51.7157 47.6257 51.1156 48.4397ZM114.433 50.098C114.314 50.3924 114.268 57.3576 114.33 65.5762L114.443 80.5197L123.82 80.6303L133.196 80.7404V78.4806V76.2204H126.305H119.413L119.299 63.0155L119.185 49.8105L116.917 49.6865C115.349 49.6009 114.582 49.7278 114.433 50.098ZM284.623 56.0298C285.213 56.1764 285.378 56.6575 285.378 58.2343C285.378 59.3439 285.572 60.2517 285.809 60.2517C286.046 60.2517 286.24 59.4164 286.24 58.396C286.24 56.854 286.404 56.4777 287.21 56.1698C287.974 55.8779 287.723 55.8042 286.024 55.8209C284.839 55.8328 284.209 55.927 284.623 56.0298ZM288.827 57.9997C288.827 59.2383 289.021 60.2517 289.258 60.2517C289.495 60.2517 289.693 59.4688 289.698 58.5115L289.708 56.7713L290.612 58.6138L291.517 60.4564L292.316 58.8186L293.115 57.1807L293.127 58.7162C293.133 59.5609 293.332 60.2517 293.569 60.2517C293.806 60.2517 294 59.2383 294 57.9997C294 55.3488 293.093 54.9087 292.101 57.0784L291.492 58.4091L290.927 57.0784C290.586 56.2763 290.057 55.7477 289.594 55.7477C288.951 55.7477 288.827 56.1129 288.827 57.9997ZM139.268 59.8737C137.983 60.0887 136.674 60.4683 136.358 60.7176C135.801 61.1566 135.542 63.9814 136.017 64.4326C136.147 64.555 137.237 64.381 138.442 64.0457C141.361 63.2329 145.593 63.5048 146.403 64.5571C146.727 64.9776 146.992 65.8117 146.992 66.4111C146.992 67.4847 146.94 67.5035 143.371 67.7431C137.694 68.1235 135.245 69.5475 134.444 72.9337C132.971 79.1616 139.932 83.1173 146.643 79.8658C148.238 79.0928 148.258 79.0932 148.716 79.9047C149.021 80.4468 149.618 80.7244 150.48 80.7244H151.782L151.65 72.1545C151.528 64.1894 151.455 63.5036 150.611 62.43C150.112 61.7949 149.142 60.9629 148.455 60.5805C146.89 59.71 142.337 59.3599 139.268 59.8737ZM164.546 59.8602C163.648 60.0715 162.305 60.544 161.559 60.9105C160.31 61.5234 160.163 61.5238 159.693 60.9138C159.411 60.5473 158.579 60.2517 157.83 60.2517H156.476V70.4881V80.7244H158.847H161.218V72.7192V64.7139L162.713 64.1206C164.976 63.2227 167.811 63.3476 168.804 64.3884C169.539 65.1586 169.64 66.0647 169.767 73.007L169.908 80.765L172.138 80.6426L174.367 80.5197V72.1259C174.367 62.8554 174.095 61.6987 171.625 60.4859C170.002 59.6891 166.563 59.3848 164.546 59.8602ZM184.457 59.798C180.335 60.6071 178.356 63.0826 178.382 67.3975C178.399 70.2051 178.808 71.2873 180.509 73.0201L181.587 74.1195L180.672 75.2251C179.594 76.5267 179.494 78.1404 180.415 79.3884C181.036 80.2302 181.002 80.317 179.832 80.8919C177.224 82.1727 176.299 85.3083 177.745 87.9653C178.176 88.7555 179.221 89.6047 180.499 90.2025C182.25 91.0214 183.204 91.1643 186.869 91.1578C193.439 91.1459 197.059 89.6121 198.557 86.2067C199.271 84.5844 199.295 83.8785 198.707 81.8681C197.995 79.4314 196.512 78.7357 190.44 77.9889C185.007 77.3206 183.829 76.8768 184.313 75.6791C184.532 75.1374 185.161 74.9921 187.282 74.9921C193.78 74.9921 196.485 72.3286 196.036 66.3706L195.827 63.5969L197.276 63.339C198.574 63.1076 198.725 62.9397 198.725 61.7241V60.3675L194.09 60.0912C191.541 59.9393 188.68 59.7427 187.732 59.6543C186.783 59.5662 185.31 59.6305 184.457 59.798ZM228.902 59.6756C228.31 59.773 227.097 60.042 226.208 60.2734C224.622 60.6861 224.591 60.732 224.591 62.6847V64.6754L226.6 64.1014C227.704 63.7857 229.741 63.5273 231.127 63.5273C234.04 63.5273 235.369 64.4064 235.369 66.3349C235.369 67.5039 235.367 67.5052 231.975 67.7259C228.31 67.9642 225.345 68.9751 223.957 70.4586C223.334 71.1244 223.069 72.0984 222.964 74.1007C222.797 77.2912 223.639 78.9908 225.974 80.1791C228.075 81.2486 232.485 81.1552 234.815 79.9919C236.621 79.0903 236.634 79.0899 237.093 79.9047C237.396 80.4419 237.996 80.7244 238.833 80.7244H240.111V72.4948C240.111 63.074 239.834 61.989 237.085 60.657C235.48 59.8795 230.962 59.3374 228.902 59.6756ZM249.395 60.0121C248.063 60.3651 246.81 61.0509 246.08 61.8268C243.345 64.7344 243.357 70.3578 246.103 72.9665C247.245 74.0507 247.254 74.0974 246.494 74.9892C245.549 76.0972 245.485 78.1817 246.359 79.3667C246.963 80.186 246.912 80.2884 245.523 81.0668C243.605 82.1416 242.532 84.1 242.848 85.9495C243.489 89.6977 246.374 91.1668 253.045 91.1402C256.786 91.125 257.955 90.9608 259.784 90.1927C263.187 88.7637 264.377 87.3499 264.596 84.4755C264.945 79.8896 263.342 78.7042 255.631 77.8484C250.247 77.251 249.948 77.1556 250.11 76.0829C250.23 75.2799 250.567 75.1767 253.7 74.9827C257.979 74.7173 259.775 73.83 261.162 71.2976C262.019 69.7314 262.135 69.0431 261.955 66.57L261.745 63.6755L263.107 63.2943C264.21 62.9856 264.494 62.6703 264.6 61.6369L264.731 60.361L260.289 60.1125C257.846 59.9761 254.877 59.7697 253.691 59.6547C252.462 59.5351 250.616 59.6887 249.395 60.0121ZM273.179 59.9937C268.915 61.1287 267.054 64.2586 267.059 70.2833C267.063 76.4014 268.837 79.3626 273.219 80.5725C275.953 81.3276 280.531 81.1192 283.034 80.1258C284.362 79.5989 284.516 79.3724 284.516 77.9475C284.516 76.0288 284.241 75.7025 283.111 76.2769C282.638 76.5177 280.762 76.8113 278.943 76.9296C274.259 77.2347 272.013 76.0219 272.013 73.1872V72.1472L278.588 72.0342L285.162 71.9212L285.145 69.2597C285.115 64.3176 283.987 61.8907 281.052 60.4494C279.273 59.5752 275.558 59.3603 273.179 59.9937ZM201.379 68.5431C201.552 77.7235 201.787 78.6014 204.496 80.1557C206.436 81.269 211.196 81.2011 213.92 80.0206C215.933 79.1485 215.973 79.1468 216.414 79.9293C216.703 80.4419 217.316 80.7244 218.14 80.7244H219.418V70.4881V60.2517H217.047H214.676V68.1959V76.1402L213.318 76.5898C212.572 76.8371 211.049 77.0394 209.936 77.0394C206.575 77.0394 206.485 76.8002 206.485 67.8966V60.2517H203.854H201.223L201.379 68.5431ZM190.509 64.1198C192.201 65.575 191.934 69.9664 190.097 70.9008C189.657 71.1239 188.336 71.307 187.161 71.307C184.315 71.307 183.18 70.4242 182.929 68.0154C182.586 64.7356 184.448 62.9381 187.857 63.2571C188.874 63.3525 190.067 63.7406 190.509 64.1198ZM255.145 63.5703C256.862 64.139 257.356 65.0083 257.356 67.4663C257.356 70.2719 256.226 71.307 253.165 71.307C250.169 71.307 248.734 70.1261 248.734 67.66C248.734 63.9208 251.286 62.2928 255.145 63.5703ZM279.146 64.5325C279.921 65.2683 280.204 65.9812 280.204 67.194V68.8502H276.109H272.013V67.8061C272.013 64.1919 276.581 62.0954 279.146 64.5325ZM146.992 73.3047C146.992 76.001 146.941 76.1394 145.806 76.5468C143.644 77.3235 142.323 77.4549 141.103 77.0144C139.571 76.4616 139.246 75.9596 139.238 74.1343C139.229 72.1156 140.288 71.3377 143.599 70.9299C145.109 70.744 146.49 70.5687 146.668 70.5401C146.846 70.5114 146.992 71.7553 146.992 73.3047ZM235.369 73.3047C235.369 76.001 235.319 76.1394 234.184 76.5468C232.021 77.3235 230.7 77.4549 229.48 77.0144C227.94 76.4583 227.624 75.9608 227.616 74.0802C227.607 72.1484 228.823 71.3139 232.257 70.8959C233.613 70.7305 234.868 70.5712 235.046 70.5417C235.224 70.5122 235.369 71.7553 235.369 73.3047ZM189.28 81.5884C193.114 82.0691 194.414 82.7296 194.414 84.197C194.414 86.8843 187.507 88.7191 183.45 87.1091C180.787 86.0523 180.98 82.8864 183.778 81.7309C185.462 81.0348 184.966 81.0475 189.28 81.5884ZM255.804 81.7071C259.447 82.2734 260.594 83.0399 260.123 84.593C259.361 87.103 253.626 88.5487 249.651 87.2327C246.469 86.1792 246.696 82.8565 250.036 81.5909C251.414 81.0684 251.74 81.0749 255.804 81.7071Z" fill="white"/>
</svg>
