<svg width="85" height="93" viewBox="0 0 85 93" fill="none" xmlns="http://www.w3.org/2000/svg">
<path d="M40 64V32H47.598C49.2382 32 50.3718 33.5515 50.7336 34.3273C50.9346 37.5079 51.216 44.2182 50.7336 45.6145C50.2512 47.0109 49.4648 47.2673 48.5 47.5C50.5 47.5 50.2914 48.1358 50.7336 48.7564V64H47.598C47.6382 59.8885 47.6944 51.2698 47.598 49.6873C47.5015 48.1047 44.7437 48.097 43.3769 48.2909V64H40Z" fill="white"/>
<path d="M44 46V34H46.9474C47.2632 34 48 34.3636 48 34.7273V45.0303C48 45.5152 47.4386 45.8788 47.1579 46H44Z" fill="#5D93B1"/>
<path d="M16 49V36H19V37.1207H17.0385V41.8276H19V42.9483H17.0385V47.9914H19V49H16Z" fill="white"/>
<path d="M5.26316 36.9915H4V36H7.5V37H6.5V43V49H5.26316V36.9915Z" fill="white"/>
<path d="M57.5814 34.5324H54V32H65V34.5324H60.907V64H57.5814V34.5324Z" fill="white"/>
<path d="M10 49V36H10.8919V41.4444H12.1892V36H13V49H12.1892V42.6667H10.8919V49H10Z" fill="white"/>
<path d="M26.7863 32L22 64H24.7521L26.7863 55.2883H31.2137L32.4103 64H36L31.2137 32H26.7863Z" fill="white"/>
<path d="M27 53L29 35L31 53H27Z" fill="#5D93B1"/>
<path d="M78 41.0979H74.9957V36.0843C74.9957 34.8717 73.9324 34.5 73.5 34.5C72.5 34.5 72.251 35.3847 72.1026 36.0843V42.1472L78 53.3404V61.9685C78 63.3677 76.4422 64.5725 75.6633 65H71.6575C70.3223 64.5336 69.395 62.7847 69.0983 61.9685V55.9055H71.6575V61.2474C71.7401 61.5692 72.0247 62.1784 72.8815 62.4349C74.1277 62.808 74.8102 61.8908 74.9957 61.3855V54.1566L69.0983 42.7302C69.0241 41.0202 68.9203 37.157 69.0983 35.3847C69.3208 33.1694 70.5 32.0034 74.1055 32.0034C77 32.0034 77.5 33.5 78 34.6851V41.0979Z" fill="white"/>
<rect y="82" width="85" height="10" fill="white"/>
<path d="M48.9491 90.6309C48.8238 90.6855 48.7099 90.7368 48.6073 90.7847C48.5071 90.8325 48.3749 90.8826 48.2108 90.9351C48.0718 90.9784 47.9203 91.0148 47.7563 91.0444C47.5945 91.0763 47.4156 91.0923 47.2196 91.0923C46.8505 91.0923 46.5144 91.041 46.2113 90.9385C45.9105 90.8337 45.6485 90.6707 45.4252 90.4497C45.2064 90.2332 45.0355 89.9587 44.9125 89.626C44.7895 89.291 44.7279 88.9025 44.7279 88.4604C44.7279 88.0412 44.7872 87.6663 44.9057 87.3359C45.0242 87.0055 45.1951 86.7264 45.4184 86.4985C45.6348 86.2775 45.8957 86.1089 46.2011 85.9927C46.5087 85.8765 46.8493 85.8184 47.223 85.8184C47.4965 85.8184 47.7688 85.8514 48.0399 85.9175C48.3134 85.9836 48.6164 86.0998 48.9491 86.2661V87.0693H48.8979C48.6176 86.8346 48.3396 86.6637 48.0639 86.5566C47.7882 86.4495 47.4931 86.396 47.1786 86.396C46.9211 86.396 46.6887 86.4382 46.4813 86.5225C46.2763 86.6045 46.0928 86.7332 45.9311 86.9087C45.7738 87.0796 45.6508 87.2961 45.5619 87.5581C45.4753 87.8179 45.432 88.1187 45.432 88.4604C45.432 88.8182 45.4799 89.1258 45.5756 89.3833C45.6736 89.6408 45.7989 89.8504 45.9516 90.0122C46.1111 90.1808 46.2968 90.3062 46.5087 90.3882C46.7229 90.4679 46.9485 90.5078 47.1854 90.5078C47.5113 90.5078 47.8166 90.452 48.1015 90.3403C48.3863 90.2287 48.6529 90.0612 48.9013 89.8379H48.9491V90.6309ZM53.6592 91H52.9825V88.5083H50.4429V91H49.7662V85.9106H50.4429V87.9067H52.9825V85.9106H53.6592V91ZM58.9025 91H58.1813L57.6823 89.5815H55.4811L54.9821 91H54.2951L56.1476 85.9106H57.05L58.9025 91ZM57.4738 89.0005L56.5817 86.502L55.6862 89.0005H57.4738ZM63.4178 91H62.5804L60.1673 86.4473V91H59.535V85.9106H60.5843L62.7855 90.0669V85.9106H63.4178V91ZM68.8764 90.624C68.5984 90.7516 68.2942 90.8633 67.9638 90.959C67.6357 91.0524 67.3178 91.0991 67.0102 91.0991C66.6137 91.0991 66.2503 91.0444 65.9199 90.9351C65.5895 90.8257 65.3081 90.6616 65.0756 90.4429C64.8409 90.2218 64.6598 89.9461 64.5322 89.6157C64.4046 89.283 64.3408 88.8945 64.3408 88.4502C64.3408 87.6367 64.5778 86.9953 65.0517 86.5259C65.528 86.0542 66.1808 85.8184 67.0102 85.8184C67.2996 85.8184 67.5947 85.8537 67.8955 85.9243C68.1985 85.9927 68.5244 86.11 68.873 86.2764V87.0796H68.8115C68.7408 87.0249 68.6383 86.9531 68.5039 86.8643C68.3694 86.7754 68.2373 86.7013 68.1074 86.6421C67.9502 86.5715 67.7713 86.5133 67.5708 86.4678C67.3725 86.4199 67.1469 86.396 66.894 86.396C66.3243 86.396 65.8732 86.5794 65.5405 86.9463C65.2101 87.3109 65.0449 87.8053 65.0449 88.4297C65.0449 89.0882 65.2181 89.6009 65.5644 89.9678C65.9108 90.3324 66.3824 90.5146 66.9795 90.5146C67.1982 90.5146 67.4158 90.493 67.6323 90.4497C67.851 90.4064 68.0424 90.3506 68.2065 90.2822V89.0347H66.8427V88.4399H68.8764V90.624ZM73.2721 91H69.919V85.9106H73.2721V86.5122H70.5958V87.9067H73.2721V88.5083H70.5958V90.3984H73.2721V91Z" fill="#5B92AF"/>
<path d="M36.6395 86.4951C36.8468 86.723 37.0052 87.0021 37.1146 87.3325C37.2262 87.6629 37.2821 88.0378 37.2821 88.457C37.2821 88.8763 37.2251 89.2523 37.1112 89.585C36.9995 89.9154 36.8423 90.1911 36.6395 90.4121C36.4298 90.6423 36.1815 90.8154 35.8944 90.9316C35.6095 91.0479 35.2837 91.106 34.9168 91.106C34.5591 91.106 34.2332 91.0467 33.9393 90.9282C33.6476 90.8097 33.3992 90.6377 33.1942 90.4121C32.9891 90.1865 32.8307 89.9097 32.7191 89.5815C32.6097 89.2534 32.555 88.8786 32.555 88.457C32.555 88.0423 32.6097 87.6709 32.7191 87.3428C32.8284 87.0124 32.9879 86.7298 33.1976 86.4951C33.3981 86.2718 33.6465 86.1009 33.9427 85.9824C34.2412 85.8639 34.5659 85.8047 34.9168 85.8047C35.2814 85.8047 35.6084 85.8651 35.8978 85.9858C36.1894 86.1043 36.4367 86.2741 36.6395 86.4951ZM36.5779 88.457C36.5779 87.7962 36.4298 87.2869 36.1336 86.9292C35.8374 86.5692 35.4329 86.3892 34.9202 86.3892C34.403 86.3892 33.9962 86.5692 33.7 86.9292C33.4061 87.2869 33.2591 87.7962 33.2591 88.457C33.2591 89.1247 33.4095 89.6362 33.7103 89.9917C34.0111 90.3449 34.4144 90.5215 34.9202 90.5215C35.4261 90.5215 35.8283 90.3449 36.1268 89.9917C36.4276 89.6362 36.5779 89.1247 36.5779 88.457ZM41.7458 86.5122H39.1721V87.9478H41.3835V88.5493H39.1721V91H38.4953V85.9106H41.7458V86.5122Z" fill="#5B92AF"/>
<path d="M4.46756 86.5122H2.6492V91H1.97244V86.5122H0.154082V85.9106H4.46756V86.5122ZM8.93922 91H8.26246V88.5083H5.72291V91H5.04615V85.9106H5.72291V87.9067H8.26246V85.9106H8.93922V91ZM13.5579 91H10.2048V85.9106H13.5579V86.5122H10.8816V87.9067H13.5579V88.5083H10.8816V90.3984H13.5579V91Z" fill="#5B92AF"/>
<path d="M21.8184 91H21.0972L20.5982 89.5815H18.397L17.898 91H17.211L19.0635 85.9106H19.9658L21.8184 91ZM20.3897 89.0005L19.4976 86.502L18.6021 89.0005H20.3897ZM26.6968 91H25.8184L24.1162 88.9766H23.1626V91H22.4858V85.9106H23.9111C24.2188 85.9106 24.4751 85.9312 24.6802 85.9722C24.8853 86.0109 25.0698 86.0815 25.2339 86.1841C25.4185 86.3003 25.562 86.4473 25.6646 86.625C25.7694 86.8005 25.8218 87.0238 25.8218 87.2949C25.8218 87.6618 25.7295 87.9694 25.5449 88.2178C25.3604 88.4639 25.1063 88.6496 24.7827 88.7749L26.6968 91ZM25.1143 87.3428C25.1143 87.1969 25.0881 87.0682 25.0356 86.9565C24.9855 86.8426 24.9012 86.7469 24.7827 86.6694C24.6847 86.6034 24.5685 86.5578 24.4341 86.5327C24.2996 86.5054 24.1413 86.4917 23.959 86.4917H23.1626V88.4126H23.8462C24.0604 88.4126 24.2472 88.3944 24.4067 88.3579C24.5662 88.3192 24.7018 88.2485 24.8135 88.146C24.916 88.0503 24.9912 87.9409 25.0391 87.8179C25.0892 87.6925 25.1143 87.5342 25.1143 87.3428ZM30.8779 86.5122H29.0596V91H28.3828V86.5122H26.5644V85.9106H30.8779V86.5122Z" fill="#5B92AF"/>
<path d="M78.5336 85.7944H77.2348V89H76.7514V85.7944H75.4525V85.3647H78.5336V85.7944ZM82.0592 89H81.5758V85.8677L80.565 87.999H80.277L79.2735 85.8677V89H78.8219V85.3647H79.4811L80.4503 87.3887L81.3878 85.3647H82.0592V89Z" fill="#5B92AF"/>
<rect x="1" y="1" width="83" height="81" stroke="white" stroke-width="2"/>
</svg>
