<svg width="192" height="175" viewBox="0 0 192 175" fill="none" xmlns="http://www.w3.org/2000/svg">
<g filter="url(#filter0_d)">
<path d="M82.154 128.832C82.154 114.294 84.5369 116.184 96.037 116.184C107.541 116.184 146.769 91.0502 146.769 105.589C146.769 120.127 123.56 133.962 112.06 133.962C100.556 133.962 82.154 143.371 82.154 128.832Z" fill="#557DBF" stroke="#DAE8FF" stroke-width="3" stroke-miterlimit="10"/>
<path d="M90.3963 136.515C89.4158 125.538 92.5298 126.525 106.947 124.418C121.364 122.311 168.845 96.1284 169.821 107.106C170.802 118.083 142.64 132.79 128.223 134.902C113.81 137.009 91.3767 147.492 90.3963 136.515Z" fill="#557DBF" stroke="#DAE8FF" stroke-width="3" stroke-miterlimit="10"/>
<path d="M10.4961 158.062C6.53778 148.694 2.0817 99.5774 12.0753 100.623C38.4341 103.374 43.1303 89.4916 58.5 90.9674C62.1321 91.3192 77.6487 98.4821 90.2308 98.8193C100.272 99.088 94.9623 106.194 102.93 118.685C104.832 121.665 113.841 129.308 116.728 131.053C127.525 137.591 144.086 124.827 163.365 114.761C176.057 108.134 182.947 106.482 184.64 108.994C195.615 125.296 137.429 157.642 108.341 164.415C88.134 169.121 73.6492 150.5 49 150.5C24.3474 150.5 15.3469 169.536 10.4961 158.062Z" fill="#557DBF" stroke="#DAE8FF" stroke-width="3" stroke-miterlimit="10"/>
<path d="M77.5385 114.418C77.5385 114.418 113.66 120.732 118.183 112.652C121.891 106.032 112.9 101.81 112.279 101.542C104.579 98.206 80.6141 97.6971 80.6141 97.6971" fill="#557DBF"/>
<path d="M77.5385 114.418C77.5385 114.418 113.66 120.732 118.183 112.652C121.891 106.032 112.9 101.81 112.279 101.542C104.579 98.206 80.6141 97.6971 80.6141 97.6971" stroke="#DAE8FF" stroke-width="3" stroke-miterlimit="10"/>
<path d="M113.523 90.2878H98.1592L115.683 83.7065H96.0001L118.189 77.0345" stroke="#EFEBFF" stroke-width="3.16365" stroke-linecap="round" stroke-linejoin="round"/>
<path fill-rule="evenodd" clip-rule="evenodd" d="M120.967 74.453C121.877 69.1486 126.539 63.5475 128.652 61.2343C129.646 60.1463 130.555 58.9836 131.302 57.715C133.77 53.5232 135.148 48.6189 135.048 43.3876C134.774 29.0006 123.076 17.1326 108.611 16.5867C92.9267 15.9946 80.0238 28.4585 80.0238 43.9184C80.0238 48.8513 81.3378 53.4794 83.6359 57.4758C84.4376 58.8693 85.4324 60.1413 86.5143 61.3328C88.6669 63.7028 93.2126 69.2222 94.1105 74.453C94.2838 75.4588 95.1353 76.2062 96.1612 76.2062H118.916C119.942 76.2062 120.793 75.4588 120.967 74.453Z" stroke="#EFEBFF" stroke-width="3.16365" stroke-linecap="round" stroke-linejoin="round"/>
<mask id="mask0" style="mask-type:alpha" maskUnits="userSpaceOnUse" x="80" y="16" width="56" height="61">
<path fill-rule="evenodd" clip-rule="evenodd" d="M121.164 74.7946C122.075 69.4589 126.738 63.8248 128.852 61.4979C129.846 60.4036 130.755 59.234 131.502 57.9579C133.972 53.7413 135.35 48.8081 135.25 43.5459C134.976 29.074 123.274 17.1359 108.804 16.5868C93.1155 15.9912 80.2086 28.5287 80.2086 44.0798C80.2086 49.0419 81.5231 53.6973 83.8218 57.7173C84.6238 59.119 85.6189 60.3985 86.7011 61.597C88.8543 63.981 93.4015 69.533 94.2997 74.7946C94.473 75.8064 95.3248 76.5582 96.351 76.5582H119.113C120.139 76.5582 120.991 75.8064 121.164 74.7946Z" fill="white"/>
</mask>
<g mask="url(#mask0)">
<path fill-rule="evenodd" clip-rule="evenodd" d="M109.227 76.4695V52.5024C109.227 51.5635 108.467 50.8025 107.529 50.8025C106.591 50.8025 105.831 51.5635 105.831 52.5024V76.4695C105.831 77.4084 106.591 78.1695 107.529 78.1695C108.467 78.1695 109.227 77.4084 109.227 76.4695Z" fill="#EFEBFF"/>
<path fill-rule="evenodd" clip-rule="evenodd" d="M101.56 44.995C101.56 41.5846 104.326 38.8197 107.737 38.8197C111.15 38.8197 113.916 41.5846 113.916 44.995C113.916 48.4054 111.15 51.1709 107.737 51.1709C104.326 51.1709 101.56 48.4054 101.56 44.995Z" stroke="#EFEBFF" stroke-width="3.16365" stroke-linecap="round" stroke-linejoin="round"/>
</g>
</g>
<defs>
<filter id="filter0_d" x="0.499969" y="-0.000244141" width="191.007" height="174.677" filterUnits="userSpaceOnUse" color-interpolation-filters="sRGB">
<feFlood flood-opacity="0" result="BackgroundImageFix"/>
<feColorMatrix in="SourceAlpha" type="matrix" values="0 0 0 0 0 0 0 0 0 0 0 0 0 0 0 0 0 0 127 0" result="hardAlpha"/>
<feOffset dy="4"/>
<feGaussianBlur stdDeviation="2"/>
<feComposite in2="hardAlpha" operator="out"/>
<feColorMatrix type="matrix" values="0 0 0 0 0 0 0 0 0 0 0 0 0 0 0 0 0 0 0.25 0"/>
<feBlend mode="normal" in2="BackgroundImageFix" result="effect1_dropShadow"/>
<feBlend mode="normal" in="SourceGraphic" in2="effect1_dropShadow" result="shape"/>
</filter>
</defs>
</svg>
