<svg width="579" height="690" viewBox="0 0 579 690" fill="none" xmlns="http://www.w3.org/2000/svg">
    <path d="M135.598 498.38H119.06V666.91H135.598V498.38Z" fill="#476F8C"/>
    <path d="M549.61 506.16H533.073V674.69H549.61V506.16Z" fill="#476F8C"/>
    <path d="M91.2498 494.91L136.781 362.52C137.188 361.04 138.434 360.03 139.852 360.03L531.365 359C532.791 359 534.044 360.01 534.451 361.5L578.298 495.76C578.917 498.01 577.546 524.14 575.392 524.14L94.6967 518.32C92.5502 518.33 90.6309 497.16 91.2498 494.91Z" fill="#457395"/>
    <path d="M91.6176 495.5L101.042 486.57L139.562 377.68C139.961 376.36 141.176 375.46 142.554 375.45L523.969 374.53C525.356 374.53 526.578 375.43 526.977 376.76L565.999 489.37L578.329 495.27C578.932 497.28 577.538 524.03 575.439 524.03L93.5056 517.86C91.406 517.89 91.0065 497.51 91.6176 495.5Z" fill="#152A39"/>
    <path d="M100.933 487.28L142.829 368.96C143.221 367.85 144.411 367.1 145.767 367.09L525.818 365.35C527.181 365.35 529.939 368.54 530.331 369.65L565.215 487.28C565.811 488.96 564.33 490.66 562.27 490.66H103.878C101.818 490.67 100.337 488.97 100.933 487.28Z" fill="#2B4960"/>
    <path d="M183.93 319.78V126.88C183.93 125.1 185.37 123.66 187.15 123.66H463.28C465.06 123.66 466.5 125.1 466.5 126.88V319.78C466.5 321.56 465.06 323 463.28 323H187.15C185.37 322.99 183.93 321.55 183.93 319.78Z" fill="#212F3D"/>
    <path d="M194.77 301.49V147.29C194.77 141.25 199.67 136.35 205.71 136.35H442.56C448.6 136.35 453.5 141.25 453.5 147.29V301.5C453.5 307.54 448.6 312.44 442.56 312.44H205.7C199.66 312.43 194.77 307.53 194.77 301.49Z" fill="#C5CCE6" stroke="black" stroke-miterlimit="10"/>
    <path d="M305.74 380.86L318.1 324.01C318.25 323.34 318.79 322.87 319.41 322.87H351.42C352.26 322.87 353.01 323.47 353.27 324.36L369.43 380.13C369.75 381.23 369 382.36 367.96 382.36H306.82C306.1 382.36 305.57 381.62 305.74 380.86Z" fill="#29394A"/>
    <path d="M304.16 380.36L315.6 323.99C315.73 323.33 316.24 322.86 316.81 322.86H346.44C347.22 322.86 347.91 323.46 348.15 324.34L363.11 379.64C363.41 380.73 362.72 381.85 361.75 381.85H305.16C304.49 381.85 304 381.12 304.16 380.36Z" fill="#6D8394"/>
    <path d="M287.03 391V381.87C287.03 381.44 287.38 381.1 287.8 381.1H380.09C380.52 381.1 380.86 381.45 380.86 381.87V391C380.86 391.43 380.51 391.77 380.09 391.77H287.8C287.38 391.77 287.03 391.43 287.03 391Z" fill="#212F3D"/>
    <path d="M194.77 303.79V165.19C194.77 160.5 198.58 156.69 203.27 156.69H444.59C449.28 156.69 453.09 160.5 453.09 165.19V303.79C453.09 308.48 449.28 312.29 444.59 312.29H203.27C198.57 312.29 194.77 308.49 194.77 303.79Z" fill="#B2B2FB" stroke="black" stroke-miterlimit="10"/>
    <path d="M210.05 154.85L217.69 141.55C217.69 140.8 219.72 138.13 220.59 138.13H258.02C258.89 138.13 259.6 138.74 259.6 139.49L267.24 155.76C267.24 156.51 266.53 156.44 265.66 156.44L211.62 156.21C210.76 156.21 210.05 155.6 210.05 154.85Z" fill="white" stroke="black" stroke-miterlimit="10"/>
    <path d="M268.04 155.36L275.68 142.06C275.68 141.31 277.71 138.64 278.58 138.64H316.01C316.88 138.64 317.59 139.25 317.59 140L325.23 156.27C325.23 157.02 324.52 156.95 323.65 156.95L269.61 156.72C268.75 156.72 268.04 156.11 268.04 155.36Z" fill="#141414" stroke="black" stroke-miterlimit="10"/>
    <path d="M203.97 301.95V173.77C203.97 171.53 205.78 169.72 208.02 169.72H282.16C284.4 169.72 286.21 171.53 286.21 173.77V301.95C286.21 304.19 284.4 306 282.16 306H208.02C205.78 306 203.97 304.19 203.97 301.95Z" fill="white" stroke="black" stroke-miterlimit="10"/>
    <path d="M204.23 180.94V174.73C204.23 172.24 205.68 170.82 208.31 170.23H282.32C284.85 170.51 285.9 172.64 285.87 174.73V181.01C285.87 181.38 285.55 181.67 285.15 181.67H205.03C204.59 181.67 204.23 181.34 204.23 180.94Z" fill="#1C2F4F"/>
    <path d="M294.65 302.2V174.03C294.65 171.79 296.46 169.98 298.7 169.98H436.1C438.34 169.98 440.15 171.79 440.15 174.03V302.2C440.15 304.44 438.34 306.25 436.1 306.25H298.7C296.46 306.25 294.65 304.44 294.65 302.2Z" fill="#29253D"/>
    <path d="M242.12 204.52V195.53C242.12 195.11 242.46 194.78 242.87 194.78H253.06C253.48 194.78 253.81 195.12 253.81 195.53V204.52C253.81 204.94 253.47 205.27 253.06 205.27H242.87C242.46 205.28 242.12 204.94 242.12 204.52Z" fill="#CF2DB6"/>
    <path d="M236.14 199.52V190C236.14 189.58 236.48 189.25 236.89 189.25H246.53C246.95 189.25 247.28 189.59 247.28 190V199.52C247.28 199.94 246.94 200.27 246.53 200.27H236.89C236.48 200.27 236.14 199.94 236.14 199.52Z" fill="#254885"/>
    <path d="M397.79 201.85V175.63C397.79 174.87 398.41 174.25 399.17 174.25H426.46C427.22 174.25 427.84 174.87 427.84 175.63V201.85C427.84 202.61 427.22 203.23 426.46 203.23H399.17C398.4 203.23 397.79 202.62 397.79 201.85Z" fill="#242424" stroke="white" stroke-miterlimit="10"/>
    <path d="M209.85 280.88V255.09C209.85 254.67 210.19 254.34 210.6 254.34H246.8C247.22 254.34 247.55 254.68 247.55 255.09V280.88C247.55 281.3 247.21 281.63 246.8 281.63H210.6C210.18 281.63 209.85 281.3 209.85 280.88Z" fill="#9DEBC4"/>
    <path d="M209.85 249.86V243.23C209.85 242.81 210.19 242.48 210.6 242.48H278.68C279.1 242.48 279.43 242.82 279.43 243.23V249.86C279.43 250.28 279.09 250.61 278.68 250.61H210.6C210.18 250.61 209.85 250.28 209.85 249.86Z" fill="#6DD1C5"/>
    <path d="M209.85 300.53V285.76C209.85 285.34 210.19 285.01 210.6 285.01H225.54C225.96 285.01 226.29 285.35 226.29 285.76V300.53C226.29 300.95 225.95 301.28 225.54 301.28H210.6C210.18 301.29 209.85 300.95 209.85 300.53Z" fill="#6B9DEC"/>
    <path d="M230.85 300.79V285.77C230.85 285.35 231.19 285.02 231.6 285.02H246.54C246.96 285.02 247.29 285.36 247.29 285.77V300.79C247.29 301.21 246.95 301.54 246.54 301.54H231.6C231.19 301.54 230.85 301.2 230.85 300.79Z" fill="#BD7EF1"/>
    <path d="M252.36 300.88V255.1C252.36 254.68 252.7 254.35 253.11 254.35H278.68C279.1 254.35 279.43 254.69 279.43 255.1V300.88C279.43 301.3 279.09 301.63 278.68 301.63H253.11C252.7 301.63 252.36 301.29 252.36 300.88Z" fill="#9DE6ED"/>
    <path d="M225.88 215.52V209.34C225.88 209.29 225.92 209.25 225.97 209.25H265.86C265.91 209.25 265.95 209.29 265.95 209.34V215.52C265.95 215.57 265.91 215.61 265.86 215.61H225.97C225.91 215.61 225.88 215.57 225.88 215.52Z" fill="#5C67DB"/>
    <path d="M225.88 234.84V228.66C225.88 228.61 225.92 228.57 225.97 228.57H243.98C244.03 228.57 244.07 228.61 244.07 228.66V234.84C244.07 234.89 244.03 234.93 243.98 234.93H225.97C225.91 234.93 225.88 234.89 225.88 234.84Z" fill="#1C2F4F"/>
    <path d="M247.49 234.84V228.66C247.49 228.61 247.53 228.57 247.58 228.57H265.59C265.64 228.57 265.68 228.61 265.68 228.66V234.84C265.68 234.89 265.64 234.93 265.59 234.93H247.58C247.53 234.93 247.49 234.89 247.49 234.84Z" fill="#1C2F4F"/>
    <path d="M225.88 225.69V219.51C225.88 219.46 225.92 219.42 225.97 219.42H265.86C265.91 219.42 265.95 219.46 265.95 219.51V225.69C265.95 225.74 265.91 225.78 265.86 225.78H225.97C225.91 225.78 225.88 225.74 225.88 225.69Z" fill="#B846A7"/>
    <path d="M306.16 214.23V207.35C306.16 207 306.44 206.72 306.79 206.72H337.7C338.05 206.72 338.33 207 338.33 207.35V214.23C338.33 214.58 338.05 214.86 337.7 214.86H306.79C306.44 214.86 306.16 214.58 306.16 214.23Z" fill="#FF6179"/>
    <path d="M306.16 202.54V195.66C306.16 195.31 306.44 195.03 306.79 195.03H350.88C351.23 195.03 351.51 195.31 351.51 195.66V202.54C351.51 202.89 351.23 203.17 350.88 203.17H306.79C306.44 203.16 306.16 202.88 306.16 202.54Z" fill="#FF9661"/>
    <path d="M306.16 190.84V183.96C306.16 183.61 306.44 183.33 306.79 183.33H350.88C351.23 183.33 351.51 183.61 351.51 183.96V190.84C351.51 191.19 351.23 191.47 350.88 191.47H306.79C306.44 191.47 306.16 191.19 306.16 190.84Z" fill="#FFB561"/>
    <path d="M306.16 253.9V247.02C306.16 246.67 306.44 246.39 306.79 246.39H337.7C338.05 246.39 338.33 246.67 338.33 247.02V253.9C338.33 254.25 338.05 254.53 337.7 254.53H306.79C306.44 254.52 306.16 254.24 306.16 253.9Z" fill="#FF6179"/>
    <path d="M306.16 293.05V286.17C306.16 285.82 306.44 285.54 306.79 285.54H376.18C376.53 285.54 376.81 285.82 376.81 286.17V293.05C376.81 293.4 376.53 293.68 376.18 293.68H306.79C306.44 293.68 306.16 293.4 306.16 293.05Z" fill="#DE4B61"/>
    <path d="M343.59 214.23V207.35C343.59 207 343.87 206.72 344.22 206.72H387.78C388.13 206.72 388.41 207 388.41 207.35V214.23C388.41 214.58 388.13 214.86 387.78 214.86H344.22C343.87 214.86 343.59 214.58 343.59 214.23Z" fill="#FF6179"/>
    <path d="M325.14 226.44V219.56C325.14 219.21 325.42 218.93 325.77 218.93H356.68C357.03 218.93 357.31 219.21 357.31 219.56V226.44C357.31 226.79 357.03 227.07 356.68 227.07H325.77C325.42 227.06 325.14 226.78 325.14 226.44Z" fill="#FFB561"/>
    <path d="M362.56 226.44V219.56C362.56 219.21 362.84 218.93 363.19 218.93H406.75C407.1 218.93 407.38 219.21 407.38 219.56V226.44C407.38 226.79 407.1 227.07 406.75 227.07H363.19C362.85 227.06 362.56 226.78 362.56 226.44Z" fill="#FF9661"/>
    <path d="M393.14 214.23V207.35C393.14 207 393.42 206.72 393.77 206.72H415.19C415.54 206.72 415.82 207 415.82 207.35V214.23C415.82 214.58 415.54 214.86 415.19 214.86H393.77C393.42 214.86 393.14 214.58 393.14 214.23Z" fill="#DE4B61"/>
    <path d="M412.12 226.44V219.56C412.12 219.21 412.4 218.93 412.75 218.93H436.8C437.15 218.93 437.43 219.21 437.43 219.56V226.44C437.43 226.79 437.15 227.07 436.8 227.07H412.75C412.4 227.06 412.12 226.78 412.12 226.44Z" fill="#FF9661"/>
    <path d="M325.66 239.15V232.27C325.66 231.92 325.94 231.64 326.29 231.64H371.96C372.31 231.64 372.59 231.92 372.59 232.27V239.15C372.59 239.5 372.31 239.78 371.96 239.78H326.29C325.94 239.78 325.66 239.5 325.66 239.15Z" fill="#FFB561"/>
    <path d="M377.33 239.15V232.27C377.33 231.92 377.61 231.64 377.96 231.64H396.21C396.56 231.64 396.84 231.92 396.84 232.27V239.15C396.84 239.5 396.56 239.78 396.21 239.78H377.96C377.61 239.78 377.33 239.5 377.33 239.15Z" fill="#FFB561"/>
    <path d="M325.66 268.14V261.26C325.66 260.91 325.94 260.63 326.29 260.63H374.59C374.94 260.63 375.22 260.91 375.22 261.26V268.14C375.22 268.49 374.94 268.77 374.59 268.77H326.29C325.94 268.76 325.66 268.48 325.66 268.14Z" fill="#C44155"/>
    <path d="M320.39 279.83V272.95C320.39 272.6 320.67 272.32 321.02 272.32H354.56C354.91 272.32 355.19 272.6 355.19 272.95V279.83C355.19 280.18 354.91 280.46 354.56 280.46H321.02C320.67 280.46 320.39 280.18 320.39 279.83Z" fill="#FFB561"/>
    <path d="M378.91 268.14V261.26C378.91 260.91 379.19 260.63 379.54 260.63H423.1C423.45 260.63 423.73 260.91 423.73 261.26V268.14C423.73 268.49 423.45 268.77 423.1 268.77H379.54C379.19 268.76 378.91 268.48 378.91 268.14Z" fill="#FFB561"/>
    <path d="M363.09 279.83V272.95C363.09 272.6 363.37 272.32 363.72 272.32H433.37C433.72 272.32 434 272.6 434 272.95V279.83C434 280.18 433.72 280.46 433.37 280.46H363.72C363.37 280.46 363.09 280.18 363.09 279.83Z" fill="#FF9661"/>
    <path d="M401.58 239.15V232.27C401.58 231.92 401.86 231.64 402.21 231.64H437.33C437.68 231.64 437.96 231.92 437.96 232.27V239.15C437.96 239.5 437.68 239.78 437.33 239.78H402.2C401.86 239.78 401.58 239.5 401.58 239.15Z" fill="#FF9661"/>
    <path d="M407.38 182.07C405.14 184.4 402.89 186.72 400.8 188.87C402.98 191.06 405.16 193.24 407.34 195.43" stroke="#FFB561" stroke-width="2" stroke-miterlimit="10"/>
    <path d="M417.93 182.07C420.17 184.4 422.42 186.72 424.51 188.87C422.33 191.06 420.15 193.24 417.97 195.43" stroke="#FFB561" stroke-width="2" stroke-miterlimit="10"/>
    <path d="M415.15 180.31C413.48 185.82 411.81 191.33 410.14 196.84" stroke="#FFB561" stroke-width="2" stroke-miterlimit="10"/>
    <path d="M275.31 173.7C276.36 174.97 277.4 176.24 278.45 177.51C279.78 176.24 281.1 174.98 282.43 173.71" stroke="white" stroke-width="2" stroke-miterlimit="10"/>
    <path d="M228.26 279.19C235.081 279.19 240.61 274.14 240.61 267.91C240.61 261.68 235.081 256.63 228.26 256.63C221.439 256.63 215.91 261.68 215.91 267.91C215.91 274.14 221.439 279.19 228.26 279.19Z" fill="#FFF7E6"/>
    <path d="M215.91 267.32C216.25 264.83 216.49 263.64 217.63 262C219.53 259.26 223.14 257.12 225.49 256.81C226.61 256.66 228.6 256.26 228.65 256.98C228.86 259.75 228.85 264.67 228.88 267.46C228.91 269.6 240.64 267.55 240.6 268.19C240.37 272.09 238.78 274.34 236.5 276.31C234.22 278.28 231.66 279.18 228.25 279.18C225.05 279.18 221.95 278.39 219.65 276.28C217.04 273.92 215.46 270.61 215.91 267.32Z" fill="#1FCFCF"/>
    <path d="M228.16 275.64C232.65 275.64 236.29 272.228 236.29 268.02C236.29 263.812 232.65 260.4 228.16 260.4C223.67 260.4 220.03 263.812 220.03 268.02C220.03 272.228 223.67 275.64 228.16 275.64Z" fill="#BADECC" stroke="#323B34" stroke-miterlimit="10"/>
    <path d="M228.26 279.05C234.821 279.05 240.14 274.062 240.14 267.91C240.14 261.758 234.821 256.77 228.26 256.77C221.699 256.77 216.38 261.758 216.38 267.91C216.38 274.062 221.699 279.05 228.26 279.05Z" stroke="#323B34" stroke-miterlimit="10"/>
    <path d="M256.54 259.37V276.91V259.37Z" stroke="#32405C" stroke-miterlimit="10"/>
    <path d="M261.74 269.45H258.58V275.98H261.74V269.45Z" fill="#616BD4"/>
    <path d="M265.85 265.62H262.69V275.97H265.85V265.62Z" fill="#617AD4"/>
    <path d="M270.28 262.24H267.12V275.97H270.28V262.24Z" fill="#6685CC"/>
    <path d="M274.76 259.45H271.6V275.98H274.76V259.45Z" fill="#4E7EED"/>
    <path d="M255.26 298.31V279.82C255.26 279.66 255.39 279.53 255.55 279.53H276.05C276.21 279.53 276.34 279.66 276.34 279.82V298.31C276.34 298.47 276.21 298.6 276.05 298.6H255.55C255.39 298.6 255.26 298.47 255.26 298.31Z" fill="#4E7EED"/>
    <path d="M256.57 276.42H276.34H256.57Z" stroke="#32405C" stroke-miterlimit="10"/>
    <path opacity="0.6706" d="M236.233 150.673V11.3575C236.233 5.6391 241.185 1 247.288 1H434.322C440.426 1 445.378 5.6391 445.378 11.3575V150.673C445.378 156.391 440.426 161.03 434.322 161.03H247.278C241.174 161.03 236.233 156.391 236.233 150.673Z" fill="#E2FFD6" stroke="black" stroke-miterlimit="10"/>
    <path opacity="0.6706" d="M250.34 154.497V139.037C250.34 138.166 251.088 137.465 252.018 137.465H367.979C368.909 137.465 369.657 138.166 369.657 139.037V154.497C369.657 155.368 368.909 156.069 367.979 156.069H252.028C251.098 156.069 250.34 155.359 250.34 154.497Z" fill="#90E8E1" stroke="black" stroke-miterlimit="10"/>
    <path opacity="0.6706" d="M250.34 25.483V13.7432C250.34 12.8722 251.088 12.1716 252.018 12.1716H367.979C368.909 12.1716 369.657 12.8722 369.657 13.7432V25.483C369.657 26.354 368.909 27.0546 367.979 27.0546H252.028C251.098 27.0546 250.34 26.3446 250.34 25.483Z" fill="#54C7B2" stroke="black" stroke-miterlimit="10"/>
    <path opacity="0.6706" d="M250.987 130.298V35.443C250.987 34.5719 251.735 33.8713 252.664 33.8713H368.626C369.556 33.8713 370.304 34.5719 370.304 35.443V130.298C370.304 131.169 369.556 131.87 368.626 131.87H252.664C251.735 131.879 250.987 131.169 250.987 130.298Z" fill="#03120D" stroke="black" stroke-miterlimit="10"/>
    <path opacity="0.6706" d="M381.854 152.632V116.703C381.854 115.832 382.602 115.131 383.532 115.131H431.493C432.423 115.131 433.171 115.832 433.171 116.703V152.632C433.171 153.503 432.423 154.204 431.493 154.204H383.532C382.612 154.204 381.854 153.503 381.854 152.632Z" fill="#142E2E" stroke="black" stroke-miterlimit="10"/>
    <path opacity="0.6706" d="M381.218 103.013V67.0836C381.218 66.2126 381.965 65.512 382.895 65.512H430.856C431.786 65.512 432.534 66.2126 432.534 67.0836V103.013C432.534 103.884 431.786 104.585 430.856 104.585H382.895C381.965 104.585 381.218 103.884 381.218 103.013Z" fill="#1D4D4D" stroke="black" stroke-miterlimit="10"/>
    <path opacity="0.6706" d="M381.218 49.6726V13.7432C381.218 12.8722 381.965 12.1716 382.895 12.1716H430.856C431.786 12.1716 432.534 12.8722 432.534 13.7432V49.6726C432.534 50.5436 431.786 51.2442 430.856 51.2442H382.895C381.965 51.2442 381.218 50.5341 381.218 49.6726Z" fill="#308585" stroke="black" stroke-miterlimit="10"/>
    <path d="M369.717 115.624H251.674V120.585H369.717V115.624Z" fill="#89A9AD"/>
    <path d="M299.15 115.624H251.674V120.585H299.15V115.624Z" fill="#DEFFF7"/>
    <path d="M300.302 124.533C304.198 124.533 307.356 121.476 307.356 117.706C307.356 113.937 304.198 110.88 300.302 110.88C296.407 110.88 293.249 113.937 293.249 117.706C293.249 121.476 296.407 124.533 300.302 124.533Z" fill="#547B80"/>
    <path d="M302.859 125.148C306.755 125.148 309.913 122.092 309.913 118.322C309.913 114.552 306.755 111.496 302.859 111.496C298.963 111.496 295.805 114.552 295.805 118.322C295.805 122.092 298.963 125.148 302.859 125.148Z" fill="#DAF5DB"/>
    <path d="M304.86 96.679C318.584 96.679 329.709 85.4336 329.709 71.5616C329.709 57.6897 318.584 46.4442 304.86 46.4442C291.136 46.4442 280.01 57.6897 280.01 71.5616C280.01 85.4336 291.136 96.679 304.86 96.679Z" fill="#BDBDBD"/>
    <path d="M307.113 95.5619C320.837 95.5619 331.963 84.5665 331.963 71.003C331.963 57.4396 320.837 46.4442 307.113 46.4442C293.389 46.4442 282.264 57.4396 282.264 71.003C282.264 84.5665 293.389 95.5619 307.113 95.5619Z" fill="#2BB348"/>
    <path d="M324.525 71.4291L297.978 57.1899V85.6589L324.525 71.4291Z" fill="white"/>
    <path opacity="0.8196" d="M431.368 330.439V186.56C431.368 181.282 436.085 177 441.899 177H554.93C560.745 177 565.461 181.282 565.461 186.56V330.439C565.461 335.718 560.745 340 554.93 340H441.899C436.085 340 431.368 335.718 431.368 330.439Z" fill="#16285E" stroke="black" stroke-miterlimit="10"/>
    <path d="M462.461 191.306H447.194V205.856H462.461V191.306Z" fill="#404F7B" stroke="white" stroke-miterlimit="10"/>
    <path d="M462.461 232.702H447.194V247.253H462.461V232.702Z" fill="#404F7B" stroke="white" stroke-miterlimit="10"/>
    <path d="M462.461 266.33H447.194V280.881H462.461V266.33Z" fill="#404F7B" stroke="white" stroke-miterlimit="10"/>
    <path d="M461.749 305.14H446.481V319.691H461.749V305.14Z" fill="#404F7B" stroke="white" stroke-miterlimit="10"/>
    <path d="M553.595 189.331H481.942C480.838 189.331 479.942 190.226 479.942 191.331V198.324C479.942 199.429 480.838 200.324 481.942 200.324H553.595C554.699 200.324 555.595 199.429 555.595 198.324V191.331C555.595 190.226 554.699 189.331 553.595 189.331Z" fill="#4E7EED"/>
    <path d="M554.595 207.438H480.942C480.39 207.438 479.942 207.886 479.942 208.438V211.611C479.942 212.164 480.39 212.611 480.942 212.611H554.595C555.147 212.611 555.595 212.164 555.595 211.611V208.438C555.595 207.886 555.147 207.438 554.595 207.438Z" fill="#C8DEFA"/>
    <path d="M553.595 232.667H481.942C480.838 232.667 479.942 233.563 479.942 234.667V241.661C479.942 242.766 480.838 243.661 481.942 243.661H553.595C554.699 243.661 555.595 242.766 555.595 241.661V234.667C555.595 233.563 554.699 232.667 553.595 232.667Z" fill="#E66ED4"/>
    <path d="M554.595 250.775H480.942C480.39 250.775 479.942 251.222 479.942 251.775V254.948C479.942 255.5 480.39 255.948 480.942 255.948H554.595C555.147 255.948 555.595 255.5 555.595 254.948V251.775C555.595 251.222 555.147 250.775 554.595 250.775Z" fill="#FED6FF"/>
    <path d="M554.595 218.117H480.942C480.39 218.117 479.942 218.565 479.942 219.117V222.29C479.942 222.843 480.39 223.29 480.942 223.29H554.595C555.147 223.29 555.595 222.843 555.595 222.29V219.117C555.595 218.565 555.147 218.117 554.595 218.117Z" fill="#C8DEFA"/>
    <path d="M553.595 265.657H481.942C480.838 265.657 479.942 266.553 479.942 267.657V274.651C479.942 275.755 480.838 276.651 481.942 276.651H553.595C554.699 276.651 555.595 275.755 555.595 274.651V267.657C555.595 266.553 554.699 265.657 553.595 265.657Z" fill="#FF9C6B"/>
    <path d="M554.595 283.764H480.942C480.39 283.764 479.942 284.212 479.942 284.764V287.938C479.942 288.49 480.39 288.938 480.942 288.938H554.595C555.147 288.938 555.595 288.49 555.595 287.938V284.764C555.595 284.212 555.147 283.764 554.595 283.764Z" fill="#FFF2E0"/>
    <path d="M553.595 308.985H481.942C480.838 308.985 479.942 309.881 479.942 310.985V317.979C479.942 319.083 480.838 319.979 481.942 319.979H553.595C554.699 319.979 555.595 319.083 555.595 317.979V310.985C555.595 309.881 554.699 308.985 553.595 308.985Z" fill="#AB4EED"/>
    <path d="M554.595 327.101H480.942C480.39 327.101 479.942 327.549 479.942 328.101V331.275C479.942 331.827 480.39 332.275 480.942 332.275H554.595C555.147 332.275 555.595 331.827 555.595 331.275V328.101C555.595 327.549 555.147 327.101 554.595 327.101Z" fill="#EDD6FF"/>
    <path d="M554.595 294.435H480.942C480.39 294.435 479.942 294.883 479.942 295.435V298.608C479.942 299.161 480.39 299.608 480.942 299.608H554.595C555.147 299.608 555.595 299.161 555.595 298.608V295.435C555.595 294.883 555.147 294.435 554.595 294.435Z" fill="#FFF2E0"/>
    <path d="M452.97 205.97L444.479 196.768L448.195 193.403L456.685 202.605L452.97 205.97Z" fill="#8AD696"/>
    <path d="M449.571 202.317L465.012 188.553L468.371 192.267L452.941 206.022L449.571 202.317Z" fill="#8AD696"/>
    <path d="M452.97 247.367L444.479 238.164L448.195 234.8L456.685 244.002L452.97 247.367Z" fill="#8AD696"/>
    <path d="M449.571 243.714L465.012 229.95L468.371 233.655L452.941 247.419L449.571 243.714Z" fill="#8AD696"/>
    <path opacity="0.6706" d="M1.21997 263.73V120.47C1.21997 114.43 6.11997 109.53 12.16 109.53H211.17C217.21 109.53 222.11 114.43 222.11 120.47V263.74C222.11 269.78 217.21 274.68 211.17 274.68H12.15C6.10997 274.67 1.21997 269.77 1.21997 263.73Z" fill="#FFFFA6" stroke="black" stroke-miterlimit="10"/>
    <path d="M14.0754 210.32V128C14.0754 125.76 15.8954 123.94 18.1354 123.94H91.3254C93.5654 123.94 95.3854 125.76 95.3854 128V210.32C95.3854 212.56 93.5654 214.38 91.3254 214.38H18.1354C15.8954 214.38 14.0754 212.57 14.0754 210.32Z" fill="#FFE387"/>
    <path d="M115.05 258.82V176.5C115.05 174.26 116.87 172.44 119.11 172.44H192.3C194.54 172.44 196.36 174.26 196.36 176.5V258.82C196.36 261.06 194.54 262.88 192.3 262.88H119.1C116.86 262.87 115.05 261.06 115.05 258.82Z" fill="#FFDFB8"/>
    <path d="M22.98 239.88C26.24 238.45 26.81 235.01 25.86 231.9C24.96 228.95 19.53 227.18 16.21 229.16C7.26997 234.51 14.07 248.7 18.77 257.29C23.47 265.88 33.19 272.69 42.69 268.16C45.63 266.75 47.61 262.78 45.54 260.79C42.21 257.6 39.63 259.27 34.74 259.58C31.4 252.69 25.38 246.88 22.98 239.88Z" fill="#4CCF73"/>
    <path d="M64.07 224.74C71.68 225.94 78.4 231.09 81.06 237.76C83.72 244.43 82.22 252.37 77.27 257.82" stroke="#366B5C" stroke-width="5" stroke-miterlimit="10"/>
    <path d="M56.62 233.58C61.13 234.32 65.11 237.48 66.69 241.58C68.27 245.68 67.38 250.55 64.44 253.9" stroke="#366B5C" stroke-width="5" stroke-miterlimit="10"/>
    <path d="M49.84 242.1C51.81 242.46 53.56 243.99 54.25 245.97C54.94 247.95 54.55 250.31 53.27 251.93" stroke="#366B5C" stroke-width="5" stroke-miterlimit="10"/>
    <path d="M43.5754 214.4L42.9754 201.49L42.0754 206.66L30.6554 206.39L35.3854 185.62L44.8554 180.65L66.0054 183.55L67.7554 179.26L76.6054 182.63L81.7854 192.39L82.0354 206.9L80.2754 207.34L69.4654 208.41L68.5654 214.4H43.5754Z" fill="#72C0C4"/>
    <path d="M41.1254 207.04H30.2354V214.16H41.1254V207.04Z" fill="#FCD0AE"/>
    <path d="M72.3554 214.94L71.3954 208.4L82.2054 207.32L83.1754 213.86L72.3554 214.94Z" fill="#FCD0AE"/>
    <path d="M50.7054 183.59L48.5154 168.48L63.6954 166.48L66.5254 181.06C66.5254 181.06 62.6654 191.42 58.9154 193.44C51.0654 197.68 50.7054 183.59 50.7054 183.59Z" fill="#FCD0AE"/>
    <path d="M55.2554 172.47C65.1634 172.47 73.1954 164.796 73.1954 155.33C73.1954 145.864 65.1634 138.19 55.2554 138.19C45.3474 138.19 37.3154 145.864 37.3154 155.33C37.3154 164.796 45.3474 172.47 55.2554 172.47Z" fill="#FCD0AE" stroke="black" stroke-miterlimit="10"/>
    <path d="M65.735 141.63C65.255 143.31 63.685 144.75 61.705 145.32C59.725 145.88 57.405 145.55 55.765 144.48C53.785 143.18 50.725 143.74 48.805 145.09C46.875 146.44 45.745 148.38 44.435 150.16C43.125 151.94 40.125 153.18 37.695 153.77C36.925 153.23 37.445 153.21 36.675 152.67C33.185 152.53 29.975 150.44 28.695 147.67C27.405 144.9 28.095 141.58 30.425 139.32C32.715 139.18 34.865 137.47 36.345 135.68C37.825 133.89 38.985 131.85 41.045 130.5C43.105 129.15 46.505 128.83 48.135 130.52C48.925 131.34 50.535 131.5 51.545 130.87C56.905 127.52 65.495 128.48 69.205 132.91C71.195 136.06 69.905 140.36 65.735 141.63Z" stroke="black" stroke-miterlimit="10"/>
    <path d="M69.9354 133.21C73.8554 132.18 78.8854 134.45 80.9754 137.36C83.0654 140.28 83.2954 143.85 82.9454 147.22C82.5954 150.59 81.7354 153.94 81.8554 157.33C81.9154 159.14 80.5154 160.93 78.4854 161.63C76.4554 162.33 73.9154 161.89 72.3954 160.58" stroke="black" stroke-miterlimit="10"/>
    <path d="M70.2854 158.49V149.12L64.5154 143.57L69.9654 137.92L69.8154 133.17L76.8754 133.78L82.1354 138.97L82.7754 145.34L82.1354 158.49L78.3754 161.95L75.2654 161.65L70.2854 158.49Z" fill="url(#paint0_linear)"/>
    <path d="M64.8754 144.07C69.4354 147.07 71.7254 152.23 70.5754 156.94C70.0054 159.27 73.0454 161.64 75.8454 161.04" stroke="black" stroke-miterlimit="10"/>
    <path d="M49.5054 171.34C49.8451 174.99 50.1949 178.65 50.5347 182.3" stroke="black" stroke-miterlimit="10"/>
    <path d="M64.7854 170.19C65.3454 173.74 65.9054 177.29 66.4654 180.84" stroke="black" stroke-miterlimit="10"/>
    <path d="M50.2654 181.43C50.7154 186.67 51.9154 195.87 57.8554 193.96C63.5454 192.13 64.7454 184.56 66.9054 179.86" stroke="black" stroke-miterlimit="10"/>
    <path d="M49.7954 181.57C43.5654 180 35.9354 183.2 34.6854 187.9C32.4654 196.29 32.1554 198.88 29.9354 207.27" stroke="black" stroke-miterlimit="10"/>
    <path d="M66.3254 179.76C71.8854 178.9 77.3254 182.38 79.5354 186.59C81.7454 190.8 81.5054 195.54 81.2754 200.1C81.0554 204.66 81.3654 203.32 82.6954 207.5" stroke="black" stroke-miterlimit="10"/>
    <path d="M29.5353 206.81C33.9353 207.12 38.3853 207.16 42.7953 206.92C42.5553 206.93 42.3153 206.93 42.0853 206.94C42.4953 206.2 42.9053 205.45 43.3153 204.71" stroke="black" stroke-miterlimit="10"/>
    <path d="M42.7054 202.07C43.1651 206.11 43.6347 210.16 44.0944 214.2" stroke="black" stroke-miterlimit="10"/>
    <path d="M69.9354 198.87C69.4254 204.14 68.9154 209.42 68.4054 214.69C68.8654 208.52 69.3154 202.35 69.9354 198.87Z" stroke="black" stroke-miterlimit="10"/>
    <path d="M27.6254 144.82L29.8654 140.21L37.5554 134.27L41.4054 130.32L45.9654 129.55L48.8854 131.37L59.0154 128.47L66.4254 130.6C66.4254 130.6 69.3654 132.44 69.8654 133.52C70.2954 134.45 70.6354 136.68 70.0254 138.12C69.4854 139.37 65.1054 143.81 65.1054 143.81L62.4754 144.9L58.6154 145.56L53.5254 143.14L47.7054 145.46L43.1954 151.88L38.8154 153.97L30.8354 150.54L27.6254 144.82Z" fill="url(#paint1_linear)"/>
    <path d="M69.2654 208.22C73.9454 208.65 78.7454 208.2 83.1954 206.93" stroke="black" stroke-miterlimit="10"/>
    <path d="M30.3351 206.95C30.2052 209.31 30.0753 211.67 29.9554 214.02" stroke="black" stroke-miterlimit="10"/>
    <path d="M41.2143 207.06C41.1147 209.55 41.005 212.05 40.9054 214.54" stroke="black" stroke-miterlimit="10"/>
    <path d="M71.1254 208.15C71.355 210.42 71.5747 212.7 71.8044 214.97" stroke="black" stroke-miterlimit="10"/>
    <path d="M81.3754 207.21C82.2054 209.45 83.0254 211.69 83.8554 213.93" stroke="black" stroke-miterlimit="10"/>
    <path d="M133.07 262.57L134.28 250.22L139.39 250.6L138.19 262.95L133.07 262.57Z" fill="#B58E70"/>
    <path d="M168.5 263.41L167.37 251.38L173.4 250.95L174.52 262.98L168.5 263.41Z" fill="#B58E70"/>
    <path d="M139.049 262.66L141.159 250.93L134.339 251.04L134.219 241.4L135.729 239.7L137.269 239.44H172.749L173.979 240.81L174.869 251.83L163.359 252.79L167.109 262.47L139.049 262.66Z" fill="#53704D"/>
    <path d="M147.42 201.22C146.52 195.67 151.86 188.89 159.23 189.48C166.6 190.06 174.31 196.35 171.32 201.59" fill="#301F1F"/>
    <path d="M161.14 230.86H151.2V243.7H161.14V230.86Z" fill="#B58E70"/>
    <path d="M151.06 231.5L146.45 242.87L152.79 243.46L151.06 231.5Z" fill="#B58E70"/>
    <path d="M151.2 230.02C149.67 234.39 148.14 238.76 146.61 243.13L151.2 230.02Z" fill="white"/>
    <path d="M151.2 230.02C149.67 234.39 148.14 238.76 146.61 243.13" stroke="black" stroke-miterlimit="10"/>
    <path d="M161.53 233.33C161.57 236.8 161.6 240.26 161.641 243.73L161.53 233.33Z" fill="white"/>
    <path d="M161.53 233.33C161.57 236.8 161.6 240.26 161.641 243.73" stroke="black" stroke-miterlimit="10"/>
    <path d="M146.47 242.66C150.59 245.94 157.29 246.1 161.91 243.38L146.47 242.66Z" fill="#B58E70"/>
    <path d="M146.47 242.66C150.59 245.94 157.29 246.1 161.91 243.38" stroke="black" stroke-miterlimit="10"/>
    <path d="M158.97 236.53C169.386 236.53 177.83 227.728 177.83 216.87C177.83 206.012 169.386 197.21 158.97 197.21C148.554 197.21 140.11 206.012 140.11 216.87C140.11 227.728 148.554 236.53 158.97 236.53Z" fill="#B58E70" stroke="black" stroke-miterlimit="10"/>
    <path d="M145.39 214.54C132.96 216.24 153.55 211.49 149.05 201.67C150.68 207.67 147.91 214.15 142.03 217.62C141.35 216.92 141.29 216.14 140.61 215.44L147.09 210.31L145.39 214.54Z" stroke="#301F1F" stroke-miterlimit="10"/>
    <path d="M140.11 214.92C140.11 205.14 148.55 197.21 158.97 197.21C169.38 197.21 177.83 205.14 177.83 214.92C177.83 219.81 166.67 216.41 159.31 211.8C151.95 207.19 148.38 201.37 149.29 203.19C153.43 211.49 140.11 224.7 140.11 214.92Z" fill="#301F1F"/>
    <path d="M133.569 250.82C134.039 249.36 134.219 248.03 134.099 246.49C133.979 244.95 134.479 243.68 134.699 242.17C134.819 241.33 135.439 239.2 137.679 239.24C141.259 239.31 144.519 239.25 148.099 239.38" stroke="black" stroke-miterlimit="10"/>
    <path d="M174.98 251.7C174.53 250.24 174.65 248.91 174.76 247.37C174.87 245.83 174.96 244.5 174.47 243.05C173.98 241.6 173.78 239.89 171.91 239.6C168.81 239.11 165.01 239.87 161.57 240.01" stroke="black" stroke-miterlimit="10"/>
    <path d="M133.1 250.54C135.78 251.27 138.8 251.3 141.51 250.62" stroke="black" stroke-miterlimit="10"/>
    <path d="M140.87 245.04C142.08 250.94 141.44 257.14 139.04 262.73" stroke="black" stroke-miterlimit="10"/>
    <path d="M163.98 251.64C167.5 253.15 172.4 253 175.7 251.28" stroke="black" stroke-miterlimit="10"/>
    <path d="M164.99 245.18C162.83 251.03 163.9 257.71 167.81 262.83" stroke="black" stroke-miterlimit="10"/>
    <path d="M115.05 258.82V176.5C115.05 174.26 116.87 172.44 119.11 172.44H192.3C194.54 172.44 196.36 174.26 196.36 176.5V258.82C196.36 261.06 194.54 262.88 192.3 262.88H119.1C116.86 262.87 115.05 261.06 115.05 258.82Z" stroke="black" stroke-miterlimit="10"/>
    <path d="M14.0754 210.32V128C14.0754 125.76 15.8954 123.94 18.1354 123.94H91.3254C93.5654 123.94 95.3854 125.76 95.3854 128V210.32C95.3854 212.56 93.5654 214.38 91.3254 214.38H18.1354C15.8954 214.38 14.0754 212.57 14.0754 210.32Z" stroke="black" stroke-miterlimit="10"/>
    <path d="M226.25 473.63L253.05 411.7C253.54 410.49 255.03 409.25 256.44 409.25L389.68 409.47C391.93 409.47 393.55 411.42 392.93 413.38L372.91 475.91C372.5 477.21 371.2 479.17 369.71 479.19L228.46 478.29C226.09 478.32 225.43 475.65 226.25 473.63Z" fill="#6A8ABB"/>
    <path d="M228.43 468.99L252.98 414.62C253.45 413.56 254.66 412.86 256.01 412.86H384.59C386.74 412.86 388.29 414.57 387.69 416.28L368.56 470.97C368.17 472.1 366.93 473.82 365.51 473.84L230.54 473.05C228.27 473.09 227.64 470.76 228.43 468.99Z" fill="#F1F8FF"/>
    <path d="M399.42 458.63C400.74 452.51 404.95 448.39 413.68 447.24C422.41 446.09 430.26 450.25 431.21 456.53C432.16 462.81 425.86 468.84 417.13 470C408.39 471.14 398.06 464.95 399.42 458.63Z" fill="#192C3A"/>
    <path d="M399.439 458.55L406.049 432.71L437.309 435.07L430.709 460.92L399.439 458.55Z" fill="#192C3A"/>
    <path d="M406.42 431.97C409.11 427.26 416.88 424.19 425.29 425.51C433.7 426.84 439.5 433.54 436.57 436.8C432.77 441.03 426.41 444.55 418 443.22C409.59 441.9 403.61 436.89 406.42 431.97Z" fill="#192C3A"/>
    <path d="M395.32 457.51C396.64 451.39 400.85 447.27 409.58 446.12C418.31 444.97 426.16 449.13 427.11 455.41C428.06 461.69 421.76 467.72 413.03 468.88C404.29 470.02 393.96 463.83 395.32 457.51Z" fill="#98B1D6"/>
    <path d="M395.339 457.43L401.949 431.59L433.21 433.95L426.609 459.8L395.339 457.43Z" fill="#98B1D6"/>
    <path d="M402.32 430.85C405.01 426.14 412.78 423.07 421.19 424.39C429.6 425.72 435.4 432.42 432.47 435.68C428.67 439.91 422.31 443.43 413.9 442.1C405.49 440.78 399.51 435.77 402.32 430.85Z" fill="#98B1D6"/>
    <path d="M416.306 436.152C417.832 435.984 418.953 434.81 418.811 433.531C418.668 432.252 417.315 431.353 415.789 431.521C414.263 431.69 413.142 432.863 413.284 434.142C413.427 435.421 414.78 436.321 416.306 436.152Z" fill="#192C3A"/>
    <path d="M413.24 433.79L414.31 428.59L419.78 429.16L418.7 434.36L413.24 433.79Z" fill="#192C3A"/>
    <path d="M419.774 429.158C419.858 428.14 418.702 427.214 417.194 427.09C415.686 426.967 414.396 427.692 414.312 428.71C414.229 429.729 415.384 430.654 416.892 430.778C418.401 430.902 419.691 430.176 419.774 429.158Z" fill="#192C3A"/>
    <path d="M244.17 433.73L245.72 429.94H383.32L381.99 434.2L244.17 433.73Z" fill="#6A8ABB"/>
    <path d="M248.98 423.49L250.54 419.7H388.57L387.23 423.97L248.98 423.49Z" fill="#6A8ABB"/>
    <path d="M239.8 443.54L241.36 439.75H380.26L378.91 444.01L239.8 443.54Z" fill="#6A8ABB"/>
    <path d="M235.42 453.77L237 449.98H376.76L375.4 454.25L235.42 453.77Z" fill="#6A8ABB"/>
    <path d="M230.61 464.43L232.19 460.64H372.82L371.46 464.91L230.61 464.43Z" fill="#6A8ABB"/>
    <path d="M338.5 450.76L341.95 451.54L337.61 464.26L333.83 463.34L338.5 450.76Z" fill="#6A8ABB"/>
    <path d="M316.18 450.76L319.63 451.54L315.29 464.26L311.51 463.34L316.18 450.76Z" fill="#6A8ABB"/>
    <path d="M354.25 439.67L357.7 440.45L353.36 453.17L349.58 452.25L354.25 439.67Z" fill="#6A8ABB"/>
    <path d="M362.57 430.7L366.01 431.5L361.94 443.41L358.16 442.48L362.57 430.7Z" fill="#6A8ABB"/>
    <path d="M352.94 463.13L356.39 463.91L352.05 476.62L348.27 475.7L352.94 463.13Z" fill="#6A8ABB"/>
    <path d="M334 462.39L337.72 463.26L333.44 475.77L329.35 474.75L334 462.39Z" fill="#6A8ABB"/>
    <path d="M351.89 468.17L352.27 470.77L334.22 470.66L333.89 467.79L351.89 468.17Z" fill="#6A8ABB"/>
    <path d="M317.59 461.75L321.31 462.62L317.03 475.13L312.94 474.11L317.59 461.75Z" fill="#6A8ABB"/>
    <path d="M369.35 420.76L372.78 421.58L369.1 432.31L365.33 431.35L369.35 420.76Z" fill="#6A8ABB"/>
    <path d="M351.41 419.91L354.84 420.73L351.16 431.45L347.39 430.5L351.41 419.91Z" fill="#6A8ABB"/>
    <path d="M342.66 431.85L346.09 432.67L342.41 443.4L338.64 442.44L342.66 431.85Z" fill="#6A8ABB"/>
    <path d="M330.49 440.2L333.8 441.42L327.96 453.09L324.34 451.69L330.49 440.2Z" fill="#6A8ABB"/>
    <path d="M334.34 420.34L337.78 421.16L334.1 431.88L330.33 430.92L334.34 420.34Z" fill="#6A8ABB"/>
    <path d="M323.28 431.87L326.67 432.88L322.39 443.39L318.68 442.24L323.28 431.87Z" fill="#6A8ABB"/>
    <path d="M307.97 441.26L311.35 442.26L307.08 452.77L303.37 451.62L307.97 441.26Z" fill="#6A8ABB"/>
    <path d="M297.59 432.28L301.02 433.1L297.34 443.82L293.57 442.87L297.59 432.28Z" fill="#6A8ABB"/>
    <path d="M314.65 422.04L318.09 422.86L314.4 433.59L310.64 432.63L314.65 422.04Z" fill="#6A8ABB"/>
    <path d="M293.21 420.76L296.65 421.58L292.96 432.31L289.19 431.35L293.21 420.76Z" fill="#6A8ABB"/>
    <path d="M278.33 421.62L281.77 422.44L278.09 433.16L274.32 432.2L278.33 421.62Z" fill="#6A8ABB"/>
    <path d="M263.392 640.65C264.842 638.37 266.362 636.3 267.812 634.02C268.832 632.42 268.412 630.11 266.882 628.94C265.352 627.77 262.932 627.9 261.542 629.23" fill="#1D1C1F"/>
    <path d="M263.392 640.65C264.842 638.37 266.362 636.3 267.812 634.02C268.832 632.42 268.412 630.11 266.882 628.94C265.352 627.77 262.932 627.9 261.542 629.23" stroke="black" stroke-miterlimit="10"/>
    <path d="M252.252 632.85C250.492 632.97 248.892 634.26 248.452 635.92C248.012 637.58 248.712 640.67 249.032 642.1C249.132 642.49 249.342 642.93 249.512 643.36C249.682 643.78 250.122 644.04 250.582 644C255.882 643.59 258.782 642.82 263.722 640.35" fill="#1D1C1F"/>
    <path d="M252.252 632.85C250.492 632.97 248.892 634.26 248.452 635.92C248.012 637.58 248.712 640.67 249.032 642.1C249.132 642.49 249.342 642.93 249.512 643.36C249.682 643.78 250.122 644.04 250.582 644C255.882 643.59 258.782 642.82 263.722 640.35" stroke="black" stroke-miterlimit="10"/>
    <path d="M263.282 640.09L263.272 632.37L256.542 635.92L263.282 640.09Z" fill="#1D1C1F"/>
    <path d="M309.362 645.71C311.142 643.34 312.992 641.16 314.772 638.78C316.022 637.11 315.652 634.79 313.952 633.67C312.252 632.55 309.452 632.8 307.802 634.2" fill="#1D1C1F"/>
    <path d="M309.362 645.71C311.142 643.34 312.992 641.16 314.772 638.78C316.022 637.11 315.652 634.79 313.952 633.67C312.252 632.55 309.452 632.8 307.802 634.2" stroke="black" stroke-miterlimit="10"/>
    <path d="M297.552 638.11C295.672 638.26 293.942 639.6 293.432 641.28C292.922 642.96 293.602 646.06 293.912 647.49C294.012 647.88 294.222 648.32 294.402 648.75C294.582 649.17 295.042 649.42 295.532 649.38C301.202 648.86 304.302 648.03 309.632 645.44" fill="#1D1C1F"/>
    <path d="M297.552 638.11C295.672 638.26 293.942 639.6 293.432 641.28C292.922 642.96 293.602 646.06 293.912 647.49C294.012 647.88 294.222 648.32 294.402 648.75C294.582 649.17 295.042 649.42 295.532 649.38C301.202 648.86 304.302 648.03 309.632 645.44" stroke="black" stroke-miterlimit="10"/>
    <path d="M309.302 645.51L309.622 634.09L299.162 639.62L309.302 645.51Z" fill="#1D1C1F"/>
    <path d="M244.962 627.42L252.472 612.02C252.502 611.97 252.632 611.97 252.762 612.02L264.472 616.72C264.602 616.77 264.692 616.86 264.672 616.91L257.442 631.61C257.412 631.66 257.132 632.5 256.992 632.45L244.862 628.09C244.722 628.05 244.932 627.48 244.962 627.42Z" fill="#2C4F85"/>
    <path d="M289.462 632.75L293.072 616.09C293.082 616.03 293.212 616 293.352 616.03L305.872 617.99C306.012 618.01 306.122 618.08 306.112 618.13L302.612 634.05C302.602 634.11 302.522 634.99 302.382 634.96L289.542 633.43C289.392 633.41 289.452 632.81 289.462 632.75Z" fill="#2C4F85"/>
    <path d="M259.162 627.97L253.682 611.38C253.662 611.32 253.762 611.24 253.892 611.19L265.612 607.03C265.752 606.98 265.872 606.99 265.892 607.05L271.072 622.92C271.092 622.98 271.472 623.8 271.342 623.85L259.562 628.54C259.432 628.6 259.182 628.03 259.162 627.97Z" fill="#2C4F85"/>
    <path d="M302.782 633.89L296.392 617.61C296.372 617.55 296.462 617.46 296.592 617.41L308.062 612.65C308.192 612.6 308.322 612.6 308.342 612.65L314.402 628.23C314.422 628.29 314.852 629.09 314.722 629.14L303.222 634.44C303.082 634.5 302.802 633.95 302.782 633.89Z" fill="#2C4F85"/>
    <path d="M251.712 633.38L247.992 570.47C247.982 570.25 248.072 570.07 248.192 570.06L259.112 569.08C259.242 569.07 259.352 569.23 259.362 569.45L262.872 629.6C262.882 629.76 263.032 631.48 263.072 632.44C263.082 632.8 263.462 632.74 263.012 632.85C263.012 632.85 261.682 634.66 258.082 635.57C253.952 636.62 252.032 635.82 252.032 635.82C251.912 635.83 251.722 633.6 251.712 633.38Z" fill="#BF7245"/>
    <path d="M244.592 625.56L240.872 564.28C240.862 564.07 241.072 563.88 241.352 563.85L265.632 561.64C265.912 561.61 266.152 561.76 266.162 561.98L269.612 620.57C269.622 620.78 270.032 623.93 269.752 623.96L245.142 627.92C244.862 627.94 244.612 625.77 244.592 625.56Z" fill="#223E67"/>
    <path d="M291.852 630.36L297.532 617.6C297.552 617.56 297.652 617.55 297.752 617.59L306.502 620.79C306.602 620.83 306.672 620.89 306.652 620.94L301.192 633.12C301.172 633.16 300.952 633.85 300.852 633.81L291.782 630.9C291.682 630.87 291.832 630.4 291.852 630.36Z" fill="#233E66"/>
    <path d="M301.162 632.68L294.822 619.34C294.802 619.29 294.892 619.2 295.022 619.14L306.272 613.5C306.402 613.43 306.522 613.42 306.542 613.47L312.552 626.25C312.572 626.3 313.002 626.94 312.872 627L301.602 633.12C301.462 633.17 301.182 632.73 301.162 632.68Z" fill="#233E66"/>
    <path d="M296.502 636.82L294.312 573.48C294.302 573.26 294.412 573.07 294.542 573.06L306.392 571.88C306.532 571.87 306.642 572.03 306.652 572.25L308.692 632.81C308.702 633.03 308.912 636.29 308.782 636.31C308.782 636.31 307.612 638.92 302.972 639.69C298.732 640.39 296.782 639.28 296.782 639.28C296.642 639.29 296.512 637.04 296.502 636.82Z" fill="#BF7245"/>
    <path d="M291.372 628.44L288.632 565.8C288.622 565.58 288.812 565.39 289.042 565.36L309.742 563.17C309.982 563.14 310.182 563.3 310.192 563.51L312.722 623.41C312.732 623.63 313.052 626.85 312.812 626.87L291.812 630.84C291.582 630.87 291.382 628.66 291.372 628.44Z" fill="#223E67"/>
    <path d="M243.572 627.43L242.692 622.39C242.602 621.88 242.962 621.39 243.492 621.31C243.492 621.31 248.042 622.38 256.652 621.16C266.132 619.82 269.932 617.01 269.932 617.01C270.462 616.92 270.962 617.27 271.052 617.78L271.932 622.82C272.022 623.33 271.662 623.82 271.132 623.9L244.692 628.2C244.162 628.29 243.662 627.95 243.572 627.43Z" fill="#305285"/>
    <path d="M243.582 627.54L242.802 623.1C242.802 623.1 252.862 623.66 256.082 623.03C265.702 621.16 271.162 618.49 271.162 618.49L271.932 622.87C272.022 623.36 271.672 623.83 271.162 623.91L244.572 628.23C244.112 628.3 243.662 627.99 243.582 627.54Z" fill="#4077C9"/>
    <path d="M289.372 632.67L288.492 627.63C288.402 627.12 288.722 626.64 289.202 626.56C289.202 626.56 293.342 627.7 301.132 626.61C309.702 625.42 313.102 622.67 313.102 622.67C313.582 622.59 314.042 622.94 314.132 623.46L315.012 628.5C315.102 629.01 314.782 629.49 314.302 629.57L290.402 633.46C289.922 633.54 289.462 633.19 289.372 632.67Z" fill="#305285"/>
    <path d="M289.392 632.78L288.612 628.34C288.612 628.34 297.742 629.05 300.652 628.47C309.342 626.75 314.252 624.17 314.252 624.17L315.022 628.55C315.112 629.04 314.802 629.5 314.342 629.58L290.312 633.49C289.882 633.55 289.472 633.23 289.392 632.78Z" fill="#4077C9"/>
    <path d="M200.329 466.26L198.979 429.69C198.979 427.03 199.269 421.77 201.969 418.28C204.869 414.54 210.279 412.66 213.019 412.66L273.319 412.06C275.829 412.06 280.619 414.18 283.149 416.49C285.989 419.09 287.369 422.76 287.369 425.66L288.529 467.06C288.529 472.57 281.909 476.24 276.609 476.24H209.929C204.619 476.24 200.329 471.77 200.329 466.26Z" fill="#3C8697"/>
    <path d="M167.211 685.53L182.708 584.48L194.813 586.12L179.326 687.06C179.121 688.39 177.819 689.31 176.404 689.11L169.281 688.14C167.949 687.96 167.016 686.79 167.211 685.53Z" fill="#2C485A"/>
    <path d="M333.325 675.41L318.248 577.15C318.033 575.75 316.649 574.77 315.163 574.98L308.46 575.89C306.974 576.09 305.938 577.39 306.154 578.8L321.231 677.06C321.446 678.46 322.83 679.44 324.316 679.23L331.019 678.32C332.516 678.11 333.54 676.81 333.325 675.41Z" fill="#2C485A"/>
    <path d="M376.209 651.08L358.057 559.6C357.914 558.89 357.176 558.44 356.438 558.62L349.069 560.33C348.382 560.49 347.951 561.12 348.085 561.77L366.237 653.25C366.38 653.96 367.118 654.41 367.856 654.23L375.225 652.52C375.912 652.37 376.343 651.74 376.209 651.08Z" fill="#2C485A"/>
    <path d="M206.149 626.7L218.838 531.81L230.963 532.62L219.319 627.74C219.237 628.42 218.602 628.91 217.884 628.87L207.491 628.23C206.661 628.18 206.046 627.48 206.149 626.7Z" fill="#2C485A"/>
    <path d="M322.758 592.36L357.299 560.54C361.091 557.05 358.56 550.83 353.343 550.83H284.261C279.054 550.83 276.522 557.05 280.304 560.54L314.845 592.36C317.069 594.41 320.544 594.41 322.758 592.36Z" fill="#2F4959"/>
    <path d="M308.47 550.21C305.139 546.02 304.657 546.77 309.567 545.24C313.082 544.15 319.078 542.13 323.024 544.43C326.971 546.73 327.022 548.92 326.479 552.98C325.484 560.39 324.634 561.93 322.327 568.01L308.47 550.21Z" fill="#2E5186"/>
    <path d="M175.625 579.59L191.031 452.36C191.031 446.95 195.192 442.56 200.337 442.56H291.036C296.171 442.56 300.342 446.95 300.342 452.36L328.262 580.75C329.543 586.58 325.392 594.1 320.257 594.1L182.728 592.48C171.372 592.3 175.379 584.28 175.625 579.59Z" fill="#192C3A"/>
    <path d="M275.81 434.69C274.13 442.53 269.99 449.4 264.31 454.32C258.22 459.6 250.37 462.66 241.89 462.33C225.49 461.69 208.63 449.9 206.38 433.43C216.3 435.81 220.31 424.33 219.85 420.11C219.39 415.89 216.22 412.56 214.43 408.72C212.64 404.88 213.13 399.02 217.18 397.93C225.34 392.17 228.97 380.78 226.52 370.64C223.79 359.33 229.14 346.51 239.05 340.61C248.96 334.71 262.61 336.21 270.77 344.42C276.95 358.54 276.27 375.55 269.13 388.05C266.06 396.25 270.91 403.7 275.4 411.21C281.04 420.64 275.79 435.6 275.81 434.69Z" fill="#281D0F"/>
    <path d="M179.908 344.88C186.008 338.75 192.098 332.62 198.198 326.49C200.488 341.49 194.508 357.06 183.088 366.94C178.668 366.97 174.248 367.01 169.828 367.04" fill="#297842"/>
    <path d="M182.728 317C182.728 317 188.568 350.89 170.318 367.15C166.508 349.94 171.498 331.82 182.728 317Z" fill="#1C6132"/>
    <path d="M180.728 319.75C180.728 319.75 185.628 351.9 170.328 367.33C167.138 351 171.318 333.81 180.728 319.75Z" fill="#297842"/>
    <path d="M150.338 341.87C149.638 338.29 145.688 337.48 142.158 336.81C135.678 335.57 131.358 335.57 128.158 331.12C133.848 343.08 130.728 336.67 134.958 344.57C136.378 347.22 137.348 349.27 139.448 352.85C141.078 355.62 142.028 357.58 146.368 361.86C150.248 365.03 162.778 368.59 167.348 368.63" fill="#226136"/>
    <path d="M153.648 345.68C152.978 342.75 145.598 340.19 142.228 339.64C136.028 338.63 134.238 336.88 132.018 336.05C137.458 345.82 134.898 341.01 138.938 347.47C140.298 349.64 140.608 350.76 142.618 353.68C144.178 355.95 145.698 358.1 149.858 361.6C153.568 364.19 165.548 367.1 169.918 367.13" fill="#297842"/>
    <path d="M170.008 367.13C172.888 358.37 173.178 348.35 168.488 340.14C163.788 331.92 155.458 325.14 146.728 321.7C145.618 338.95 153.188 356.9 170.008 367.13Z" fill="#226136"/>
    <path d="M169.728 367.13C171.808 359.65 172.018 351.1 168.628 344.08C165.238 337.06 159.208 331.28 152.908 328.34C152.108 343.07 157.578 358.39 169.728 367.13Z" fill="#297842"/>
    <path d="M198.618 332.02C195.598 338.42 192.608 345.39 188.058 351.73C184.268 357.02 178.858 361.67 176.338 367C177.348 366.95 184.008 367.12 185.028 367.07C188.848 362.86 192.548 357.86 194.828 352.4C197.498 346.05 198.448 339.08 198.618 332.02Z" fill="#226136"/>
    <path d="M145.198 366.42C160.458 366.65 152.238 366.42 168.328 366.42C184.418 366.42 185.778 366.63 197.028 366.84C204.318 366.98 193.918 386.48 190.338 395.25C187.208 402.91 183.118 400.94 171.758 401.12C160.308 401.3 157.408 402.66 152.918 391.82C151.228 387.75 140.428 366.35 145.198 366.42Z" fill="#CAE8EE"/>
    <defs>
        <linearGradient id="paint0_linear" x1="78.3802" y1="148.744" x2="66.383" y2="143.401" gradientUnits="userSpaceOnUse">
            <stop/>
            <stop offset="0.5304" stop-color="#020202"/>
            <stop offset="0.7214" stop-color="#090808"/>
            <stop offset="0.8575" stop-color="#141414"/>
            <stop offset="0.9668" stop-color="#252424"/>
            <stop offset="1" stop-color="#2C2A2A"/>
        </linearGradient>
        <linearGradient id="paint1_linear" x1="27.9178" y1="143.245" x2="77.9495" y2="138.112" gradientUnits="userSpaceOnUse">
            <stop/>
            <stop offset="0.4157" stop-color="#020202"/>
            <stop offset="0.5654" stop-color="#090808"/>
            <stop offset="0.6721" stop-color="#141414"/>
            <stop offset="0.7585" stop-color="#252424"/>
            <stop offset="0.8324" stop-color="#3B3939"/>
            <stop offset="0.8979" stop-color="#575252"/>
            <stop offset="0.9556" stop-color="#767070"/>
            <stop offset="1" stop-color="#948D8D"/>
        </linearGradient>
    </defs>
</svg>
