<svg width="95" height="92" viewBox="0 0 95 92" fill="none" xmlns="http://www.w3.org/2000/svg">
    <path d="M93.7677 27.0387C93.5474 22.1689 92.7395 18.8209 91.5822 15.9199C90.3883 12.8405 88.5515 10.0835 86.145 7.79162C83.7938 5.46406 80.9468 3.65545 77.8243 2.50985C74.8309 1.38174 71.4142 0.594234 66.4183 0.379522C61.3851 0.146626 59.7872 0.0927734 47.0216 0.0927734C34.256 0.0927734 32.6581 0.146626 27.6436 0.361338C22.6476 0.57605 19.213 1.36426 16.2376 2.49167C13.0777 3.65545 10.2494 5.44588 7.89816 7.79162C5.51034 10.0835 3.65562 12.8587 2.47965 15.9024C1.32234 18.8209 0.514442 22.1507 0.294172 27.0206C0.0552469 31.9268 0 33.4843 0 45.9278C0 58.3713 0.0552469 59.9288 0.275517 64.8168C0.495787 69.6866 1.3044 73.0346 2.46172 75.9356C3.65562 79.015 5.51034 81.772 7.89816 84.0639C10.2494 86.3915 13.0964 88.2001 16.2189 89.3457C19.213 90.4738 22.629 91.2613 27.6256 91.476C32.6395 91.6914 34.238 91.7446 47.0037 91.7446C59.7693 91.7446 61.3671 91.6914 66.3817 91.476C71.3776 91.2613 74.8122 90.4738 77.7877 89.3457C84.1066 86.9643 89.1025 82.0944 91.5456 75.9356C92.7022 73.0171 93.5108 69.6866 93.7311 64.8168C93.9513 59.9288 94.0066 58.3713 94.0066 45.9278C94.0066 33.4843 93.9879 31.9268 93.7677 27.0387ZM85.3005 64.4587C85.0982 68.9348 84.3269 71.3519 83.684 72.9633C82.1041 76.9561 78.8531 80.125 74.757 81.665C73.1039 82.2917 70.6063 83.0435 66.0323 83.24C61.073 83.4555 59.5856 83.5086 47.0402 83.5086C34.4949 83.5086 32.9889 83.4555 28.0475 83.24C23.4555 83.0435 20.9759 82.2917 19.3228 81.665C17.2844 80.9307 15.429 79.7669 13.9229 78.245C12.3617 76.7588 11.1678 74.9684 10.4144 72.9814C9.77153 71.37 9.00023 68.9348 8.79861 64.4769C8.57762 59.6427 8.52309 58.1922 8.52309 45.9634C8.52309 33.7347 8.57762 32.2667 8.79861 27.4507C9.00023 22.9746 9.77153 20.5575 10.4144 18.9461C11.1678 16.9585 12.3617 15.1506 13.9416 13.6819C15.4656 12.16 17.3023 10.9962 19.3414 10.2626C20.9945 9.6359 23.4929 8.88406 28.0662 8.68684C33.0255 8.47212 34.5135 8.41827 47.0582 8.41827C59.6222 8.41827 61.1096 8.47212 66.0509 8.68684C70.6429 8.88406 73.1225 9.6359 74.7756 10.2626C76.814 10.9962 78.6695 12.16 80.1755 13.6819C81.7367 15.168 82.9306 16.9585 83.684 18.9461C84.3269 20.5575 85.0982 22.9921 85.3005 27.4507C85.5208 32.2848 85.576 33.7347 85.576 45.9634C85.576 58.1922 85.5208 59.6246 85.3005 64.4587Z" fill="current"/>
    <path d="M47.0217 22.3833C33.6871 22.3833 22.868 32.9287 22.868 45.9274C22.868 58.9262 33.6871 69.4716 47.0217 69.4716C60.357 69.4716 71.1754 58.9262 71.1754 45.9274C71.1754 32.9287 60.357 22.3833 47.0217 22.3833ZM47.0217 61.2C38.3709 61.2 31.3538 54.3607 31.3538 45.9274C31.3538 37.4942 38.3709 30.6549 47.0217 30.6549C55.6732 30.6549 62.6896 37.4942 62.6896 45.9274C62.6896 54.3607 55.6732 61.2 47.0217 61.2Z" fill="current"/>
    <path d="M77.7704 21.4535C77.7704 24.4889 75.2456 26.95 72.1309 26.95C69.017 26.95 66.4921 24.4889 66.4921 21.4535C66.4921 18.4175 69.017 15.957 72.1309 15.957C75.2456 15.957 77.7704 18.4175 77.7704 21.4535Z" fill="current"/>
</svg>
