<svg width="92" height="81" viewBox="0 0 92 81" fill="none" xmlns="http://www.w3.org/2000/svg">
<path d="M20.477 80.1756H1.62516V26.6917H20.477V80.1756ZM11.0511 19.5414C4.87548 19.5414 0 14.9653 0 9.81711C0 4.66893 4.87548 0.0927734 11.0511 0.0927734C17.2267 0.0927734 22.1022 4.38292 22.1022 9.81711C21.7772 14.9653 16.9017 19.5414 11.0511 19.5414ZM91.009 80.1756H72.1572V54.1487C72.1572 47.8564 72.1572 40.1342 62.4062 40.1342C52.6552 40.1342 51.0301 46.9984 51.0301 53.8626V80.1756H32.1782V26.6917H50.38V34.128H50.705C53.3053 29.8378 59.4809 25.5477 68.5818 25.5477C87.7587 25.5477 91.3341 36.702 91.3341 51.0025L91.009 80.1756Z" fill="current"/>
</svg>
