<svg width="107" height="91" viewBox="0 0 107 91" fill="none" xmlns="http://www.w3.org/2000/svg">
    <path d="M2.84237 83.007V12.5435L46.1059 46.3845L2.84237 83.007Z" fill="current" stroke="current" stroke-width="4"/>
    <path d="M104 82.0928L103.522 13.0928L61 46.2128L104 82.0928Z" fill="current" stroke="current" stroke-width="4"/>
    <path d="M54.771 25.8826C55.181 25.4051 55.9249 25.4205 56.3148 25.9146L104.097 86.4736C104.614 87.1294 104.147 88.093 103.312 88.093L3.53017 88.093C2.67541 88.093 2.21464 87.0901 2.77149 86.4416L54.771 25.8826Z" fill="current" stroke="current" stroke-width="4"/>
    <path d="M59.2364 54.7227C55.8463 57.7121 50.7649 57.7234 47.3615 54.7492L5.881 18.4988C-0.378562 13.0285 3.49034 2.72195 11.8033 2.72195L94.3937 2.72195C102.687 2.72195 106.566 12.9873 100.346 18.4724L59.2364 54.7227Z" fill="current" stroke="current" stroke-width="4"/>
</svg>
