<svg width="86" height="101" viewBox="0 0 86 101" fill="none" xmlns="http://www.w3.org/2000/svg">
<g filter="url(#filter0_d_1715_284)">
<path d="M39.722 37.08V45H7.98195V38.7L24.182 23.4C25.902 21.76 27.062 20.36 27.662 19.2C28.262 18 28.562 16.82 28.562 15.66C28.562 13.98 27.982 12.7 26.822 11.82C25.702 10.9 24.042 10.44 21.842 10.44C20.002 10.44 18.342 10.8 16.862 11.52C15.382 12.2 14.142 13.24 13.142 14.64L6.06195 10.08C7.70195 7.64 9.96195 5.74 12.842 4.38C15.722 2.98 19.022 2.28 22.742 2.28C25.862 2.28 28.582 2.8 30.902 3.84C33.262 4.84 35.082 6.28 36.362 8.16C37.682 10 38.342 12.18 38.342 14.7C38.342 16.98 37.862 19.12 36.902 21.12C35.942 23.12 34.082 25.4 31.322 27.96L21.662 37.08H39.722ZM61.6154 45.72C58.1354 45.72 55.0354 44.86 52.3154 43.14C49.5954 41.42 47.4554 38.94 45.8954 35.7C44.3754 32.42 43.6154 28.52 43.6154 24C43.6154 19.48 44.3754 15.6 45.8954 12.36C47.4554 9.08 49.5954 6.58 52.3154 4.86C55.0354 3.14 58.1354 2.28 61.6154 2.28C65.0954 2.28 68.1954 3.14 70.9154 4.86C73.6354 6.58 75.7554 9.08 77.2754 12.36C78.8354 15.6 79.6154 19.48 79.6154 24C79.6154 28.52 78.8354 32.42 77.2754 35.7C75.7554 38.94 73.6354 41.42 70.9154 43.14C68.1954 44.86 65.0954 45.72 61.6154 45.72ZM61.6154 37.5C64.1754 37.5 66.1754 36.4 67.6154 34.2C69.0954 32 69.8354 28.6 69.8354 24C69.8354 19.4 69.0954 16 67.6154 13.8C66.1754 11.6 64.1754 10.5 61.6154 10.5C59.0954 10.5 57.0954 11.6 55.6154 13.8C54.1754 16 53.4554 19.4 53.4554 24C53.4554 28.6 54.1754 32 55.6154 34.2C57.0954 36.4 59.0954 37.5 61.6154 37.5ZM48.2766 83.08V91H16.5366V84.7L32.7366 69.4C34.4566 67.76 35.6166 66.36 36.2166 65.2C36.8166 64 37.1166 62.82 37.1166 61.66C37.1166 59.98 36.5366 58.7 35.3766 57.82C34.2566 56.9 32.5966 56.44 30.3966 56.44C28.5566 56.44 26.8966 56.8 25.4166 57.52C23.9366 58.2 22.6966 59.24 21.6966 60.64L14.6166 56.08C16.2566 53.64 18.5166 51.74 21.3966 50.38C24.2766 48.98 27.5766 48.28 31.2966 48.28C34.4166 48.28 37.1366 48.8 39.4566 49.84C41.8166 50.84 43.6366 52.28 44.9166 54.16C46.2366 56 46.8966 58.18 46.8966 60.7C46.8966 62.98 46.4166 65.12 45.4566 67.12C44.4966 69.12 42.6366 71.4 39.8766 73.96L30.2166 83.08H48.2766ZM68.4873 49V91H58.7673V56.8H50.3673V49H68.4873Z" fill="current"/>
</g>
<defs>
<filter id="filter0_d_1715_284" x="0.0620117" y="0.280029" width="85.5533" height="100.72" filterUnits="userSpaceOnUse" color-interpolation-filters="sRGB">
<feFlood flood-opacity="0" result="BackgroundImageFix"/>
<feColorMatrix in="SourceAlpha" type="matrix" values="0 0 0 0 0 0 0 0 0 0 0 0 0 0 0 0 0 0 127 0" result="hardAlpha"/>
<feComposite in2="hardAlpha" operator="out"/>
<feBlend mode="normal" in2="BackgroundImageFix" result="effect1_dropShadow_1715_284"/>
<feBlend mode="normal" in="SourceGraphic" in2="effect1_dropShadow_1715_284" result="shape"/>
</filter>
</defs>
</svg>
