<svg width="90" height="74" viewBox="0 0 90 74" fill="none" xmlns="http://www.w3.org/2000/svg">
<path d="M89.4112 8.76338C86.1215 10.234 82.5861 11.228 78.8754 11.675C82.663 9.38645 85.5714 5.76274 86.9411 1.44507C83.3969 3.56385 79.471 5.10274 75.2926 5.93219C71.9463 2.33847 67.179 0.0927734 61.903 0.0927734C51.7721 0.0927734 43.5587 8.37173 43.5587 18.5832C43.5587 20.0324 43.7212 21.4437 44.0339 22.797C28.7883 22.0259 15.2718 14.6644 6.22435 3.47748C4.64537 6.20845 3.74076 9.3848 3.74076 12.7735C3.74076 19.1885 6.9795 24.8482 11.9016 28.164C8.89436 28.0681 6.06606 27.2363 3.59261 25.8514C3.5913 25.9285 3.5913 26.006 3.5913 26.0838C3.5913 35.0429 9.91441 42.5165 18.3061 44.2149C16.7667 44.6375 15.1462 44.8634 13.473 44.8634C12.2911 44.8634 11.1418 44.7477 10.022 44.5317C12.3561 51.8781 19.1306 57.224 27.1576 57.3733C20.8796 62.3325 12.97 65.2886 4.37588 65.2886C2.89534 65.2886 1.43508 65.2013 0 65.0305C8.11795 70.2768 17.7603 73.3378 28.1195 73.3378C61.8602 73.3378 80.3108 45.1621 80.3108 20.7274C80.3108 19.9256 80.2932 19.1281 80.2579 18.3353C83.8416 15.7283 86.9519 12.4715 89.4112 8.76338Z" fill="current"/>
</svg>
