<svg viewBox="3 0 1438 479" fill="none" xmlns="http://www.w3.org/2000/svg">
    <path d="M1441 1H1V321.461H1441V1Z" fill="#FFEBAD"/>
    <path d="M0.973389 91.5503C52.1066 53.5128 158.812 81.8062 207.66 202.802C236.396 273.983 70.6746 379.898 0.973389 379.898V91.5503V91.5503Z" fill="#FCB36A"/>
    <path d="M0.213279 266.566C-6.58672 185.802 150.423 113.059 298.483 123.75C457.213 135.214 778.213 234.072 778.213 314.218L0.213279 266.566Z" fill="#DE575B"/>
    <path d="M1293.69 386.354C1180.11 372.761 853.773 355.969 861.613 271.751C866.293 221.494 1042.07 230.994 1130.35 137.189C1200.54 62.6034 1403.39 49.3356 1445 67C1457.24 72.1967 1444.92 119.202 1445 130.5C1445.13 149.334 1440.08 160.171 1440.52 173.224C1442.12 220.457 1429.07 256.9 1435.3 288.412C1450.55 365.546 1407.27 399.947 1293.69 386.354Z" fill="#CF907A"/>
    <path d="M920 0.928574C920 53.9437 875 96.9186 819.5 96.9186C764 96.9186 719 53.9437 719 0.928574H920V0.928574Z" fill="#FFC457"/>
    <path d="M1441 252H1V415H1441V252Z" fill="#FFF2D9"/>
    <path d="M952.874 414.677C952.874 414.677 1170.83 315.134 1236.83 238.728C1316.44 146.567 1377.41 136.262 1441.1 162.223L1441.28 413.287L952.874 414.677Z" fill="#CF7A7D"/>
</svg>
