<svg preserveAspectRatio="none" viewBox="33 0 1454 665" fill="none" xmlns="http://www.w3.org/2000/svg">
    <path d="M0.373535 660.607L3.27675 36.2881C3.27675 36.2881 -11.3708 -32.5302 123.998 19.3745C283.715 80.6223 301.003 132.335 588.775 174.565C828.771 209.781 735.403 365.196 907.32 389.093C1004.68 402.632 1064.03 503.623 1206.56 523.142C1412 551.267 1453.61 666.299 1453.61 666.299L0.373535 660.607Z" fill="#DAEFF0"/>
    <path d="M0.373535 660.736L2.56865 50.6924C2.56865 50.6924 10.6005 -6.44445 112.81 44.275C233.4 104.113 202.263 172.996 456.087 220.715C637.331 254.788 627.6 344.748 750.819 399.109C814.154 427.052 828.569 513.008 937.04 522.736C1133.6 540.365 1097.6 666.299 1097.6 666.299L0.373535 660.736Z" fill="#A5D6D9"/>
    <path d="M0.373535 661.035L2.20448 83.6976C2.20448 83.6976 8.93144 29.6253 94.4903 77.6219C195.445 134.257 197.377 223.854 409.858 269.01C561.584 301.257 482.196 371.752 585.346 423.198C638.363 449.647 691.582 524.743 738.691 545.085C876.791 604.709 847.667 666.299 847.667 666.299L0.373535 661.035Z" fill="#8ACCCF"/>
    <path d="M0.373535 664.58L1.8909 121.326C1.8909 121.326 -2.03401 77.5684 78.295 115.613C165.22 156.776 90.4946 235.407 266.407 277.905C392.014 308.251 401.786 431.195 487.183 479.608C662.752 579.147 643.957 666.299 643.957 666.299L0.373535 664.58Z" fill="#69A6B3"/>
    <path d="M0.566677 666.299V208.969C0.566677 208.969 -8.86119 97.5894 49.193 131.598C112.022 168.404 97.2529 266.672 208.222 324.375C267.359 355.127 244.771 424.575 319.465 456.31C469.401 520.024 509.671 666.299 509.671 666.299H0.566677Z" fill="#82BFC2"/>
</svg>
