<svg width="320" height="426" viewBox="0 0 320 426" fill="none" xmlns="http://www.w3.org/2000/svg">
    <g filter="url(#landing_visual_filter0_d)">
        <path d="M42.3811 295H33.3811V412H42.3811V295Z" fill="#476F8C"/>
        <path d="M280.381 301H270.381V418H280.381V301Z" fill="#476F8C"/>
        <path d="M4.45622 310.365L33.5124 203.316C33.7723 202.119 34.5672 201.303 35.4721 201.303L285.319 200.47C286.229 200.47 287.029 201.287 287.289 202.491L315.27 311.052C315.665 312.872 314.79 334 313.415 334L6.65593 329.294C5.28611 329.302 4.06127 312.184 4.45622 310.365Z" fill="#457395"/>
        <path d="M4.69194 310.842L10.7061 303.621L35.2879 215.574C35.5429 214.507 36.3178 213.779 37.1976 213.771L280.6 213.027C281.485 213.027 282.265 213.755 282.52 214.83L307.422 305.885L315.291 310.656C315.676 312.281 314.786 333.911 313.446 333.911L4.69194 333C3.35212 333.024 4.30199 312.467 4.69194 310.842Z" fill="#152A39"/>
        <path d="M10.6354 304.195L37.3718 208.523C37.6218 207.626 38.3817 207.019 39.2466 207.011L281.779 205.604C282.649 205.604 284.409 208.184 284.659 209.081L306.921 304.195C307.301 305.554 306.356 306.929 305.041 306.929H12.5151C11.2003 306.937 10.2554 305.562 10.6354 304.195Z" fill="#2B4960"/>
        <g opacity="0.7" filter="url(#landing_visual_filter1_d)">
            <path fill-rule="evenodd" clip-rule="evenodd" d="M227.936 243.803C225.033 250.073 217.869 255.833 207.349 260.353L207.31 260.337C203.612 261.964 200.641 263.911 198.571 266.068C196.89 267.819 195.831 269.679 195.426 271.577H195.449C195.449 271.973 195.384 272.354 195.263 272.71C195.245 272.944 195.237 273.179 195.239 273.414L194.931 273.414C194.313 274.42 193.203 275.091 191.936 275.091H187.122L147.844 280.361H176.823L177.191 280.302C177.549 280.245 177.95 280.27 178.35 280.361H178.917C179.597 280.361 180.164 280.843 180.294 281.484C180.886 282.232 180.596 282.948 179.617 283.104L150.622 287.739H173.194C173.97 287.739 174.599 288.368 174.599 289.144C174.599 289.92 173.97 290.549 173.194 290.549H133.037L131.432 290.806C130.885 290.893 130.234 290.788 129.646 290.549H128.582C127.806 290.549 127.176 289.92 127.176 289.144C127.176 288.368 127.806 287.739 128.582 287.739H130.662L159.238 283.171H126.896L125.698 283.332C125.29 283.387 124.831 283.323 124.394 283.171H123.676C122.9 283.171 122.27 282.542 122.27 281.766C122.27 280.99 122.9 280.361 123.676 280.361H124.498L163.776 275.091H117.608C116.458 275.091 115.438 274.539 114.797 273.685H113.996C113.996 271.039 112.73 268.424 110.287 266.028C108.073 263.856 104.94 261.911 101.078 260.306L100.968 260.353C90.4478 255.833 83.2836 250.073 80.3811 243.803C77.4786 237.533 78.9683 231.034 84.6617 225.128C90.3551 219.222 99.9966 214.174 112.367 210.622C124.737 207.07 139.281 205.174 154.158 205.174C169.036 205.174 183.58 207.07 195.95 210.622C208.32 214.174 217.962 219.222 223.655 225.128C229.348 231.034 230.838 237.533 227.936 243.803ZM192.406 264.813C190.345 266.96 189.082 269.247 188.658 271.577L159.064 271.577V247.432C167.984 246.488 174.599 243.027 174.599 238.903C174.599 234.052 165.448 230.119 154.158 230.119C142.869 230.119 133.717 234.052 133.717 238.903C133.717 243.152 140.74 246.697 150.07 247.511V271.577L120.406 271.577C119.889 269.209 118.503 266.893 116.298 264.73C113.788 262.268 110.271 260.056 105.947 258.214L106.032 258.177C96.5138 254.087 90.0316 248.876 87.4055 243.203C84.7793 237.53 86.1272 231.65 91.2785 226.306C96.4299 220.962 105.153 216.394 116.346 213.181C127.538 209.967 140.697 208.252 154.158 208.252C167.62 208.252 180.778 209.967 191.971 213.181C203.163 216.394 211.887 220.962 217.038 226.306C222.19 231.65 223.537 237.53 220.911 243.203C218.285 248.876 211.803 254.087 202.285 258.177L202.376 258.217C198.168 260.099 194.782 262.338 192.406 264.813ZM154.158 244.176C147.381 244.176 141.887 241.815 141.887 238.903C141.887 235.991 147.381 233.63 154.158 233.63C160.936 233.63 166.43 235.991 166.43 238.903C166.43 241.815 160.936 244.176 154.158 244.176Z" fill="url(#landing_visual_paint0_linear)" fill-opacity="0.5" shape-rendering="crispEdges"/>
        </g>
        <path d="M57.3343 184.173V67.694C57.3343 66.6192 58.2942 65.7497 59.4808 65.7497H243.552C244.739 65.7497 245.699 66.6192 245.699 67.694V184.173C245.699 185.248 244.739 186.117 243.552 186.117H59.4808C58.2942 186.111 57.3343 185.242 57.3343 184.173Z" fill="#212F3D"/>
        <path d="M64.5604 173.129V80.0182C64.5604 76.3711 67.8268 73.4123 71.8531 73.4123H229.74C233.766 73.4123 237.033 76.3711 237.033 80.0182V173.135C237.033 176.782 233.766 179.741 229.74 179.741H71.8464C67.8201 179.735 64.5604 176.776 64.5604 173.129Z" fill="#C5CCE6" stroke="black" stroke-width="0.641591" stroke-miterlimit="10"/>
        <path d="M138.534 221.055L146.774 186.727C146.874 186.322 147.234 186.039 147.647 186.039H168.985C169.545 186.039 170.045 186.401 170.218 186.938L180.991 220.614C181.204 221.278 180.704 221.96 180.011 221.96H139.254C138.774 221.96 138.421 221.514 138.534 221.055Z" fill="#29394A"/>
        <path d="M137.481 220.753L145.107 186.715C145.194 186.316 145.534 186.033 145.914 186.033H165.665C166.185 186.033 166.645 186.395 166.805 186.926L176.778 220.318C176.978 220.976 176.518 221.653 175.871 221.653H138.148C137.701 221.653 137.374 221.212 137.481 220.753Z" fill="#6D8394"/>
        <path d="M126.062 227.178V221.665C126.062 221.405 126.295 221.2 126.575 221.2H188.097C188.383 221.2 188.61 221.411 188.61 221.665V227.178C188.61 227.437 188.377 227.643 188.097 227.643H126.575C126.295 227.643 126.062 227.437 126.062 227.178Z" fill="#212F3D"/>
        <path d="M65.0621 174.942V90.9066C65.0621 88.063 67.6123 85.7529 70.7516 85.7529H232.281C235.421 85.7529 237.971 88.063 237.971 90.9066V174.942C237.971 177.786 235.421 180.096 232.281 180.096H70.7516C67.6056 180.096 65.0621 177.792 65.0621 174.942Z" fill="#B2B2FB" stroke="black" stroke-width="0.644236" stroke-miterlimit="10"/>
        <path d="M75.2898 84.6373L80.4037 76.5732C80.4037 76.1185 81.7625 74.4996 82.3449 74.4996H107.399C107.981 74.4996 108.457 74.8695 108.457 75.3242L113.57 85.189C113.57 85.6438 113.095 85.6013 112.513 85.6013L76.3407 85.4619C75.7651 85.4619 75.2898 85.092 75.2898 84.6373Z" fill="white" stroke="black" stroke-width="0.644236" stroke-miterlimit="10"/>
        <path d="M114.106 84.9464L119.22 76.8823C119.22 76.4276 120.579 74.8087 121.161 74.8087H146.215C146.797 74.8087 147.273 75.1786 147.273 75.6333L152.387 85.4981C152.387 85.9529 151.911 85.9104 151.329 85.9104L115.157 85.771C114.581 85.771 114.106 85.4011 114.106 84.9464Z" fill="#141414" stroke="black" stroke-width="0.644236" stroke-miterlimit="10"/>
        <path d="M71.2202 173.827V96.1088C71.2202 94.7507 72.4317 93.6532 73.9311 93.6532H123.557C125.057 93.6532 126.268 94.7507 126.268 96.1088V173.827C126.268 175.185 125.057 176.282 123.557 176.282H73.9311C72.4317 176.282 71.2202 175.185 71.2202 173.827Z" fill="white" stroke="black" stroke-width="0.644236" stroke-miterlimit="10"/>
        <path d="M71.3942 100.456V96.6909C71.3942 95.1812 72.3648 94.3202 74.1252 93.9625H123.664C125.358 94.1322 126.061 95.4237 126.041 96.6909V100.499C126.041 100.723 125.826 100.899 125.559 100.899H71.9297C71.6352 100.899 71.3942 100.699 71.3942 100.456Z" fill="#1C2F4F"/>
        <path d="M131.918 173.978V96.2665C131.918 94.9083 133.129 93.8109 134.629 93.8109H226.598C228.098 93.8109 229.309 94.9083 229.309 96.2665V173.978C229.309 175.336 228.098 176.434 226.598 176.434H134.629C133.129 176.434 131.918 175.336 131.918 173.978Z" fill="#29253D"/>
        <path d="M96.7562 114.753V109.302C96.7562 109.048 96.9838 108.848 97.2582 108.848H104.079C104.36 108.848 104.581 109.054 104.581 109.302V114.753C104.581 115.008 104.353 115.208 104.079 115.208H97.2582C96.9838 115.214 96.7562 115.008 96.7562 114.753Z" fill="#CF2DB6"/>
        <path d="M92.7534 111.722V105.949C92.7534 105.695 92.981 105.495 93.2555 105.495H99.7081C99.9892 105.495 100.21 105.701 100.21 105.949V111.722C100.21 111.976 99.9825 112.176 99.7081 112.176H93.2555C92.981 112.176 92.7534 111.976 92.7534 111.722Z" fill="#254885"/>
        <path d="M200.955 113.134V97.2366C200.955 96.7758 201.37 96.3999 201.879 96.3999H220.146C220.655 96.3999 221.07 96.7758 221.07 97.2366V113.134C221.07 113.595 220.655 113.971 220.146 113.971H201.879C201.364 113.971 200.955 113.601 200.955 113.134Z" fill="#242424" stroke="white" stroke-width="0.644236" stroke-miterlimit="10"/>
        <path d="M75.156 161.052V145.415C75.156 145.16 75.3836 144.96 75.658 144.96H99.8888C100.17 144.96 100.391 145.166 100.391 145.415V161.052C100.391 161.306 100.163 161.506 99.8888 161.506H75.658C75.3769 161.506 75.156 161.306 75.156 161.052Z" fill="#9DEBC4"/>
        <path d="M75.156 142.244V138.224C75.156 137.969 75.3836 137.769 75.658 137.769H121.228C121.509 137.769 121.73 137.975 121.73 138.224V142.244C121.73 142.498 121.502 142.698 121.228 142.698H75.658C75.3769 142.698 75.156 142.498 75.156 142.244Z" fill="#6DD1C5"/>
        <path d="M75.156 172.966V164.01C75.156 163.756 75.3836 163.556 75.658 163.556H85.6582C85.9394 163.556 86.1602 163.762 86.1602 164.01V172.966C86.1602 173.22 85.9327 173.421 85.6582 173.421H75.658C75.3769 173.427 75.156 173.22 75.156 172.966Z" fill="#6B9DEC"/>
        <path d="M89.2126 173.123V164.017C89.2126 163.762 89.4402 163.562 89.7146 163.562H99.7148C99.996 163.562 100.217 163.768 100.217 164.017V173.123C100.217 173.378 99.9893 173.578 99.7148 173.578H89.7146C89.4402 173.578 89.2126 173.372 89.2126 173.123Z" fill="#BD7EF1"/>
        <path d="M103.61 173.178V145.421C103.61 145.166 103.838 144.966 104.112 144.966H121.228C121.509 144.966 121.73 145.172 121.73 145.421V173.178C121.73 173.433 121.502 173.633 121.228 173.633H104.112C103.838 173.633 103.61 173.427 103.61 173.178Z" fill="#9DE6ED"/>
        <path d="M85.8858 121.423V117.676C85.8858 117.645 85.9126 117.621 85.9461 117.621H112.647C112.68 117.621 112.707 117.645 112.707 117.676V121.423C112.707 121.453 112.68 121.477 112.647 121.477H85.9461C85.9059 121.477 85.8858 121.453 85.8858 121.423Z" fill="#5C67DB"/>
        <path d="M85.8858 133.137V129.39C85.8858 129.359 85.9126 129.335 85.9461 129.335H98.0012C98.0347 129.335 98.0615 129.359 98.0615 129.39V133.137C98.0615 133.167 98.0347 133.191 98.0012 133.191H85.9461C85.9059 133.191 85.8858 133.167 85.8858 133.137Z" fill="#1C2F4F"/>
        <path d="M100.351 133.137V129.39C100.351 129.359 100.377 129.335 100.411 129.335H112.466C112.5 129.335 112.526 129.359 112.526 129.39V133.137C112.526 133.167 112.5 133.191 112.466 133.191H100.411C100.377 133.191 100.351 133.167 100.351 133.137Z" fill="#1C2F4F"/>
        <path d="M85.8858 127.589V123.842C85.8858 123.812 85.9126 123.787 85.9461 123.787H112.647C112.68 123.787 112.707 123.812 112.707 123.842V127.589C112.707 127.619 112.68 127.643 112.647 127.643H85.9461C85.9059 127.643 85.8858 127.619 85.8858 127.589Z" fill="#B846A7"/>
        <path d="M139.622 120.64V116.469C139.622 116.257 139.809 116.087 140.044 116.087H160.734C160.968 116.087 161.155 116.257 161.155 116.469V120.64C161.155 120.853 160.968 121.022 160.734 121.022H140.044C139.809 121.022 139.622 120.853 139.622 120.64Z" fill="#FF6179"/>
        <path d="M139.622 113.553V109.381C139.622 109.169 139.809 108.999 140.044 108.999H169.556C169.79 108.999 169.977 109.169 169.977 109.381V113.553C169.977 113.765 169.79 113.935 169.556 113.935H140.044C139.809 113.929 139.622 113.759 139.622 113.553Z" fill="#FF9661"/>
        <path d="M139.622 106.459V102.287C139.622 102.075 139.809 101.905 140.044 101.905H169.556C169.79 101.905 169.977 102.075 169.977 102.287V106.459C169.977 106.671 169.79 106.841 169.556 106.841H140.044C139.809 106.841 139.622 106.671 139.622 106.459Z" fill="#FFB561"/>
        <path d="M139.622 144.693V140.522C139.622 140.309 139.809 140.14 140.044 140.14H160.734C160.968 140.14 161.155 140.309 161.155 140.522V144.693C161.155 144.905 160.968 145.075 160.734 145.075H140.044C139.809 145.069 139.622 144.899 139.622 144.693Z" fill="#FF6179"/>
        <path d="M139.622 168.43V164.259C139.622 164.047 139.809 163.877 140.044 163.877H186.49C186.725 163.877 186.912 164.047 186.912 164.259V168.43C186.912 168.643 186.725 168.812 186.49 168.812H140.044C139.809 168.812 139.622 168.643 139.622 168.43Z" fill="#DE4B61"/>
        <path d="M164.676 120.64V116.469C164.676 116.257 164.864 116.087 165.098 116.087H194.255C194.489 116.087 194.677 116.257 194.677 116.469V120.64C194.677 120.853 194.489 121.022 194.255 121.022H165.098C164.864 121.022 164.676 120.853 164.676 120.64Z" fill="#FF6179"/>
        <path d="M152.326 128.044V123.872C152.326 123.66 152.514 123.49 152.748 123.49H173.438C173.672 123.49 173.86 123.66 173.86 123.872V128.044C173.86 128.256 173.672 128.426 173.438 128.426H152.748C152.514 128.42 152.326 128.25 152.326 128.044Z" fill="#FFB561"/>
        <path d="M177.374 128.044V123.872C177.374 123.66 177.561 123.49 177.796 123.49H206.953C207.187 123.49 207.375 123.66 207.375 123.872V128.044C207.375 128.256 207.187 128.426 206.953 128.426H177.796C177.568 128.42 177.374 128.25 177.374 128.044Z" fill="#FF9661"/>
        <path d="M197.843 120.64V116.469C197.843 116.257 198.03 116.087 198.265 116.087H212.602C212.836 116.087 213.024 116.257 213.024 116.469V120.64C213.024 120.853 212.836 121.022 212.602 121.022H198.265C198.03 121.022 197.843 120.853 197.843 120.64Z" fill="#DE4B61"/>
        <path d="M210.547 128.044V123.872C210.547 123.66 210.735 123.49 210.969 123.49H227.067C227.301 123.49 227.489 123.66 227.489 123.872V128.044C227.489 128.256 227.301 128.426 227.067 128.426H210.969C210.735 128.42 210.547 128.25 210.547 128.044Z" fill="#FF9661"/>
        <path d="M152.674 135.75V131.578C152.674 131.366 152.862 131.197 153.096 131.197H183.666C183.9 131.197 184.087 131.366 184.087 131.578V135.75C184.087 135.962 183.9 136.132 183.666 136.132H153.096C152.862 136.132 152.674 135.962 152.674 135.75Z" fill="#FFB561"/>
        <path d="M187.26 135.75V131.578C187.26 131.366 187.448 131.197 187.682 131.197H199.898C200.132 131.197 200.319 131.366 200.319 131.578V135.75C200.319 135.962 200.132 136.132 199.898 136.132H187.682C187.448 136.132 187.26 135.962 187.26 135.75Z" fill="#FFB561"/>
        <path d="M152.674 153.327V149.156C152.674 148.943 152.862 148.774 153.096 148.774H185.426C185.66 148.774 185.848 148.943 185.848 149.156V153.327C185.848 153.539 185.66 153.709 185.426 153.709H153.096C152.862 153.703 152.674 153.533 152.674 153.327Z" fill="#C44155"/>
        <path d="M149.147 160.415V156.244C149.147 156.031 149.334 155.862 149.569 155.862H172.019C172.253 155.862 172.441 156.031 172.441 156.244V160.415C172.441 160.627 172.253 160.797 172.019 160.797H149.569C149.334 160.797 149.147 160.627 149.147 160.415Z" fill="#FFB561"/>
        <path d="M188.318 153.327V149.156C188.318 148.943 188.505 148.774 188.74 148.774H217.897C218.131 148.774 218.319 148.943 218.319 149.156V153.327C218.319 153.539 218.131 153.709 217.897 153.709H188.74C188.505 153.703 188.318 153.533 188.318 153.327Z" fill="#FFB561"/>
        <path d="M177.729 160.415V156.244C177.729 156.031 177.916 155.862 178.15 155.862H224.771C225.005 155.862 225.193 156.031 225.193 156.244V160.415C225.193 160.627 225.005 160.797 224.771 160.797H178.15C177.916 160.797 177.729 160.627 177.729 160.415Z" fill="#FF9661"/>
        <path d="M203.492 135.75V131.578C203.492 131.366 203.68 131.197 203.914 131.197H227.422C227.656 131.197 227.843 131.366 227.843 131.578V135.75C227.843 135.962 227.656 136.132 227.422 136.132H203.907C203.68 136.132 203.492 135.962 203.492 135.75Z" fill="#FF9661"/>
        <path d="M207.375 101.141C205.875 102.554 204.369 103.961 202.97 105.264C204.429 106.592 205.889 107.914 207.348 109.242" stroke="#FFB561" stroke-width="1.28847" stroke-miterlimit="10"/>
        <path d="M214.436 101.141C215.936 102.554 217.442 103.961 218.841 105.264C217.381 106.592 215.922 107.914 214.463 109.242" stroke="#FFB561" stroke-width="1.28847" stroke-miterlimit="10"/>
        <path d="M212.575 100.074C211.458 103.415 210.34 106.756 209.222 110.097" stroke="#FFB561" stroke-width="1.28847" stroke-miterlimit="10"/>
        <path d="M118.972 96.0664C119.675 96.8364 120.371 97.6064 121.074 98.3765C121.964 97.6064 122.848 96.8425 123.738 96.0724" stroke="white" stroke-width="1.28847" stroke-miterlimit="10"/>
        <path d="M87.4789 160.027C92.0444 160.027 95.7455 156.965 95.7455 153.188C95.7455 149.41 92.0444 146.348 87.4789 146.348C82.9134 146.348 79.2123 149.41 79.2123 153.188C79.2123 156.965 82.9134 160.027 87.4789 160.027Z" fill="#FFF7E6"/>
        <path d="M79.2123 152.83C79.4399 151.32 79.6005 150.599 80.3636 149.604C81.6354 147.943 84.0518 146.645 85.6247 146.458C86.3744 146.367 87.7064 146.124 87.7399 146.561C87.8805 148.24 87.8738 151.223 87.8939 152.915C87.914 154.212 95.7655 152.969 95.7387 153.357C95.5848 155.722 94.5205 157.086 92.9944 158.281C91.4682 159.475 89.7547 160.021 87.4722 160.021C85.3302 160.021 83.2552 159.542 81.7157 158.263C79.9687 156.832 78.9111 154.825 79.2123 152.83Z" fill="#1FCFCF"/>
        <path d="M87.412 157.875C90.4175 157.875 92.8539 155.806 92.8539 153.254C92.8539 150.703 90.4175 148.634 87.412 148.634C84.4065 148.634 81.9701 150.703 81.9701 153.254C81.9701 155.806 84.4065 157.875 87.412 157.875Z" fill="#BADECC" stroke="#323B34" stroke-width="0.644236" stroke-miterlimit="10"/>
        <path d="M87.4789 159.942C91.8706 159.942 95.4309 156.918 95.4309 153.188C95.4309 149.457 91.8706 146.433 87.4789 146.433C83.0871 146.433 79.5269 149.457 79.5269 153.188C79.5269 156.918 83.0871 159.942 87.4789 159.942Z" stroke="#323B34" stroke-width="0.644236" stroke-miterlimit="10"/>
        <path d="M106.408 148.01V158.645V148.01Z" stroke="#32405C" stroke-width="0.644236" stroke-miterlimit="10"/>
        <path d="M109.889 154.121H107.774V158.081H109.889V154.121Z" fill="#616BD4"/>
        <path d="M112.64 151.799H110.525V158.075H112.64V151.799Z" fill="#617AD4"/>
        <path d="M115.605 149.75H113.49V158.075H115.605V149.75Z" fill="#6685CC"/>
        <path d="M118.604 148.058H116.489V158.081H118.604V148.058Z" fill="#4E7EED"/>
        <path d="M105.552 171.62V160.409C105.552 160.312 105.639 160.233 105.746 160.233H119.468C119.575 160.233 119.662 160.312 119.662 160.409V171.62C119.662 171.717 119.575 171.796 119.468 171.796H105.746C105.639 171.796 105.552 171.717 105.552 171.62Z" fill="#4E7EED"/>
        <path d="M106.428 158.347H119.662H106.428Z" stroke="#32405C" stroke-width="0.644236" stroke-miterlimit="10"/>
        <path opacity="0.8196" d="M223.481 139.572V65.4266C223.481 62.7064 226.165 60.4997 229.473 60.4997H293.778C297.086 60.4997 299.769 62.7064 299.769 65.4266V139.572C299.769 142.293 297.086 144.499 293.778 144.499H229.473C226.165 144.499 223.481 142.293 223.481 139.572Z" fill="#16285E" stroke="black" stroke-width="0.547562" stroke-miterlimit="10"/>
        <path d="M241.17 67.872H232.485V75.3703H241.17V67.872Z" fill="#404F7B" stroke="white" stroke-width="0.547562" stroke-miterlimit="10"/>
        <path d="M241.17 89.2051H232.485V96.7035H241.17V89.2051Z" fill="#404F7B" stroke="white" stroke-width="0.547562" stroke-miterlimit="10"/>
        <path d="M241.17 106.535H232.485V114.033H241.17V106.535Z" fill="#404F7B" stroke="white" stroke-width="0.547562" stroke-miterlimit="10"/>
        <path d="M240.765 126.535H232.08V134.033H240.765V126.535Z" fill="#404F7B" stroke="white" stroke-width="0.547562" stroke-miterlimit="10"/>
        <path d="M294.156 66.8542H251.116V72.5196H294.156V66.8542Z" fill="#4E7EED"/>
        <path d="M294.156 76.1855H251.116V78.8515H294.156V76.1855Z" fill="#C8DEFA"/>
        <path d="M294.156 89.1871H251.116V94.8525H294.156V89.1871Z" fill="#E66ED4"/>
        <path d="M294.156 98.5184H251.116V101.184H294.156V98.5184Z" fill="#FED6FF"/>
        <path d="M294.156 81.6888H251.116V84.3548H294.156V81.6888Z" fill="#C8DEFA"/>
        <path d="M294.156 106.188H251.116V111.853H294.156V106.188Z" fill="#FF9C6B"/>
        <path d="M294.156 115.519H251.116V118.185H294.156V115.519Z" fill="#FFF2E0"/>
        <path d="M294.156 128.516H251.116V134.182H294.156V128.516Z" fill="#AB4EED"/>
        <path d="M294.156 137.852H251.116V140.518H294.156V137.852Z" fill="#EDD6FF"/>
        <path d="M294.156 121.018H251.116V123.684H294.156V121.018Z" fill="#FFF2E0"/>
        <path d="M235.771 75.4289L230.94 70.6867L233.054 68.9528L237.885 73.695L235.771 75.4289Z" fill="#8AD696"/>
        <path d="M233.837 73.5464L242.622 66.4534L244.533 68.3674L235.754 75.4559L233.837 73.5464Z" fill="#8AD696"/>
        <path d="M235.771 96.762L230.94 92.0198L233.054 90.286L237.885 95.0282L235.771 96.762Z" fill="#8AD696"/>
        <path d="M233.837 94.8796L242.622 87.7865L244.533 89.696L235.754 96.7891L233.837 94.8796Z" fill="#8AD696"/>
        <path opacity="0.6706" d="M141.374 59.1039V5.02085C141.374 2.80093 143.496 1 146.112 1H226.269C228.885 1 231.007 2.80093 231.007 5.02085V59.1039C231.007 61.3238 228.885 63.1247 226.269 63.1247H146.108C143.492 63.1247 141.374 61.3238 141.374 59.1039Z" fill="#E2FFD6" stroke="black" stroke-width="0.412484" stroke-miterlimit="10"/>
        <path opacity="0.6706" d="M147.42 60.5887V54.5868C147.42 54.2487 147.74 53.9767 148.139 53.9767H197.836C198.235 53.9767 198.555 54.2487 198.555 54.5868V60.5887C198.555 60.9268 198.235 61.1988 197.836 61.1988H148.143C147.745 61.1988 147.42 60.9232 147.42 60.5887Z" fill="#90E8E1" stroke="black" stroke-width="0.412484" stroke-miterlimit="10"/>
        <path opacity="0.6706" d="M147.42 10.5045V5.94704C147.42 5.60891 147.74 5.33693 148.139 5.33693H197.836C198.235 5.33693 198.555 5.60891 198.555 5.94704V10.5045C198.555 10.8426 198.235 11.1146 197.836 11.1146H148.143C147.745 11.1146 147.42 10.839 147.42 10.5045Z" fill="#54C7B2" stroke="black" stroke-width="0.412484" stroke-miterlimit="10"/>
        <path opacity="0.6706" d="M147.697 51.1945V14.371C147.697 14.0329 148.017 13.7609 148.416 13.7609H198.113C198.512 13.7609 198.832 14.0329 198.832 14.371V51.1945C198.832 51.5326 198.512 51.8046 198.113 51.8046H148.416C148.017 51.8083 147.697 51.5326 147.697 51.1945Z" fill="#03120D" stroke="black" stroke-width="0.412484" stroke-miterlimit="10"/>
        <path opacity="0.6706" d="M203.783 59.8647V45.9166C203.783 45.5785 204.103 45.3065 204.502 45.3065H225.056C225.455 45.3065 225.775 45.5785 225.775 45.9166V59.8647C225.775 60.2028 225.455 60.4748 225.056 60.4748H204.502C204.108 60.4748 203.783 60.2028 203.783 59.8647Z" fill="#142E2E" stroke="black" stroke-width="0.412484" stroke-miterlimit="10"/>
        <path opacity="0.6706" d="M203.51 40.6021V26.6541C203.51 26.3159 203.83 26.0439 204.229 26.0439H224.783C225.182 26.0439 225.502 26.3159 225.502 26.6541V40.6021C225.502 40.9402 225.182 41.2122 224.783 41.2122H204.229C203.83 41.2122 203.51 40.9402 203.51 40.6021Z" fill="#1D4D4D" stroke="black" stroke-width="0.412484" stroke-miterlimit="10"/>
        <path opacity="0.6706" d="M203.51 19.8951V5.94704C203.51 5.60891 203.83 5.33693 204.229 5.33693H224.783C225.182 5.33693 225.502 5.60891 225.502 5.94704V19.8951C225.502 20.2332 225.182 20.5052 224.783 20.5052H204.229C203.83 20.5052 203.51 20.2295 203.51 19.8951Z" fill="#308585" stroke="black" stroke-width="0.412484" stroke-miterlimit="10"/>
        <path d="M198.581 45.4977H147.991V47.4236H198.581V45.4977Z" fill="#89A9AD"/>
        <path d="M168.338 45.4977H147.991V47.4236H168.338V45.4977Z" fill="#DEFFF7"/>
        <path d="M168.832 48.9562C170.501 48.9562 171.855 47.7697 171.855 46.3062C171.855 44.8427 170.501 43.6563 168.832 43.6563C167.162 43.6563 165.809 44.8427 165.809 46.3062C165.809 47.7697 167.162 48.9562 168.832 48.9562Z" fill="#547B80"/>
        <path d="M169.928 49.1951C171.597 49.1951 172.951 48.0087 172.951 46.5451C172.951 45.0816 171.597 43.8952 169.928 43.8952C168.258 43.8952 166.905 45.0816 166.905 46.5451C166.905 48.0087 168.258 49.1951 169.928 49.1951Z" fill="#DAF5DB"/>
        <path d="M170.785 38.1432C176.667 38.1432 181.435 33.7777 181.435 28.3925C181.435 23.0073 176.667 18.6418 170.785 18.6418C164.904 18.6418 160.135 23.0073 160.135 28.3925C160.135 33.7777 164.904 38.1432 170.785 38.1432Z" fill="#BDBDBD"/>
        <path d="M171.751 37.7095C177.633 37.7095 182.401 33.4411 182.401 28.1757C182.401 22.9102 177.633 18.6418 171.751 18.6418C165.869 18.6418 161.101 22.9102 161.101 28.1757C161.101 33.4411 165.869 37.7095 171.751 37.7095Z" fill="#2BB348"/>
        <path d="M179.213 28.3411L167.836 22.8133V33.8651L179.213 28.3411Z" fill="white"/>
        <path opacity="0.6706" d="M38.9808 75.579V19.2978C38.9808 16.9249 41.106 14.9999 43.7256 14.9999H130.038C132.657 14.9999 134.782 16.9249 134.782 19.2978V75.583C134.782 77.9558 132.657 79.8809 130.038 79.8809H43.7213C41.1017 79.8769 38.9808 77.9519 38.9808 75.579Z" fill="#FFFFA6" stroke="black" stroke-width="0.417429" stroke-miterlimit="10"/>
        <path d="M44.5563 54.5964V22.2561C44.5563 21.3761 45.3457 20.661 46.3172 20.661H78.0602C79.0317 20.661 79.8211 21.3761 79.8211 22.2561V54.5964C79.8211 55.4764 79.0317 56.1914 78.0602 56.1914H46.3172C45.3457 56.1914 44.5563 55.4803 44.5563 54.5964Z" fill="#FFE387"/>
        <path d="M88.3498 73.6501V41.3098C88.3498 40.4298 89.1391 39.7148 90.1106 39.7148H121.854C122.825 39.7148 123.615 40.4298 123.615 41.3098V73.6501C123.615 74.5301 122.825 75.2451 121.854 75.2451H90.1063C89.1348 75.2412 88.3498 74.5301 88.3498 73.6501Z" fill="#FFDFB8"/>
        <path d="M48.4183 66.2093C49.8322 65.6475 50.0794 64.2961 49.6674 63.0743C49.277 61.9153 46.922 61.22 45.4821 61.9978C41.6047 64.0996 44.5539 69.6743 46.5924 73.049C48.6308 76.4237 52.8464 79.0991 56.9667 77.3194C58.2418 76.7655 59.1005 75.2058 58.2027 74.424C56.7585 73.1708 55.6395 73.8269 53.5187 73.9487C52.0701 71.2418 49.4592 68.9593 48.4183 66.2093Z" fill="#4CCF73"/>
        <path d="M66.2393 60.2614C69.5399 60.7328 72.4544 62.7561 73.608 65.3765C74.7617 67.9968 74.1111 71.1161 71.9643 73.2572" stroke="#366B5C" stroke-width="2.08714" stroke-miterlimit="10"/>
        <path d="M63.0082 63.7343C64.9642 64.025 66.6904 65.2664 67.3756 66.8772C68.0609 68.4879 67.6749 70.4011 66.3998 71.7172" stroke="#366B5C" stroke-width="2.08714" stroke-miterlimit="10"/>
        <path d="M60.0677 67.0815C60.9221 67.2229 61.6811 67.824 61.9803 68.6018C62.2796 69.3797 62.1104 70.3068 61.5553 70.9433" stroke="#366B5C" stroke-width="2.08714" stroke-miterlimit="10"/>
        <path d="M57.3507 56.1992L57.0905 51.1274L56.7001 53.1585L51.7472 53.0524L53.7986 44.8927L57.9058 42.9402L67.0788 44.0795L67.8377 42.3941L71.676 43.7181L73.9227 47.5524L74.0311 53.2528L73.2678 53.4256L68.5794 53.846L68.189 56.1992H57.3507Z" fill="#72C0C4"/>
        <path d="M56.2881 53.3078H51.565V56.105H56.2881V53.3078Z" fill="#FCD0AE"/>
        <path d="M69.8328 56.4114L69.4164 53.8421L74.1048 53.4178L74.5255 55.9871L69.8328 56.4114Z" fill="#FCD0AE"/>
        <path d="M60.443 44.0952L59.4932 38.1591L66.0769 37.3734L67.3043 43.1013C67.3043 43.1013 65.6302 47.1713 64.0038 47.9649C60.5992 49.6306 60.443 44.0952 60.443 44.0952Z" fill="#FCD0AE"/>
        <path d="M62.4164 39.7266C66.7136 39.7266 70.1971 36.7118 70.1971 32.993C70.1971 29.2741 66.7136 26.2593 62.4164 26.2593C58.1193 26.2593 54.6357 29.2741 54.6357 32.993C54.6357 36.7118 58.1193 39.7266 62.4164 39.7266Z" fill="#FCD0AE" stroke="black" stroke-width="0.417429" stroke-miterlimit="10"/>
        <path d="M66.9616 27.6096C66.7535 28.2696 66.0725 28.8353 65.2138 29.0592C64.3551 29.2792 63.3489 29.1496 62.6376 28.7292C61.7788 28.2185 60.4517 28.4385 59.619 28.9689C58.7819 29.4992 58.2918 30.2614 57.7237 30.9607C57.1555 31.66 55.8544 32.1471 54.8005 32.3789C54.4665 32.1668 54.6921 32.1589 54.3581 31.9468C52.8445 31.8918 51.4523 31.0707 50.8971 29.9825C50.3376 28.8942 50.6369 27.5899 51.6474 26.7021C52.6406 26.6471 53.5731 25.9753 54.215 25.2721C54.8569 24.5688 55.36 23.7674 56.2534 23.237C57.1468 22.7067 58.6214 22.581 59.3284 23.2449C59.671 23.567 60.3693 23.6299 60.8073 23.3824C63.132 22.0663 66.8575 22.4435 68.4666 24.1838C69.3297 25.4214 68.7702 27.1107 66.9616 27.6096Z" stroke="black" stroke-width="0.417429" stroke-miterlimit="10"/>
        <path d="M68.7832 24.3029C70.4834 23.8982 72.6649 24.79 73.5714 25.9333C74.4778 27.0804 74.5776 28.4829 74.4258 29.8069C74.274 31.1308 73.901 32.4469 73.953 33.7787C73.9791 34.4898 73.3719 35.193 72.4914 35.468C71.611 35.743 70.5094 35.5701 69.8502 35.0555" stroke="black" stroke-width="0.417429" stroke-miterlimit="10"/>
        <path d="M68.9351 34.2344V30.5533L66.4326 28.3729L68.7963 26.1533L68.7312 24.2872L71.7932 24.5268L74.0745 26.5658L74.3521 29.0683L74.0745 34.2344L72.4437 35.5937L71.0949 35.4758L68.9351 34.2344Z" fill="url(#landing_visual_paint1_linear)"/>
        <path d="M66.5887 28.5694C68.5664 29.7479 69.5596 31.7751 69.0608 33.6255C68.8136 34.5408 70.1321 35.4719 71.3464 35.2362" stroke="black" stroke-width="0.417429" stroke-miterlimit="10"/>
        <path d="M59.9226 39.2827C60.07 40.7166 60.2217 42.1545 60.369 43.5884" stroke="black" stroke-width="0.417429" stroke-miterlimit="10"/>
        <path d="M66.5496 38.8309C66.7925 40.2255 67.0354 41.6202 67.2782 43.0148" stroke="black" stroke-width="0.417429" stroke-miterlimit="10"/>
        <path d="M60.2522 43.2466C60.4474 45.3052 60.9678 48.9195 63.544 48.1692C66.0118 47.4502 66.5323 44.4763 67.4691 42.6298" stroke="black" stroke-width="0.417429" stroke-miterlimit="10"/>
        <path d="M60.0483 43.3016C57.3463 42.6848 54.0372 43.942 53.495 45.7884C52.5322 49.0845 52.3977 50.102 51.4349 53.3981" stroke="black" stroke-width="0.417429" stroke-miterlimit="10"/>
        <path d="M67.2175 42.5905C69.6289 42.2527 71.9883 43.6198 72.9468 45.2738C73.9053 46.9277 73.8012 48.7899 73.7014 50.5813C73.606 52.3728 73.7405 51.8463 74.3173 53.4885" stroke="black" stroke-width="0.417429" stroke-miterlimit="10"/>
        <path d="M51.2614 53.2174C53.1698 53.3392 55.0998 53.3549 57.0124 53.2606C56.9083 53.2646 56.8042 53.2646 56.7045 53.2685C56.8823 52.9778 57.0601 52.6831 57.2379 52.3924" stroke="black" stroke-width="0.417429" stroke-miterlimit="10"/>
        <path d="M56.9734 51.3553C57.1728 52.9424 57.3765 54.5335 57.5758 56.1207" stroke="black" stroke-width="0.417429" stroke-miterlimit="10"/>
        <path d="M68.7832 50.0981C68.5621 52.1685 68.3409 54.2428 68.1197 56.3132C68.3192 53.8892 68.5144 51.4653 68.7832 50.0981Z" stroke="black" stroke-width="0.417429" stroke-miterlimit="10"/>
        <path d="M50.4331 28.864L51.4046 27.0529L54.7398 24.7193L56.4096 23.1675L58.3873 22.865L59.6537 23.58L64.0472 22.4407L67.2609 23.2775C67.2609 23.2775 68.536 24.0004 68.7529 24.4247C68.9394 24.79 69.0868 25.6661 68.8223 26.2318C68.5881 26.7229 66.6884 28.4672 66.6884 28.4672L65.5478 28.8954L63.8737 29.1547L61.6661 28.204L59.1419 29.1154L57.1859 31.6376L55.2863 32.4587L51.8253 31.1111L50.4331 28.864Z" fill="url(#landing_visual_paint2_linear)"/>
        <path d="M68.4926 53.7714C70.5224 53.9403 72.6042 53.7635 74.5342 53.2646" stroke="black" stroke-width="0.417429" stroke-miterlimit="10"/>
        <path d="M51.6083 53.2724C51.552 54.1996 51.4956 55.1267 51.4436 56.0499" stroke="black" stroke-width="0.417429" stroke-miterlimit="10"/>
        <path d="M56.3267 53.3156C56.2834 54.2939 56.2359 55.276 56.1927 56.2542" stroke="black" stroke-width="0.417429" stroke-miterlimit="10"/>
        <path d="M69.2993 53.7439C69.399 54.6356 69.4942 55.5314 69.5939 56.4232" stroke="black" stroke-width="0.417429" stroke-miterlimit="10"/>
        <path d="M73.7448 53.3746C74.1048 54.2546 74.4604 55.1346 74.8204 56.0146" stroke="black" stroke-width="0.417429" stroke-miterlimit="10"/>
        <path d="M96.1652 75.1233L96.69 70.2715L98.9062 70.4208L98.3858 75.2726L96.1652 75.1233Z" fill="#B58E70"/>
        <path d="M111.531 75.4533L111.041 70.7272L113.657 70.5583L114.142 75.2844L111.531 75.4533Z" fill="#B58E70"/>
        <path d="M98.7584 75.1587L99.6735 70.5504L96.7156 70.5936L96.6636 66.8064L97.3185 66.1386L97.9864 66.0364H113.374L113.908 66.5747L114.294 70.904L109.302 71.2811L110.928 75.084L98.7584 75.1587Z" fill="#53704D"/>
        <path d="M102.389 51.0213C101.999 48.8409 104.315 46.1773 107.511 46.4091C110.707 46.637 114.051 49.1081 112.754 51.1666" fill="#301F1F"/>
        <path d="M108.339 62.6657H104.028V67.71H108.339V62.6657Z" fill="#B58E70"/>
        <path d="M103.968 62.9171L101.968 67.384L104.718 67.6157L103.968 62.9171Z" fill="#B58E70"/>
        <path d="M104.028 62.3357C103.365 64.0525 102.701 65.7693 102.038 67.4861L104.028 62.3357Z" fill="white"/>
        <path d="M104.028 62.3357C103.365 64.0525 102.701 65.7693 102.038 67.4861" stroke="black" stroke-width="0.417429" stroke-miterlimit="10"/>
        <path d="M108.509 63.6361C108.526 64.9993 108.539 66.3586 108.556 67.7218L108.509 63.6361Z" fill="white"/>
        <path d="M108.509 63.6361C108.526 64.9993 108.539 66.3586 108.556 67.7218" stroke="black" stroke-width="0.417429" stroke-miterlimit="10"/>
        <path d="M101.977 67.3015C103.764 68.59 106.67 68.6529 108.673 67.5843L101.977 67.3015Z" fill="#B58E70"/>
        <path d="M101.977 67.3015C103.764 68.59 106.67 68.6529 108.673 67.5843" stroke="black" stroke-width="0.417429" stroke-miterlimit="10"/>
        <path d="M107.398 64.8932C111.916 64.8932 115.578 61.4352 115.578 57.1696C115.578 52.9039 111.916 49.4459 107.398 49.4459C102.881 49.4459 99.2185 52.9039 99.2185 57.1696C99.2185 61.4352 102.881 64.8932 107.398 64.8932Z" fill="#B58E70" stroke="black" stroke-width="0.417429" stroke-miterlimit="10"/>
        <path d="M101.508 56.2542C96.1175 56.9221 105.048 55.056 103.096 51.1981C103.803 53.5553 102.601 56.101 100.051 57.4642C99.7563 57.1892 99.7303 56.8828 99.4353 56.6078L102.246 54.5924L101.508 56.2542Z" stroke="#301F1F" stroke-width="0.417429" stroke-miterlimit="10"/>
        <path d="M99.2185 56.4035C99.2185 52.5613 102.879 49.4459 107.398 49.4459C111.913 49.4459 115.578 52.5613 115.578 56.4035C115.578 58.3246 110.738 56.9889 107.546 55.1778C104.354 53.3667 102.805 51.0802 103.2 51.7953C104.995 55.056 99.2185 60.2457 99.2185 56.4035Z" fill="#301F1F"/>
        <path d="M96.3817 70.5072C96.5856 69.9336 96.6637 69.4111 96.6116 68.8061C96.5596 68.2011 96.7764 67.7022 96.8718 67.1089C96.9239 66.7789 97.1928 65.9421 98.1643 65.9579C99.7169 65.9854 101.131 65.9618 102.683 66.0129" stroke="black" stroke-width="0.417429" stroke-miterlimit="10"/>
        <path d="M114.342 70.8529C114.147 70.2794 114.199 69.7568 114.246 69.1518C114.294 68.5468 114.333 68.0243 114.121 67.4547C113.908 66.885 113.821 66.2132 113.01 66.0993C111.666 65.9068 110.018 66.2054 108.526 66.2604" stroke="black" stroke-width="0.417429" stroke-miterlimit="10"/>
        <path d="M96.1786 70.3972C97.3409 70.683 98.6507 70.6947 99.826 70.4285" stroke="black" stroke-width="0.417429" stroke-miterlimit="10"/>
        <path d="M99.5481 68.2365C100.073 70.5543 99.7953 72.9901 98.7544 75.1862" stroke="black" stroke-width="0.417429" stroke-miterlimit="10"/>
        <path d="M109.571 70.8293C111.098 71.4226 113.223 71.3636 114.654 70.6879" stroke="black" stroke-width="0.417429" stroke-miterlimit="10"/>
        <path d="M110.009 68.2915C109.072 70.5897 109.536 73.214 111.232 75.2255" stroke="black" stroke-width="0.417429" stroke-miterlimit="10"/>
        <path d="M88.3498 73.6501V41.3098C88.3498 40.4298 89.1391 39.7148 90.1106 39.7148H121.854C122.825 39.7148 123.615 40.4298 123.615 41.3098V73.6501C123.615 74.5301 122.825 75.2451 121.854 75.2451H90.1063C89.1348 75.2412 88.3498 74.5301 88.3498 73.6501Z" stroke="black" stroke-width="0.417429" stroke-miterlimit="10"/>
        <path d="M44.5563 54.5964V22.2561C44.5563 21.3761 45.3457 20.661 46.3172 20.661H78.0602C79.0317 20.661 79.8211 21.3761 79.8211 22.2561V54.5964C79.8211 55.4764 79.0317 56.1914 78.0602 56.1914H46.3172C45.3457 56.1914 44.5563 55.4803 44.5563 54.5964Z" stroke="black" stroke-width="0.417429" stroke-miterlimit="10"/>
    </g>
    <defs>
        <filter id="landing_visual_filter0_d" x="0" y="0.793755" width="319.381" height="425.206" filterUnits="userSpaceOnUse" color-interpolation-filters="sRGB">
            <feFlood flood-opacity="0" result="BackgroundImageFix"/>
            <feColorMatrix in="SourceAlpha" type="matrix" values="0 0 0 0 0 0 0 0 0 0 0 0 0 0 0 0 0 0 127 0" result="hardAlpha"/>
            <feOffset dy="4"/>
            <feGaussianBlur stdDeviation="2"/>
            <feComposite in2="hardAlpha" operator="out"/>
            <feColorMatrix type="matrix" values="0 0 0 0 0 0 0 0 0 0 0 0 0 0 0 0 0 0 0.25 0"/>
            <feBlend mode="normal" in2="BackgroundImageFix" result="effect1_dropShadow"/>
            <feBlend mode="normal" in="SourceGraphic" in2="effect1_dropShadow" result="shape"/>
        </filter>
        <filter id="landing_visual_filter1_d" x="72.5661" y="205.174" width="163.185" height="107.956" filterUnits="userSpaceOnUse" color-interpolation-filters="sRGB">
            <feFlood flood-opacity="0" result="BackgroundImageFix"/>
            <feColorMatrix in="SourceAlpha" type="matrix" values="0 0 0 0 0 0 0 0 0 0 0 0 0 0 0 0 0 0 127 0" result="hardAlpha"/>
            <feOffset dy="15.9239"/>
            <feGaussianBlur stdDeviation="3.18478"/>
            <feComposite in2="hardAlpha" operator="out"/>
            <feColorMatrix type="matrix" values="0 0 0 0 0.52549 0 0 0 0 0.611765 0 0 0 0 0.87451 0 0 0 1 0"/>
            <feBlend mode="normal" in2="BackgroundImageFix" result="effect1_dropShadow"/>
            <feBlend mode="normal" in="SourceGraphic" in2="effect1_dropShadow" result="shape"/>
        </filter>
        <linearGradient id="landing_visual_paint0_linear" x1="154.158" y1="205.174" x2="154.158" y2="290.714" gradientUnits="userSpaceOnUse">
            <stop stop-color="#FFF6D6"/>
            <stop offset="0.171875" stop-color="#D4F4E0"/>
            <stop offset="0.552083" stop-color="#92DCF2"/>
            <stop offset="0.901042" stop-color="#C5C7F3"/>
        </linearGradient>
        <linearGradient id="landing_visual_paint1_linear" x1="72.4458" y1="30.4057" x2="67.4244" y2="27.9369" gradientUnits="userSpaceOnUse">
            <stop/>
            <stop offset="0.5304" stop-color="#020202"/>
            <stop offset="0.7214" stop-color="#090808"/>
            <stop offset="0.8575" stop-color="#141414"/>
            <stop offset="0.9668" stop-color="#252424"/>
            <stop offset="1" stop-color="#2C2A2A"/>
        </linearGradient>
        <linearGradient id="landing_visual_paint2_linear" x1="50.5599" y1="28.2452" x2="72.2097" y2="25.793" gradientUnits="userSpaceOnUse">
            <stop/>
            <stop offset="0.4157" stop-color="#020202"/>
            <stop offset="0.5654" stop-color="#090808"/>
            <stop offset="0.6721" stop-color="#141414"/>
            <stop offset="0.7585" stop-color="#252424"/>
            <stop offset="0.8324" stop-color="#3B3939"/>
            <stop offset="0.8979" stop-color="#575252"/>
            <stop offset="0.9556" stop-color="#767070"/>
            <stop offset="1" stop-color="#948D8D"/>
        </linearGradient>
    </defs>
</svg>
