<svg width="200" height="171" viewBox="0 0 200 171" fill="none" xmlns="http://www.w3.org/2000/svg">
<g filter="url(#milestones_projects_filter0_d)">
<g filter="url(#milestones_projects_filter1_d)">
<path d="M41.0788 106.007V1.17531C41.0788 0.525299 41.5308 -0.000244141 42.0897 -0.000244141H156.615C157.174 -0.000244141 157.626 0.525299 157.626 1.17531V106.007C157.626 106.657 157.174 107.183 156.615 107.183H42.0897C41.5308 107.183 41.0788 106.657 41.0788 106.007Z" fill="#C7B9FF"/>
</g>
<path d="M52.7338 86.8545V20.3317C52.7338 17.4394 54.8685 15.0961 57.5033 15.0961H142.497C145.131 15.0961 147.266 17.4394 147.266 20.3317V86.8511C147.266 89.7434 145.131 92.0867 142.497 92.0867H57.5033C54.8685 92.09 52.7338 89.7434 52.7338 86.8545Z" fill="#313551"/>
<g filter="url(#milestones_projects_filter2_d)">
<path d="M10 157L40.303 107.182H158.485L190 157H10Z" fill="#C7B9FF"/>
</g>
<path d="M26 147L49.7723 107H148.743L173 147H26Z" fill="#7876CC"/>
<path d="M68.0286 42.3858C68.0927 41.9453 64.1662 41.339 64.27 40.5547C64.4622 39.0886 64.9198 37.8729 65.0601 37.3088C65.4751 35.6044 68.7303 39.1972 69.191 37.7251C69.7646 35.903 70.2954 34.9136 71.5066 33.7129C72.5958 32.63 68.5808 31.4384 68.9347 30.2166C69.4046 28.5907 70.3229 28.2317 71.1253 27.2362C71.6744 26.5575 74.5331 30.9044 75.1158 30.3433C76.446 29.0613 77.0318 29.0733 78.664 28.3886C79.5701 28.0085 77.3582 25.0642 78.127 24.5514C79.2284 23.8123 80.3908 23.9239 81.5989 23.568C82.3708 23.3417 83.0084 27.384 83.8169 27.2513C84.8359 27.0854 85.8823 27.0009 86.9471 27.0009C87.9569 27.0009 88.9485 22.856 89.9156 23.0039C91.0658 23.1788 92.1824 23.5227 93.2563 24.0084C94.196 24.4307 92.0512 27.9813 92.9176 28.6027C94.0251 29.3961 94.7238 29.7611 95.6878 30.826C96.1119 31.2966 98.7601 26.8682 99.7119 27.74C100.523 28.4821 101.588 28.7626 102.278 29.9783C102.87 31.0191 99.9499 32.8894 99.7363 34.8894C99.6753 35.4566 100.078 35.5169 100.734 36.0508C101.61 36.7658 105.246 35.179 105.271 36.1594C105.286 36.802 106.567 38.5456 105.698 39.8186C105.127 40.6572 101.42 41.2394 101.375 42.0147C101.317 42.9831 101.164 44.413 101.509 44.5246C102.171 44.7418 105.112 44.054 105.182 45.2124C105.295 47.0736 104.102 49.4055 104.035 50.2321C103.931 51.5141 100.221 47.8851 100.206 48.404C100.157 49.8369 98.516 51.3452 98.1682 52.3769C97.8326 53.3814 102.177 54.2925 101.744 55.2186C101.167 56.4524 99.6662 58.5489 98.9187 59.4388C98.3909 60.0663 95.9746 55.9516 95.5048 56.5972C94.8946 57.4358 94.0465 58.2925 93.6224 59.1704C93.3021 59.834 95.5383 61.9698 94.62 62.4555C92.9237 63.3514 92.2617 63.9155 90.7088 64.178C89.5678 64.371 89.5068 60.9351 88.4695 61.1734C86.9135 61.5324 85.4094 61.6169 84.0488 61.3966C83.1976 61.2579 83.8993 65.1946 81.7606 64.9925C80.284 64.8537 78.8257 64.5309 77.8402 63.8431C77.1629 63.3695 79.5182 60.7812 78.8135 60.3288C77.7457 59.644 76.6626 59.0225 75.6039 58.5851C74.7436 58.2292 73.7521 61.466 72.9558 61.0558C71.3876 60.2473 69.9995 59.3393 68.9683 58.3559C68.0622 57.4931 72.5165 55.8521 71.6561 54.9772C70.7622 54.0632 69.8988 53.1642 69.0781 52.3105C68.0805 51.2728 65.3805 53.2065 64.691 52.1084C64.0808 51.137 64.3584 50.0028 64.0228 49.0284C63.6384 47.9123 68.2361 48.5759 68.0622 47.4145C67.812 45.7554 67.7876 44.066 68.0286 42.3858Z" fill="#C674DB"/>
<path d="M85 55C91.6274 55 97 49.8513 97 43.5C97 37.1487 91.6274 32 85 32C78.3726 32 73 37.1487 73 43.5C73 49.8513 78.3726 55 85 55Z" fill="#313551"/>
<path d="M101.546 65.6085C101.6 65.2325 98.1434 64.7119 98.2351 64.0403C98.4028 62.7837 98.8076 61.7425 98.9309 61.2604C99.2978 59.8014 102.163 62.8801 102.571 61.6171C103.077 60.0553 103.545 59.2069 104.611 58.1785C105.569 57.2529 102.033 56.2278 102.343 55.1833C102.758 53.7886 103.567 53.4801 104.276 52.6284C104.759 52.0468 107.277 55.7746 107.792 55.2926C108.966 54.1935 109.481 54.2032 110.917 53.6183C111.717 53.2905 109.769 50.7677 110.443 50.3274C111.413 49.6943 112.435 49.7908 113.501 49.4855C114.181 49.2894 114.744 52.757 115.455 52.6445C116.353 52.5031 117.274 52.4292 118.213 52.4292C119.102 52.4292 119.975 48.8749 120.828 49.0034C121.844 49.1544 122.827 49.4501 123.773 49.8647C124.601 50.2278 122.71 53.268 123.475 53.8014C124.45 54.4827 125.066 54.7945 125.914 55.7072C126.29 56.1089 128.621 52.3167 129.459 53.0623C130.174 53.6986 131.113 53.9396 131.72 54.9809C132.242 55.8743 129.668 57.4747 129.481 59.1908C129.427 59.6761 129.782 59.7275 130.36 60.187C131.132 60.7976 134.336 59.4415 134.358 60.2802C134.37 60.8298 135.499 62.3242 134.734 63.4168C134.231 64.1367 130.964 64.6348 130.923 65.2968C130.873 66.1292 130.737 67.3504 131.04 67.45C131.625 67.6364 134.215 67.0451 134.276 68.0381C134.377 69.6353 133.324 71.6342 133.264 72.3412C133.172 73.4403 129.905 70.3295 129.889 70.7729C129.848 72.0006 128.4 73.2957 128.096 74.1795C127.799 75.0407 131.628 75.8216 131.246 76.6154C130.737 77.6727 129.415 79.4692 128.757 80.2308C128.292 80.7675 126.164 77.2421 125.749 77.7949C125.212 78.5147 124.465 79.2474 124.092 79.9994C123.811 80.5683 125.781 82.4001 124.971 82.8146C123.475 83.5827 122.894 84.0648 121.527 84.2929C120.522 84.4601 120.471 81.5131 119.554 81.7188C118.185 82.0241 116.856 82.1012 115.661 81.9116C114.911 81.7927 115.531 85.1671 113.643 84.9935C112.34 84.8746 111.059 84.5982 110.19 84.0101C109.592 83.6052 111.666 81.3846 111.047 80.9989C110.107 80.4108 109.152 79.8805 108.219 79.5045C107.46 79.1992 106.587 81.9727 105.889 81.6224C104.506 80.9282 103.283 80.1505 102.375 79.3085C101.578 78.5694 105.5 77.165 104.744 76.413C103.956 75.632 103.194 74.8575 102.473 74.128C101.594 73.2378 99.2155 74.8961 98.6083 73.9545C98.0707 73.1222 98.3142 72.1516 98.0201 71.3128C97.6817 70.3552 101.733 70.924 101.578 69.931C101.353 68.4944 101.334 67.0483 101.546 65.6085Z" fill="#C674DB"/>
<path d="M116.5 77C122.299 77 127 72.7467 127 67.5C127 62.2533 122.299 58 116.5 58C110.701 58 106 62.2533 106 67.5C106 72.7467 110.701 77 116.5 77Z" fill="#313551"/>
</g>
<defs>
<filter id="milestones_projects_filter0_d" x="6" y="-0.000244141" width="188" height="165" filterUnits="userSpaceOnUse" color-interpolation-filters="sRGB">
<feFlood flood-opacity="0" result="BackgroundImageFix"/>
<feColorMatrix in="SourceAlpha" type="matrix" values="0 0 0 0 0 0 0 0 0 0 0 0 0 0 0 0 0 0 127 0" result="hardAlpha"/>
<feOffset dy="4"/>
<feGaussianBlur stdDeviation="2"/>
<feComposite in2="hardAlpha" operator="out"/>
<feColorMatrix type="matrix" values="0 0 0 0 0 0 0 0 0 0 0 0 0 0 0 0 0 0 0.25 0"/>
<feBlend mode="normal" in2="BackgroundImageFix" result="effect1_dropShadow"/>
<feBlend mode="normal" in="SourceGraphic" in2="effect1_dropShadow" result="shape"/>
</filter>
<filter id="milestones_projects_filter1_d" x="37.0788" y="-0.000244141" width="124.547" height="115.183" filterUnits="userSpaceOnUse" color-interpolation-filters="sRGB">
<feFlood flood-opacity="0" result="BackgroundImageFix"/>
<feColorMatrix in="SourceAlpha" type="matrix" values="0 0 0 0 0 0 0 0 0 0 0 0 0 0 0 0 0 0 127 0" result="hardAlpha"/>
<feOffset dy="4"/>
<feGaussianBlur stdDeviation="2"/>
<feComposite in2="hardAlpha" operator="out"/>
<feColorMatrix type="matrix" values="0 0 0 0 0 0 0 0 0 0 0 0 0 0 0 0 0 0 0.25 0"/>
<feBlend mode="normal" in2="BackgroundImageFix" result="effect1_dropShadow"/>
<feBlend mode="normal" in="SourceGraphic" in2="effect1_dropShadow" result="shape"/>
</filter>
<filter id="milestones_projects_filter2_d" x="0" y="101.182" width="200" height="69.8175" filterUnits="userSpaceOnUse" color-interpolation-filters="sRGB">
<feFlood flood-opacity="0" result="BackgroundImageFix"/>
<feColorMatrix in="SourceAlpha" type="matrix" values="0 0 0 0 0 0 0 0 0 0 0 0 0 0 0 0 0 0 127 0" result="hardAlpha"/>
<feOffset dy="4"/>
<feGaussianBlur stdDeviation="5"/>
<feComposite in2="hardAlpha" operator="out"/>
<feColorMatrix type="matrix" values="0 0 0 0 0 0 0 0 0 0 0 0 0 0 0 0 0 0 0.25 0"/>
<feBlend mode="normal" in2="BackgroundImageFix" result="effect1_dropShadow"/>
<feBlend mode="normal" in="SourceGraphic" in2="effect1_dropShadow" result="shape"/>
</filter>
</defs>
</svg>
