<svg width="170" height="175" viewBox="0 0 170 175" fill="none" xmlns="http://www.w3.org/2000/svg">
<g filter="url(#milestones_schools_filter0_d)">
<path d="M110.847 60.5832C106.211 50.696 109.177 45.8953 99.1603 35.2131L96.2387 37.8837C102.917 44.56 103.185 51.1047 104.586 59.248C105.838 66.5263 22.527 88.0012 4 102.867L11.6447 121.113C30.0187 106.525 115.482 70.4705 110.847 60.5832Z" fill="#DEB110"/>
<path d="M82.9447 49.7615L33.4868 27.5845L85.9802 -0.000244141L135.438 22.1797L82.9447 49.7615Z" fill="#002F58"/>
<path d="M126.147 43.5536C126.147 37.448 121.179 20.5277 116.487 13.8718L126.147 17.1098C130.022 24.3054 134.102 40.8553 134.714 43.5536C135.519 47.1035 134.714 50.5693 134.102 53.8074C133.613 56.3978 133.694 57.7649 131.042 60.8231L124.311 56.5057L127.255 53.3899C126.826 53.4262 126.147 49.4638 126.147 43.5536Z" fill="#FFD748"/>
<path d="M108.583 153.086C142.503 140.984 160.581 105.801 148.963 74.5039C137.344 43.2065 100.428 27.646 66.5086 39.7485C32.5892 51.8509 14.5109 87.0334 26.1295 118.331C37.7482 149.628 74.6641 165.189 108.583 153.086Z" fill="#56A8E3"/>
<path d="M107.34 58.7116C103.345 47.9547 93.7148 45.4219 102.696 38.5998C109.616 33.342 130.131 46.5488 138.389 55.9451C141.887 59.929 155.478 79.6902 145.947 74.5756C138.366 70.5088 110.996 85.8904 105.898 77.7077C99.9853 68.1984 111.334 69.4685 107.34 58.7116Z" fill="#5DDDA0"/>
<path d="M26.3694 79.1999C26.8461 70.5574 42.5819 49.1642 59.0481 42.0745C63.7962 40.0317 56.603 58.7188 58.5829 65.8348C60.5629 72.9508 77.502 60.2452 77.502 64.8774C77.502 68.3525 75.7835 75.2989 68.152 76.6822C57.5487 78.6006 53.116 94.0878 46.7455 94.0878C44.112 94.0878 44.3619 106.379 46.288 113.532C46.7225 115.146 55.2766 125.974 55.4765 128.465C55.6995 131.217 41.6169 120.705 41.071 120.464C35.4925 117.999 26.0503 84.9817 26.3694 79.1999Z" fill="#5DDDA0"/>
<path d="M60.3939 126.767C58.437 118.607 58.7061 119.229 67.5947 117.178C69.8169 116.666 73.1271 109.127 75.7183 109.546C83.492 110.801 92.8843 94.3188 94.3529 100.436C94.9142 102.78 97.3594 116.519 94.5605 124.189C89.824 137.177 93.3995 150.177 90.9274 155.103C89.3627 158.216 84.3647 157.112 81.8388 156.874C77.3099 156.448 76.9755 140.663 73.3846 137.407C69.7669 134.132 61.3781 130.86 60.3939 126.767Z" fill="#5DDDA0"/>
<path d="M57.7893 37.8903C57.1723 31.6875 67.8351 25.6486 83.4863 23.9069C99.1348 22.1652 113.724 26.7844 114.341 32.9872C114.548 35.0684 117.483 48.2673 115.325 52.623C111.045 61.2525 93.9472 57.5759 83.5112 58.2023C76.0909 58.6473 64.623 66.1995 59.0896 58.2316C56.3257 54.2506 57.994 39.9569 57.7893 37.8903Z" fill="#FFD748" stroke="#025094" stroke-miterlimit="10"/>
<path d="M88.1847 63.3525C108.296 60.2894 116.487 57.6217 116.487 48.5516C117.486 37.5778 100.942 36.667 85.3618 38.4145C69.7817 40.1621 57.5129 42.4536 57.5129 54.4205C58.014 59.5012 62.4274 65.6248 88.1847 63.3525Z" fill="#002F58"/>
<path d="M91.9145 120.045C71.3829 130.289 24.75 112.576 4 102.439V120.045C4 127.728 62.6096 137.119 91.9145 140.853V120.045Z" fill="#FFD748"/>
</g>
<defs>
<filter id="milestones_schools_filter0_d" x="0" y="-0.000244141" width="156.483" height="165.258" filterUnits="userSpaceOnUse" color-interpolation-filters="sRGB">
<feFlood flood-opacity="0" result="BackgroundImageFix"/>
<feColorMatrix in="SourceAlpha" type="matrix" values="0 0 0 0 0 0 0 0 0 0 0 0 0 0 0 0 0 0 127 0" result="hardAlpha"/>
<feOffset dy="4"/>
<feGaussianBlur stdDeviation="2"/>
<feComposite in2="hardAlpha" operator="out"/>
<feColorMatrix type="matrix" values="0 0 0 0 0 0 0 0 0 0 0 0 0 0 0 0 0 0 0.25 0"/>
<feBlend mode="normal" in2="BackgroundImageFix" result="effect1_dropShadow"/>
<feBlend mode="normal" in="SourceGraphic" in2="effect1_dropShadow" result="shape"/>
</filter>
</defs>
</svg>
