<svg width="192" height="185" viewBox="0 0 192 185" fill="none" xmlns="http://www.w3.org/2000/svg">
<g filter="url(#milestones_attendees_filter0_d)">
<path d="M48 123.697L63.7797 91H125.319L141.729 123.697H48Z" fill="#97DAFF"/>
<path d="M141.729 123.697H48V176.982H94.8646H141.729V123.697Z" fill="#60A5CD"/>
<path d="M150.708 -0.000244141H44.9284V71.4498H150.708V-0.000244141Z" fill="#85CBF3"/>
<path d="M142.913 9.83032H37.1325V81.2803H142.913V9.83032Z" fill="white"/>
<path d="M56.9494 22.624H55.6104V66.2206H56.9494V22.624Z" fill="#0391CE" stroke="#0391CE" stroke-miterlimit="10"/>
<path d="M73.0173 43.2117H64.9834V65.01H73.0173V43.2117Z" fill="#5CB88C"/>
<path d="M83.7293 40.79H75.6954V65.0104H83.7293V40.79Z" fill="#40AD9A"/>
<path d="M94.441 39.5785H86.4071V65.0098H94.441V39.5785Z" fill="#28A4B5"/>
<path d="M103.814 29.891H97.1195V65.0105H103.814V29.891Z" fill="#2871B5"/>
<path d="M115.865 23.8351H107.831V65.0097H115.865V23.8351Z" fill="#4F4CE7"/>
<path d="M123.899 66.2209V65.0099L55.6107 65.0099V66.2209L123.899 66.2209Z" fill="#0391CE" stroke="#0391CE" stroke-miterlimit="10"/>
<path d="M168.01 79.3822C178.25 78.8666 186.054 71.0103 185.441 61.8345C184.828 52.6587 176.03 45.6382 165.79 46.1538C155.55 46.6693 147.746 54.5257 148.359 63.7015C148.972 72.8772 157.77 79.8977 168.01 79.3822Z" fill="#80E7EE"/>
<path d="M174.61 122.03H154.525V165.627H174.61V122.03Z" fill="#41BFC7"/>
<path d="M185.322 123.241H165.237V174.104H185.322V123.241Z" fill="#67D3DA"/>
<path d="M37.4747 112.924H17.3899V151.676H37.4747V112.924Z" fill="#41BFC7"/>
<path d="M26.7628 112.924H6.67793V164.997H26.7628V112.924Z" fill="#67D3DA"/>
<path d="M157.665 82.9029C169.625 86.4549 170.892 81.3712 181.242 80.8624C191.591 80.3535 186.767 106.684 187.511 117.611C188.259 128.538 168.954 124.991 158.604 125.5C148.254 126.009 144.352 78.9472 157.665 82.9029Z" fill="#80E7EE"/>
<path d="M25.2811 74.7404C35.3626 74.5189 43.2939 66.5004 42.9963 56.8307C42.6986 47.1609 34.2846 39.5016 24.2031 39.7232C14.1216 39.9447 6.19028 47.9632 6.48794 57.6329C6.78561 67.3026 15.1996 74.9619 25.2811 74.7404Z" fill="#80E7EE"/>
<path d="M33.0143 77.574C21.5849 81.0579 20.4007 76.1474 10.5325 75.7012C0.664291 75.2551 5.12707 100.672 4.35529 111.234C3.58646 121.796 22.0208 118.287 31.889 118.736C41.7602 119.182 45.7369 73.6963 33.0143 77.574Z" fill="#80E7EE"/>
</g>
<defs>
<filter id="milestones_attendees_filter0_d" x="0" y="-0.000244141" width="192" height="184.982" filterUnits="userSpaceOnUse" color-interpolation-filters="sRGB">
<feFlood flood-opacity="0" result="BackgroundImageFix"/>
<feColorMatrix in="SourceAlpha" type="matrix" values="0 0 0 0 0 0 0 0 0 0 0 0 0 0 0 0 0 0 127 0" result="hardAlpha"/>
<feOffset dy="4"/>
<feGaussianBlur stdDeviation="2"/>
<feComposite in2="hardAlpha" operator="out"/>
<feColorMatrix type="matrix" values="0 0 0 0 0 0 0 0 0 0 0 0 0 0 0 0 0 0 0.25 0"/>
<feBlend mode="normal" in2="BackgroundImageFix" result="effect1_dropShadow"/>
<feBlend mode="normal" in="SourceGraphic" in2="effect1_dropShadow" result="shape"/>
</filter>
</defs>
</svg>
