<svg width="162" height="47" viewBox="0 0 162 47" fill="none" xmlns="http://www.w3.org/2000/svg">
<path fill-rule="evenodd" clip-rule="evenodd" d="M125.005 40.2564V40.1873H0.99469V46.7873H122.972C123.326 46.9273 123.714 47.0017 124.124 46.995C129.042 46.9153 133.909 45.8939 138.459 43.975C144.042 41.6207 148.991 37.982 152.902 33.3547C156.814 28.7274 159.578 23.2422 160.97 17.3453C162.105 12.5389 162.302 7.5695 161.562 2.70765C161.283 0.87637 159.454 -0.22782 157.654 0.209153C155.854 0.646126 154.768 2.45932 155.013 4.29541C155.524 8.12513 155.334 12.0256 154.442 15.8041C153.292 20.6736 151.009 25.2031 147.779 29.0242C144.549 32.8452 140.463 35.85 135.853 37.794C132.401 39.2498 128.728 40.08 125.005 40.2564Z" fill="#D3DDFF"/>
</svg>
