<svg viewBox="0 0 1439 1047" fill="none" xmlns="http://www.w3.org/2000/svg">
    <path d="M1282.86 414.233C1152.25 414.233 1129.91 384.71 1092.08 384.71C1054.26 384.71 1052.05 396.746 987.209 396.746C942.395 396.746 947.928 370.582 867.551 370.582C787.173 370.582 755.903 403.486 621.021 413.606C472.782 424.728 364.227 442.474 364.227 442.474L364.955 463.749L1394.5 433C1394.5 433 1347.64 414.233 1282.86 414.233Z" fill="url(#footer_graphics_paint0_linear_21:5)"/>
    <path d="M389.372 438.672C389.372 438.672 309.532 443.179 239.317 438.695C169.103 434.211 0.383362 480.551 0.383362 480.551V1020.06L1439 1021V433.5L389.372 438.672Z" fill="#4A3884"/>
    <path d="M0.383362 370.605C0.383362 370.605 36.1555 369.111 86.1961 390.038C136.237 410.966 170.597 397.317 201.969 402.647C233.342 407.977 254.257 430.399 272.184 437.873C272.184 437.873 299.454 442.104 312.709 452.695C325.965 463.286 0.383362 487.203 0.383362 487.203V370.605Z" fill="url(#footer_graphics_paint1_linear_21:5)"/>
    <path d="M1663 0.426919C1656.8 0.163854 1650.58 0 1644.32 0C1405.56 0 1212 193.637 1212 432.5C1212 671.363 1405.56 865 1644.32 865C1650.58 865 1656.8 864.836 1663 864.573V0.426919Z" fill="url(#footer_graphics_paint2_radial_21:5)"/>
    <path d="M1440.19 397.826C1437.53 397.277 1434.81 397.001 1432.1 397C1411.06 397 1394 413.193 1394 433.168C1394 453.143 1411.06 469.336 1432.1 469.336C1434.81 469.336 1437.53 469.059 1440.19 468.51V397.826Z" fill="white"/>
    <path d="M0 423.364C0 423.364 24.9594 413.413 75 434.341C125.041 455.269 114.128 464.012 145.5 469.341C176.872 474.671 192.073 478.867 210 486.341C210 486.341 240.244 509.25 253.5 519.841C266.756 530.432 0 539.962 0 539.962V423.364Z" fill="url(#footer_graphics_paint3_linear_21:5)"/>
    <path d="M0.383362 753.984C31.7206 718.944 87.8044 683.444 219.592 680.725C352.864 677.975 458.754 643.819 539.132 621.039C758.841 558.77 944.616 570.742 994.078 561.118C1043.54 551.495 1123.23 555.619 1123.23 555.619V792.576H0.383362V753.984Z" fill="#002B80"/>
    <path d="M39.0239 523.601L32.2321 557.259L0.382996 715.088L17.1983 731.032L0.382996 792.576L32.0927 792.257L32.5701 810.114H45.7954L45.9551 792.416H77.664L61.9714 731.525L75.9642 716.677L39.0239 523.601Z" fill="#001A60"/>
    <path d="M63.0582 709.986L32.2321 557.259L0.382996 715.088L17.1983 731.032L0.382996 792.576L63.0582 792.417L45.4237 727.419L63.0582 709.986Z" fill="#040F43"/>
    <path d="M102.464 568.479L92.2706 596.085L44.4763 725.535L69.7105 738.612L44.4763 789.09L92.0615 788.828L92.7788 803.474H112.626L112.865 788.959H160.451L136.901 739.017L157.9 726.838L102.464 568.479Z" fill="#001A60"/>
    <path d="M138.531 721.351L92.2706 596.085L44.4763 725.535L69.7105 738.612L44.4763 789.09L138.531 788.959L112.068 735.648L138.531 721.351Z" fill="#040F43"/>
    <path d="M168.25 549.36L158.058 576.966L110.263 706.415L135.497 719.493L110.263 769.971L157.849 769.709L158.566 784.355H178.413L178.652 769.839H226.237L202.687 719.897L223.686 707.719L168.25 549.36Z" fill="#001A60"/>
    <path d="M264.878 495.008L258.085 528.667L226.237 686.495L243.052 702.44L226.237 763.984L257.946 763.664L258.424 781.522H271.649L271.809 763.824H303.518L287.826 702.933L301.818 688.084L264.878 495.008Z" fill="#001A60"/>
    <path d="M288.911 681.394L258.085 528.667L226.237 686.496L243.052 702.44L226.237 763.984L288.911 763.824L271.278 698.826L288.911 681.394Z" fill="#040F43"/>
    <path d="M340.924 575.09L332.814 602.696L294.787 732.146L314.864 745.223L294.787 795.701L332.647 795.439L333.218 810.085H349.009L349.2 795.57H387.059L368.323 745.628L385.03 733.449L340.924 575.09Z" fill="#040F43"/>
    <path d="M394.724 541.728L384.531 569.334L336.737 698.783L361.971 711.861L336.737 762.338L384.322 762.077L385.039 776.723H404.887L405.126 762.207H452.711L429.161 712.265L450.16 700.087L394.724 541.728Z" fill="#001A60"/>
    <path d="M430.791 694.599L384.531 569.334L336.737 698.783L361.971 711.861L336.737 762.339L430.791 762.207L404.328 708.896L430.791 694.599Z" fill="#040F43"/>
    <path d="M507.471 559.444L500.679 593.102L468.83 750.932L485.645 766.876L468.83 828.419L500.539 828.101L501.017 845.958H514.242L514.402 828.26H546.111L530.418 767.369L544.411 752.52L507.471 559.444Z" fill="#001A60"/>
    <path d="M531.504 745.829L500.679 593.103L468.83 750.932L485.645 766.876L468.83 828.42L531.504 828.26L513.871 763.262L531.504 745.829Z" fill="#040F43"/>
    <path d="M583.517 621.855L575.407 649.461L537.38 778.911L557.457 791.989L537.38 842.466L575.241 842.205L575.811 856.851H591.602L591.793 842.335H629.652L610.915 792.393L627.623 780.214L583.517 621.855Z" fill="#040F43"/>
    <path d="M639.489 590.387L629.297 617.993L581.502 747.442L606.736 760.52L581.502 810.997L629.087 810.736L629.805 825.382H649.652L649.891 810.866H697.477L673.926 760.924L694.925 748.746L639.489 590.387Z" fill="#001A60"/>
    <path d="M675.557 743.258L629.297 617.993L581.502 747.443L606.736 760.52L581.502 810.998L675.557 810.867L649.094 757.556L675.557 743.258Z" fill="#040F43"/>
    <path d="M394.724 627.497C397.679 627.497 400.075 625.099 400.075 622.142C400.075 619.185 397.679 616.787 394.724 616.787C391.768 616.787 389.372 619.185 389.372 622.142C389.372 625.099 391.768 627.497 394.724 627.497Z" fill="#36236F"/>
    <path d="M261.208 603.776C264.164 603.776 266.56 601.378 266.56 598.421C266.56 595.463 264.164 593.066 261.208 593.066C258.253 593.066 255.857 595.463 255.857 598.421C255.857 601.378 258.253 603.776 261.208 603.776Z" fill="#36236F"/>
    <path d="M374.049 705.787C377.004 705.787 379.4 703.389 379.4 700.432C379.4 697.475 377.004 695.077 374.049 695.077C371.093 695.077 368.697 697.475 368.697 700.432C368.697 703.389 371.093 705.787 374.049 705.787Z" fill="#001A60"/>
    <path d="M1439 432.923C1439 432.923 1429.31 432.923 1194.03 432.923C958.759 432.923 584.265 451.947 583.942 456.878C583.693 460.673 627.079 457.459 624.81 462.106C623.326 465.144 611.212 465.039 589.216 467.937C517.109 477.436 600.087 497.063 700.461 503.676C805.431 510.591 949.933 514.828 1147.94 514.997C1285.4 515.115 1402.08 511.367 1439 506.618" fill="#C6EEFF"/>
    <path d="M147.585 691.332C150.541 691.332 152.937 688.934 152.937 685.977C152.937 683.02 150.541 680.622 147.585 680.622C144.63 680.622 142.234 683.02 142.234 685.977C142.234 688.934 144.63 691.332 147.585 691.332Z" fill="#36236F"/>
    <path d="M1439.11 442.097C1439.11 442.097 1111.61 452.069 1004.92 531.074C898.219 610.079 687.732 656.498 485.352 701.059C364.227 727.729 373.784 735.43 257.574 739.353C89.9343 745.012 12.6942 767.98 0 776.723V1047H1438.99L1439.11 442.097Z" fill="#020D51"/>
    <path d="M1233.26 493.037L1292.98 489.181L1262.71 503.264C1260.25 504.41 1257.59 505.086 1254.88 505.258L1199.25 508.791L1233.26 493.037Z" fill="#CCCCCC"/>
    <path d="M1196.34 510.041C1196.34 510.041 1197.72 512.278 1199.6 512.126C1201.48 511.974 1200.92 509.24 1200.92 509.24L1198.65 506.646L1196.34 510.041Z" fill="#CCCCCC"/>
    <path d="M1215.24 460.525L1230.34 494.225L1196.34 510.041L1180.74 474.883C1180.54 474.425 1180.43 473.93 1180.42 473.428C1180.41 472.926 1180.51 472.428 1180.69 471.963C1180.88 471.497 1181.16 471.074 1181.51 470.718C1181.87 470.362 1182.29 470.081 1182.75 469.891L1210.4 458.588C1211.3 458.22 1212.31 458.217 1213.21 458.578C1214.11 458.939 1214.84 459.637 1215.24 460.525Z" fill="#CCCCCC"/>
    <path d="M1013.82 616.647L1013.37 632.222L1122.97 636.613L1123.23 621.039L1013.82 616.647Z" fill="#825E04"/>
    <path d="M1218.15 459.274L1233.25 492.974L1199.25 508.791L1183.66 473.633C1183.45 473.174 1183.34 472.679 1183.33 472.178C1183.33 471.676 1183.42 471.178 1183.6 470.712C1183.79 470.247 1184.07 469.823 1184.42 469.468C1184.78 469.112 1185.2 468.831 1185.66 468.641L1213.31 457.338C1214.21 456.97 1215.22 456.966 1216.12 457.328C1217.02 457.689 1217.75 458.387 1218.15 459.274Z" fill="#354D51"/>
    <path d="M1233.61 496.373L1293.33 492.517L1263.06 506.6C1260.6 507.745 1257.94 508.422 1255.23 508.594L1199.6 512.126L1233.61 496.373Z" fill="#CCCCCC"/>
    <path d="M1199.25 508.79L1199.6 512.126L1256.64 507.512L1256.24 503.757L1199.25 508.79Z" fill="#CCCCCC"/>
    <path d="M1192.86 472.355L1187.07 474.717C1186.83 474.814 1186.72 475.084 1186.81 475.321C1186.91 475.558 1187.18 475.672 1187.42 475.575L1193.21 473.213C1193.44 473.117 1193.56 472.846 1193.46 472.609C1193.36 472.372 1193.09 472.259 1192.86 472.355Z" fill="#898989"/>
    <path d="M1218.15 459.274L1183.66 473.633C1183.45 473.174 1183.34 472.679 1183.33 472.178C1183.33 471.676 1183.42 471.178 1183.6 470.712C1183.79 470.247 1184.07 469.823 1184.42 469.468C1184.78 469.112 1185.2 468.831 1185.66 468.641L1213.31 457.338C1214.21 456.97 1215.22 456.966 1216.12 457.328C1217.02 457.689 1217.75 458.387 1218.15 459.274Z" fill="#8AB1BA"/>
    <path d="M1293.09 415.801V406.592C1293.09 406.592 1284.55 408.719 1284.81 402.67C1285.09 396.408 1283.01 396.277 1282.99 392.92C1282.98 390.239 1285.12 388.346 1285.43 385.447C1285.74 382.548 1286.05 382.207 1285.74 381.184L1295.2 378.866L1306.83 384.687L1309.46 394.043V401.205C1309.46 401.205 1309.91 409.43 1310.99 410.282C1312.07 411.135 1301.4 417.063 1301.4 417.063H1294.27L1293.09 415.801Z" fill="#B46B4F"/>
    <path d="M1286.01 383.334C1285.7 382.311 1283.84 383.334 1283.84 380.776C1283.84 378.219 1285.68 373.614 1288.09 372.08C1290.51 370.545 1298.05 369.181 1299.32 369.01C1300.58 368.84 1304.29 370.886 1305.61 371.227C1306.94 371.568 1311.59 372.762 1312.52 374.126C1313.45 375.49 1315.31 380.094 1315.46 384.528C1315.62 388.962 1315.93 395.271 1315.46 396.806C1315 398.341 1313.14 403.456 1311.9 404.309C1310.66 405.162 1308.33 405.673 1306.63 404.65C1304.92 403.627 1299.24 401.545 1299.33 399.498C1299.41 397.452 1301.12 396.429 1301.12 394.553C1301.12 392.677 1300.95 389.608 1299.33 389.267C1298.99 389.213 1298.63 389.228 1298.3 389.311C1297.96 389.393 1297.64 389.542 1297.36 389.748C1297.08 389.954 1296.84 390.213 1296.66 390.511C1296.48 390.809 1296.37 391.14 1296.31 391.484C1296.31 392.507 1296.47 394.383 1295.23 394.383C1293.99 394.383 1293.63 391.995 1293.04 389.949C1292.44 387.903 1291.35 389.608 1291.04 388.414C1290.54 386.838 1289.81 385.344 1288.87 383.981C1287.94 382.616 1286.39 382.446 1285 382.446C1283.6 382.446 1286.01 383.334 1286.01 383.334" fill="#2E3231"/>
    <path d="M1301.54 435.931C1301.54 435.931 1289.99 435.383 1287.81 436.205C1285.26 437.164 1262.31 433.101 1261.43 432.023C1258.88 428.902 1248.8 424.827 1250.16 427.487C1250.97 429.068 1248.97 427.696 1246.29 429.304C1244.76 430.217 1246.77 435.064 1249.03 436.851C1251.3 438.638 1258.22 438.597 1261.18 439.415C1264.13 440.234 1285.43 445.207 1287.92 444.791C1290.4 444.375 1302.01 441.611 1304.4 440.41" fill="#B46B4F"/>
    <path d="M1261.66 464.882C1261.66 464.882 1251.51 470.599 1250.56 472.728C1249.44 475.216 1230.38 488.64 1229 488.505C1224.99 488.112 1214.99 492.402 1217.84 493.309C1219.53 493.849 1217.15 494.301 1216.4 497.339C1215.97 499.064 1220.82 501.058 1223.69 500.709C1226.55 500.36 1231.4 495.416 1234.06 493.894C1236.73 492.372 1255.26 480.763 1256.72 478.703C1258.18 476.644 1264.4 466.458 1265.23 463.915" fill="#B46B4F"/>
    <path d="M1309.53 446.538C1309.53 446.538 1302.97 449.933 1299.35 449.709C1295.72 449.486 1280.18 445.622 1274.39 443.762C1268.6 441.903 1267.72 441.535 1267.57 440.858C1267.41 440.18 1268.08 433.304 1269.44 432.987C1270.79 432.67 1295.76 437.888 1297.69 437.193C1299.61 436.498 1309.7 433.842 1317.94 419.303C1326.18 404.764 1309.53 446.538 1309.53 446.538Z" fill="#E1A01F"/>
    <path d="M1314.51 483.472C1314.51 483.472 1327.24 458.309 1331.22 434.298C1334.07 417.17 1326.67 407.355 1321.38 406.482C1316.16 405.624 1314.66 407.633 1309.02 410.625C1306.96 411.72 1307.01 411.496 1302.88 412.874C1300.08 413.807 1296.07 413.957 1294.21 413.957C1292.34 413.957 1282.79 426.453 1279.68 439.63C1276.57 452.855 1277.03 457.072 1277.51 464.057C1277.97 470.903 1276.1 480.238 1277.04 482.416C1277.98 484.595 1314.51 483.472 1314.51 483.472Z" fill="#E6AA1D"/>
    <path d="M1298.2 415.582C1297.11 414.96 1297.42 414.493 1291.98 414.026C1286.54 413.56 1282.5 415.115 1279.39 418.538C1276.28 421.961 1276.02 424.141 1274.08 427.785C1272.29 431.134 1268.97 443.277 1268.81 446.544C1268.66 449.812 1267.85 458.286 1267.17 459.769C1266.35 461.589 1250.78 470.661 1245.8 474.084C1240.82 477.507 1232.43 484.975 1232.27 485.753C1232.12 486.53 1233.52 488.553 1235.07 489.798C1236.63 491.043 1239.89 492.443 1240.67 492.443C1240.67 492.443 1259.33 484.3 1261.66 482.848C1263.99 481.396 1279.7 472.994 1281.56 470.194C1283.43 467.393 1297.11 436.275 1298.2 434.253" fill="#E6AA1D"/>
    <path d="M1199.92 600.606C1198.6 602.097 1188.78 601.918 1186.82 600.606C1184.85 599.295 1189.8 574.573 1192.61 564.117C1194.55 556.887 1193.7 547.745 1196.03 537.11C1199 523.549 1206.8 507.571 1245.75 504.618C1275.07 502.396 1275.9 484.745 1276.22 483.762C1276.55 482.778 1314.87 483.713 1314.87 483.713C1314.87 483.713 1313.77 500.923 1312.78 508.791C1311.8 516.659 1306.04 524.148 1291.25 531.296C1265.47 543.755 1240.66 529.365 1227.29 538.426C1224.57 540.265 1215.72 557.745 1213.73 565.518C1212.2 571.517 1211.51 565.245 1209.94 571.546C1208.04 579.189 1202.54 597.656 1199.92 600.606Z" fill="#222B65"/>
    <path d="M1224.77 592.193C1223.45 593.684 1213.63 593.505 1211.67 592.193C1209.7 590.882 1213.72 573.333 1216.52 562.877C1218.46 555.647 1217.62 546.505 1219.94 535.871C1222.91 522.31 1206.8 507.571 1245.75 504.618C1275.07 502.396 1275.9 484.745 1276.22 483.762C1276.55 482.778 1314.87 483.713 1314.87 483.713C1314.87 483.713 1313.77 500.923 1312.78 508.791C1311.8 516.659 1306.04 524.148 1291.25 531.296C1265.47 543.755 1264.57 528.125 1251.2 537.186C1248.49 539.026 1241.4 539.266 1239.41 547.039C1237.88 553.039 1236.36 556.832 1234.8 563.134C1232.9 570.776 1227.4 589.242 1224.77 592.193Z" fill="#222B65"/>
    <path d="M1187.29 600.49C1187.29 600.49 1188.5 605.716 1186.96 606.482C1185.41 607.249 1183.95 608.532 1182.53 608.964C1181.11 609.397 1185.1 612.013 1187.32 611.798C1189.55 611.582 1193.03 609.9 1194.8 610.171C1196.58 610.442 1198.51 611.406 1199.35 610.77C1200.18 610.134 1200.83 602.075 1199.92 600.606C1199.01 599.137 1187.29 600.49 1187.29 600.49Z" fill="#B46B4F"/>
    <path d="M1202.34 617.339C1202.34 617.339 1169.96 617.68 1168.6 617.339C1167.23 616.997 1164.51 613.928 1168.6 612.905C1172.69 611.882 1183.14 607.789 1184.39 606.766C1185.64 605.743 1185.64 605.402 1190.07 606.766C1192.93 607.708 1195.92 608.168 1198.93 608.13C1200.64 608.13 1202.34 611.2 1202.34 617.339Z" fill="#2B2B2B"/>
    <path d="M1228.62 604.881C1228.62 604.881 1215.38 611.923 1213.98 611.968C1213.29 611.991 1200.8 610.063 1195.77 609.473C1192.89 609.136 1193.28 606.864 1195.14 605.792C1198.8 603.688 1207.64 602.941 1208.46 599.627C1208.84 598.058 1209.29 597.973 1213.92 598.072C1216.93 598.195 1219.94 597.818 1222.82 596.957C1224.46 596.491 1226.94 598.977 1228.62 604.881Z" fill="#2B2B2B"/>
    <path d="M1212.37 591.527C1212.37 591.527 1213.57 596.752 1212.03 597.519C1210.49 598.285 1209.02 599.569 1207.6 600.001C1206.19 600.433 1210.17 603.05 1212.4 602.834C1214.62 602.618 1218.1 600.937 1219.88 601.208C1221.65 601.479 1223.59 602.443 1224.42 601.807C1225.25 601.17 1225.91 593.112 1225 591.643C1224.08 590.173 1212.37 591.527 1212.37 591.527Z" fill="#B46B4F"/>
    <path d="M1087.25 552.13L1144.19 548.454L1115.33 561.881C1112.98 562.973 1110.45 563.618 1107.86 563.782L1054.82 567.15L1087.25 552.13Z" fill="#CCCCCC"/>
    <path d="M1052.05 568.342C1052.05 568.342 1053.37 570.475 1055.16 570.33C1056.95 570.184 1056.41 567.577 1056.41 567.577L1054.25 565.104L1052.05 568.342Z" fill="#CCCCCC"/>
    <path d="M1070.06 521.132L1084.46 553.262L1052.05 568.342L1037.18 534.822C1036.98 534.385 1036.88 533.913 1036.87 533.435C1036.86 532.956 1036.95 532.481 1037.13 532.037C1037.31 531.594 1037.57 531.19 1037.91 530.851C1038.25 530.512 1038.65 530.244 1039.09 530.063L1065.45 519.286C1066.31 518.935 1067.27 518.932 1068.13 519.276C1068.99 519.621 1069.68 520.286 1070.06 521.132Z" fill="#CCCCCC"/>
    <path d="M1072.84 519.94L1087.24 552.07L1054.82 567.15L1039.95 533.63C1039.76 533.193 1039.66 532.721 1039.65 532.242C1039.64 531.764 1039.73 531.289 1039.91 530.845C1040.08 530.401 1040.35 529.998 1040.69 529.659C1041.02 529.319 1041.43 529.051 1041.87 528.87L1068.23 518.094C1069.08 517.743 1070.05 517.739 1070.91 518.084C1071.77 518.428 1072.46 519.094 1072.84 519.94Z" fill="#354D51"/>
    <path d="M1087.58 555.31L1144.52 551.634L1115.66 565.061C1113.31 566.153 1110.78 566.798 1108.2 566.962L1055.16 570.33L1087.58 555.31Z" fill="#CCCCCC"/>
    <path d="M1054.82 567.15L1055.16 570.33L1109.53 565.931L1109.16 562.351L1054.82 567.15Z" fill="#CCCCCC"/>
    <path d="M1048.73 532.412L1043.21 534.664C1042.98 534.756 1042.87 535.014 1042.96 535.24C1043.06 535.466 1043.31 535.574 1043.54 535.482L1049.06 533.23C1049.29 533.138 1049.39 532.88 1049.3 532.654C1049.21 532.428 1048.95 532.32 1048.73 532.412Z" fill="#898989"/>
    <path d="M1072.84 519.94L1039.95 533.63C1039.76 533.192 1039.66 532.721 1039.65 532.242C1039.64 531.764 1039.73 531.289 1039.91 530.845C1040.08 530.401 1040.35 529.998 1040.69 529.659C1041.02 529.319 1041.43 529.051 1041.87 528.87L1068.23 518.094C1069.08 517.743 1070.05 517.739 1070.91 518.084C1071.77 518.428 1072.46 519.094 1072.84 519.94Z" fill="#8AB1BA"/>
    <path d="M1157.35 480.565C1155.49 480.882 1152.26 483.161 1150.76 484.373C1146.61 487.733 1146.59 491.492 1145.55 495.68C1143.9 502.274 1132.12 492.896 1130.63 497.358C1129.05 502.083 1130.43 522.561 1127.94 526.938C1126.41 529.617 1124.52 531.891 1118.47 536.738C1112.23 541.737 1111.93 543.421 1104.89 547.115C1104.68 547.441 1104.55 547.814 1104.51 548.202C1104.48 548.59 1104.55 548.98 1104.7 549.337C1105.6 551.966 1104.72 549.576 1105.26 552.283C1105.39 552.98 1106.47 552.484 1107.09 552.944C1109.51 552.24 1109 552.59 1111.13 551.37C1116.49 548.501 1118.18 546.668 1123.29 543.711C1128.82 540.32 1135.09 537.35 1137.48 532.352C1141.27 524.388 1146.27 503.096 1149.53 501.632C1151.07 501.347 1162.45 510.689 1163.96 514.205" fill="#128FA5"/>
    <path d="M1176.72 485.315C1179.85 493.865 1178.9 503.092 1176.72 509.587C1174.02 517.638 1172.19 525.551 1172.19 525.551C1170.51 531.984 1169.62 538.599 1169.54 545.249C1156.93 545.256 1144.32 545.263 1131.71 545.271C1128 545.273 1137.17 545.313 1133.46 545.27C1132.33 545.257 1132.71 544.155 1131.96 545.094C1131.04 546.533 1129.88 528.788 1127.32 517.5C1126.47 513.767 1122.93 509.492 1122.93 499.256C1122.93 489.501 1128.23 480.36 1131.39 480.36C1134.15 480.36 1131.39 480.453 1135.94 480.956C1139.16 481.074 1143.68 481.085 1144.56 479.98C1144.8 479.674 1146.6 478.366 1146.98 478.433C1154.41 479.728 1158.88 478.729 1168.41 479.55C1169.89 479.563 1171.36 479.489 1172.83 479.327C1173.93 478.586 1168.64 478.962 1172.83 479.327C1174.26 479.382 1172.93 479.505 1174.04 481.525" fill="#0F97BC"/>
    <path d="M1074.67 655.33C1074.67 655.33 1073.65 657.907 1074.02 658.586C1074.39 659.266 1071.59 664.17 1069.75 666.355C1067.91 668.541 1069.14 667.206 1067.43 669.62C1065.8 671.913 1063.22 674.653 1064.94 676.913C1065.48 677.629 1088.17 663.875 1088.17 663.875L1083.39 656.301L1074.67 655.33Z" fill="#2B2B2B"/>
    <path d="M1052.42 661.535C1052.42 661.535 1051.51 665.546 1051.51 666.32C1051.51 667.094 1050.2 669.311 1047.54 670.346C1044.88 671.382 1044.01 671.641 1041.33 672.495C1035.8 674.258 1035.95 676.806 1035.8 677.694C1035.66 678.582 1059.02 677.395 1059.02 677.395L1057.8 668.863L1052.42 661.535Z" fill="#2B2B2B"/>
    <path d="M1106.52 598.258L1097.53 602.017C1097.53 602.017 1095.24 603.331 1093.38 613.231C1091.62 622.599 1092.42 618.719 1089.77 633.926C1088.97 638.532 1089.21 636.181 1083.28 658.92C1083.28 658.92 1075.1 660.593 1075.1 656.113C1075.1 643.799 1072.82 637.827 1073.28 615.58C1073.8 590.721 1071.98 597.07 1079.48 581.357C1083.91 572.066 1102.71 569.076 1111.1 572.231C1118.93 575.175 1113.92 585.885 1109.02 595.533L1106.52 598.258Z" fill="#DCA980"/>
    <path d="M1092.94 596.242L1090.81 596.946C1090.81 596.946 1086.56 596.059 1082.48 604.907C1078.25 614.103 1078.73 614.278 1073.25 628.168C1071.59 632.376 1067.9 647.356 1057.45 668.593C1057.45 668.593 1049.59 670.782 1050.82 664.909C1052.82 655.393 1051.28 640.366 1057.18 615.552C1062.8 591.863 1062.28 585.678 1069.07 577.543C1075.45 569.918 1087.58 572.534 1098.37 571.574C1106.56 570.844 1101.81 588.157 1095.23 596.268L1092.94 596.242Z" fill="#E7B991"/>
    <path d="M1108.29 546.542C1108.85 546.502 1109.4 546.419 1109.95 546.292C1110.59 548.005 1110.57 550.118 1111.05 551.889C1108.38 553.283 1104.72 553.074 1101.75 553.226C1100.85 553.273 1095.02 553.236 1094.44 551.889C1093.79 550.401 1097.8 547.812 1101.35 547.117C1102.45 546.863 1103.58 546.719 1104.71 546.687C1106.08 546.546 1107.3 546.648 1108.29 546.542Z" fill="black"/>
    <path d="M1088.74 597.925L1091.08 597.897L1099.81 597.893C1099.81 597.893 1110.22 598.025 1121.01 597.903C1131.8 597.781 1148.62 597.545 1155.84 595.673C1163.05 593.801 1166.84 588.559 1170.68 581.975C1175.19 574.239 1174.05 565.683 1173.47 561.742C1172.89 557.801 1169.64 544.621 1169.64 544.621C1169.64 544.621 1164.92 544.624 1161.61 544.643C1158.29 544.663 1131.81 544.643 1131.81 544.643C1129.2 545.906 1130.59 550.518 1128.2 555.152C1124.78 561.774 1118.57 563.236 1109.87 566.101C1102.79 568.581 1095.45 570.22 1087.99 570.983C1087.99 570.983 1081.56 573.424 1082.44 581.414C1083.33 589.403 1087.49 596.681 1088.74 597.925Z" fill="#869CA2"/>
    <path d="M1147.15 488.243C1147.15 488.243 1156.69 529.446 1148.57 538.681C1141.28 546.968 1099.6 559.331 1098.66 559.796C1097.72 560.261 1092.92 561.111 1091.25 561.491C1089.59 561.872 1087.38 554.373 1089.51 553.884C1091.65 553.395 1115.96 538.327 1130.48 535.005C1125.98 519.812 1128.34 494.018 1128.34 494.018" fill="#0F97BC"/>
    <path d="M1179.22 457.097C1182.97 459.289 1188.23 465.489 1189.73 470.926C1192.34 480.317 1192.22 486.791 1186.61 493.193C1177 501.772 1152.15 503.988 1143.15 488.392C1137.22 478.115 1130.83 470.112 1130.36 464.124C1129.21 456.125 1134.04 457.918 1130.25 451.848C1130.97 455.565 1118.45 453.31 1113.88 444.779C1110.76 438.971 1117.98 433.712 1123.9 430.855C1127.34 429.193 1124.49 429.868 1132.31 427.647C1134.38 426.859 1136.58 426.481 1138.79 426.532C1144.04 426.918 1143.34 431.915 1146.73 435.992C1151.45 441.663 1151.03 440.116 1156.86 444.724C1160 447.1 1163.27 449.287 1166.66 451.272" fill="#444545"/>
    <path d="M1132.8 480.966C1132.8 480.966 1134.51 470.422 1132.76 468.347C1131.43 470.086 1128.78 470.55 1126.69 470.001C1124.79 469.501 1125.37 465.385 1125.11 464.037C1123.48 465.057 1122.86 463.84 1122.76 462.992C1122.55 461.207 1122.87 458.147 1122.8 455.227C1122.74 452.488 1120.86 449.837 1121 448.846C1121.13 447.855 1121.61 450.053 1124.41 450.141C1126.7 450.213 1127.47 448.72 1129.07 447.415C1130.67 446.11 1136.29 448.458 1134.45 454.116C1131.18 453.919 1135.74 461.966 1136.23 463.472C1136.72 464.978 1138.84 472.976 1139.87 474.141C1140.9 475.307 1139.58 481.94 1137.9 482.39C1136.21 482.84 1132.8 480.966 1132.8 480.966Z" fill="#E7B991"/>
    <path d="M1088.44 555.194C1088.79 555.13 1089.14 555.009 1089.46 554.837C1090.11 556.551 1090.22 559.447 1090.7 561.218C1088.02 562.612 1084.36 563.225 1081.4 563.377C1080.5 563.423 1074.67 563.386 1074.08 562.039C1073.44 560.551 1077.95 556.464 1081.5 555.769C1082.6 555.515 1083.73 555.371 1084.86 555.339C1086.23 555.198 1087.45 555.3 1088.44 555.194Z" fill="black"/>
    <path d="M1237.02 543.535L1346.62 545.856L1123.41 621.039L1013.82 616.647L1237.02 543.535Z" fill="#825E04"/>
    <path d="M1287.37 567.191L1273.14 567.485L1270.97 619.299L1285.19 618.917L1287.37 567.191Z" fill="#4F3703"/>
    <path d="M1136.65 624.832L1122.41 625.127L1120.24 676.94L1134.47 676.558L1136.65 624.832Z" fill="#4F3703"/>
    <path d="M1236.57 559.11L1346.17 561.431L1122.97 636.613L1013.37 632.222L1236.57 559.11Z" fill="#825E04"/>
    <path d="M1085.16 594.845L1087.5 594.817L1096.23 594.813C1096.23 594.813 1110.2 595.437 1120.99 595.315C1131.78 595.193 1148.62 598.077 1155.84 596.206C1163.05 594.334 1166.84 589.092 1170.68 582.508C1175.19 574.772 1174.05 566.216 1173.47 562.274C1172.89 558.333 1169.64 545.154 1169.64 545.154C1169.64 545.154 1164.92 545.157 1161.61 545.176C1158.29 545.195 1131.81 545.176 1131.81 545.176C1129.2 546.439 1130.59 551.051 1128.2 555.685C1124.78 562.307 1118.57 563.769 1109.87 566.634C1102.79 569.114 1095.45 570.753 1087.99 571.516C1087.99 571.516 1081.56 573.957 1082.44 581.946C1083.33 589.936 1083.91 593.601 1085.16 594.845Z" fill="#869CA2"/>
    <path d="M1346.17 561.431L1346.62 545.856L1290.66 560.982V567.15L1346.17 561.431Z" fill="#825E04"/>
    <path d="M1105.62 621.039L1126.35 547.619L1349.74 472.437L1329.01 545.856L1105.62 621.039Z" fill="#A57A00"/>
    <path d="M1123.23 621.039L1143.97 547.619L1367.35 472.437L1346.62 545.856L1123.23 621.039Z" fill="#A57A00"/>
    <path d="M1105.62 621.039H1123.23L1141.99 551.634L1126.35 547.619" fill="#A57A00"/>
    <path d="M1349.74 472.437H1367.35L1359.6 499.884L1338.7 495.159L1349.74 472.437Z" fill="#A57A00"/>
    <path d="M831.613 484.604L603.107 492.256L570 484.532L798.506 476.879L831.613 484.604Z" fill="#B5B5B5"/>
    <path d="M629.001 501.452C629.608 501.452 630.101 501.264 630.101 501.031C630.101 500.799 629.608 500.61 629.001 500.61C628.395 500.61 627.902 500.799 627.902 501.031C627.902 501.264 628.395 501.452 629.001 501.452Z" fill="#B5B5B5"/>
    <path d="M630.1 490.699H627.902V501.031H630.1V490.699Z" fill="#B5B5B5"/>
    <path d="M657.783 500.262C658.39 500.262 658.882 500.073 658.882 499.84C658.882 499.608 658.39 499.419 657.783 499.419C657.176 499.419 656.684 499.608 656.684 499.84C656.684 500.073 657.176 500.262 657.783 500.262Z" fill="#B5B5B5"/>
    <path d="M658.882 489.508H656.684V499.84H658.882V489.508Z" fill="#B5B5B5"/>
    <path d="M686.711 499.541C687.318 499.541 687.81 499.353 687.81 499.12C687.81 498.888 687.318 498.699 686.711 498.699C686.104 498.699 685.612 498.888 685.612 499.12C685.612 499.353 686.104 499.541 686.711 499.541Z" fill="#B5B5B5"/>
    <path d="M687.811 488.788H685.613V499.12H687.811V488.788Z" fill="#B5B5B5"/>
    <path d="M715.561 498.304C716.168 498.304 716.66 498.115 716.66 497.883C716.66 497.65 716.168 497.461 715.561 497.461C714.954 497.461 714.462 497.65 714.462 497.883C714.462 498.115 714.954 498.304 715.561 498.304Z" fill="#B5B5B5"/>
    <path d="M716.66 487.55H714.462V497.882H716.66V487.55Z" fill="#B5B5B5"/>
    <path d="M744.275 497.518C744.882 497.518 745.374 497.329 745.374 497.097C745.374 496.864 744.882 496.676 744.275 496.676C743.668 496.676 743.176 496.864 743.176 497.097C743.176 497.329 743.668 497.518 744.275 497.518Z" fill="#B5B5B5"/>
    <path d="M745.374 486.764H743.176V497.096H745.374V486.764Z" fill="#B5B5B5"/>
    <path d="M801.718 495.483C802.325 495.483 802.817 495.294 802.817 495.062C802.817 494.829 802.325 494.641 801.718 494.641C801.111 494.641 800.619 494.829 800.619 495.062C800.619 495.294 801.111 495.483 801.718 495.483Z" fill="#B5B5B5"/>
    <path d="M802.817 484.729H800.619V495.062H802.817V484.729Z" fill="#B5B5B5"/>
    <path d="M830.514 494.586C831.121 494.586 831.613 494.397 831.613 494.165C831.613 493.932 831.121 493.744 830.514 493.744C829.907 493.744 829.415 493.932 829.415 494.165C829.415 494.397 829.907 494.586 830.514 494.586Z" fill="#B5B5B5"/>
    <path d="M831.613 483.833H829.415V494.165H831.613V483.833Z" fill="#B5B5B5"/>
    <path d="M612.906 497.195C613.513 497.195 614.005 497.007 614.005 496.774C614.005 496.542 613.513 496.353 612.906 496.353C612.299 496.353 611.807 496.542 611.807 496.774C611.807 497.007 612.299 497.195 612.906 497.195Z" fill="#B5B5B5"/>
    <path d="M614.005 486.441H611.807V496.774H614.005V486.441Z" fill="#B5B5B5"/>
    <path d="M596.936 493.478C597.543 493.478 598.035 493.29 598.035 493.057C598.035 492.825 597.543 492.636 596.936 492.636C596.329 492.636 595.837 492.825 595.837 493.057C595.837 493.29 596.329 493.478 596.936 493.478Z" fill="#B5B5B5"/>
    <path d="M598.035 482.725H595.837V493.057H598.035V482.725Z" fill="#B5B5B5"/>
    <path d="M641.72 496.363C642.327 496.363 642.819 496.174 642.819 495.942C642.819 495.709 642.327 495.521 641.72 495.521C641.113 495.521 640.621 495.709 640.621 495.942C640.621 496.174 641.113 496.363 641.72 496.363Z" fill="#B5B5B5"/>
    <path d="M642.819 485.609H640.621V495.942H642.819V485.609Z" fill="#B5B5B5"/>
    <path d="M625.749 492.646C626.356 492.646 626.848 492.458 626.848 492.225C626.848 491.993 626.356 491.804 625.749 491.804C625.142 491.804 624.65 491.993 624.65 492.225C624.65 492.458 625.142 492.646 625.749 492.646Z" fill="#B5B5B5"/>
    <path d="M626.848 481.893H624.65V492.225H626.848V481.893Z" fill="#B5B5B5"/>
    <path d="M670.158 495.376C670.765 495.376 671.257 495.187 671.257 494.955C671.257 494.722 670.765 494.534 670.158 494.534C669.551 494.534 669.059 494.722 669.059 494.955C669.059 495.187 669.551 495.376 670.158 495.376Z" fill="#B5B5B5"/>
    <path d="M671.257 484.623H669.059V494.955H671.257V484.623Z" fill="#B5B5B5"/>
    <path d="M654.188 491.66C654.795 491.66 655.287 491.471 655.287 491.239C655.287 491.006 654.795 490.818 654.188 490.818C653.581 490.818 653.089 491.006 653.089 491.239C653.089 491.471 653.581 491.66 654.188 491.66Z" fill="#B5B5B5"/>
    <path d="M655.287 480.907H653.089V491.239H655.287V480.907Z" fill="#B5B5B5"/>
    <path d="M699.198 494.268C699.805 494.268 700.298 494.08 700.298 493.847C700.298 493.615 699.805 493.426 699.198 493.426C698.592 493.426 698.099 493.615 698.099 493.847C698.099 494.08 698.592 494.268 699.198 494.268Z" fill="#B5B5B5"/>
    <path d="M700.297 483.515H698.099V493.847H700.297V483.515Z" fill="#B5B5B5"/>
    <path d="M683.228 490.552C683.835 490.552 684.327 490.363 684.327 490.131C684.327 489.898 683.835 489.709 683.228 489.709C682.621 489.709 682.129 489.898 682.129 490.131C682.129 490.363 682.621 490.552 683.228 490.552Z" fill="#B5B5B5"/>
    <path d="M684.327 479.799H682.129V490.131H684.327V479.799Z" fill="#B5B5B5"/>
    <path d="M727.721 493.371C728.328 493.371 728.821 493.183 728.821 492.95C728.821 492.718 728.328 492.529 727.721 492.529C727.114 492.529 726.622 492.718 726.622 492.95C726.622 493.183 727.114 493.371 727.721 493.371Z" fill="#B5B5B5"/>
    <path d="M728.82 482.618H726.622V492.95H728.82V482.618Z" fill="#B5B5B5"/>
    <path d="M711.751 489.655C712.358 489.655 712.85 489.467 712.85 489.234C712.85 489.001 712.358 488.813 711.751 488.813C711.144 488.813 710.652 489.001 710.652 489.234C710.652 489.467 711.144 489.655 711.751 489.655Z" fill="#B5B5B5"/>
    <path d="M712.85 478.902H710.652V489.234H712.85V478.902Z" fill="#B5B5B5"/>
    <path d="M756.436 492.539C757.043 492.539 757.535 492.351 757.535 492.118C757.535 491.886 757.043 491.697 756.436 491.697C755.829 491.697 755.337 491.886 755.337 492.118C755.337 492.351 755.829 492.539 756.436 492.539Z" fill="#B5B5B5"/>
    <path d="M757.535 481.786H755.337V492.118H757.535V481.786Z" fill="#B5B5B5"/>
    <path d="M740.465 488.823C741.072 488.823 741.564 488.635 741.564 488.402C741.564 488.169 741.072 487.981 740.465 487.981C739.858 487.981 739.366 488.169 739.366 488.402C739.366 488.635 739.858 488.823 740.465 488.823Z" fill="#B5B5B5"/>
    <path d="M741.564 478.07H739.366V488.402H741.564V478.07Z" fill="#B5B5B5"/>
    <path d="M786.263 491.553C786.87 491.553 787.362 491.364 787.362 491.132C787.362 490.899 786.87 490.71 786.263 490.71C785.656 490.71 785.164 490.899 785.164 491.132C785.164 491.364 785.656 491.553 786.263 491.553Z" fill="#B5B5B5"/>
    <path d="M787.362 480.8H785.164V491.132H787.362V480.8Z" fill="#B5B5B5"/>
    <path d="M770.293 487.837C770.9 487.837 771.392 487.648 771.392 487.416C771.392 487.183 770.9 486.995 770.293 486.995C769.686 486.995 769.194 487.183 769.194 487.416C769.194 487.648 769.686 487.837 770.293 487.837Z" fill="#B5B5B5"/>
    <path d="M771.392 477.083H769.194V487.416H771.392V477.083Z" fill="#B5B5B5"/>
    <path d="M831.613 484.603V481.994L570 481.783V484.393" fill="#B5B5B5"/>
    <path d="M831.613 481.994L653.939 487.837L636.741 488.402L603.107 489.508L570 481.783L798.506 474.27L831.613 481.994Z" fill="#C1C0BF"/>
    <path d="M722.162 484.507V476.124L736.82 475.621V484.025L722.162 484.507Z" fill="#012033"/>
    <path d="M736.82 475.62L722.329 476.24L710.308 474.245L726.885 473.771" fill="#C1C0BF"/>
    <path d="M710.308 481.686L722.162 484.507L722.329 476.241L710.308 474.246V481.686Z" fill="#8C4709"/>
    <path d="M707.569 484.968V476.585L722.227 476.082V484.486L707.569 484.968Z" fill="#0262A7"/>
    <path d="M722.227 476.082L707.736 476.702L695.715 474.707L712.292 474.233" fill="#C1C0BF"/>
    <path d="M695.715 482.147L707.569 484.969L707.736 476.702L695.715 474.708V482.147Z" fill="#8C4709"/>
    <path d="M693.972 485.367V476.984L708.63 476.481V484.885L693.972 485.367Z" fill="#FFEABB"/>
    <path d="M708.63 476.481L694.139 477.1L682.118 475.106L698.695 474.631" fill="#C1C0BF"/>
    <path d="M682.118 482.546L693.972 485.367L694.139 477.1L682.118 475.106V482.546Z" fill="#E2CFAA"/>
    <path d="M778.884 482.736V474.352L793.541 473.85V482.254L778.884 482.736Z" fill="#012033"/>
    <path d="M793.541 473.849L779.051 474.469L767.03 472.474L783.607 472" fill="#C1C0BF"/>
    <path d="M767.03 479.914L778.884 482.736L779.051 474.469L767.03 472.475V479.914Z" fill="#8C4709"/>
    <path d="M764.291 483.197V474.814L778.948 474.311V482.715L764.291 483.197Z" fill="#FFEABB"/>
    <path d="M778.948 474.311L764.458 474.931L752.437 472.936L769.014 472.462" fill="#C1C0BF"/>
    <path d="M752.437 480.376L764.291 483.197L764.458 474.931L752.437 472.936V480.376Z" fill="#DBC69E"/>
    <path d="M910.821 465.737C910.821 465.737 912.55 496.509 904.372 501.367C896.193 506.226 888.323 517.477 869.297 516.251C850.272 515.025 842.145 507.364 837.716 493.152C833.287 478.94 839.889 448.063 849.338 435.54C858.788 423.016 858.865 421.172 860.021 417.803C861.177 414.434 874.129 403.039 891.129 406.725C900.008 408.65 902.958 413.038 903.526 417.126C904.094 421.213 910.022 420.722 910.432 426.374C910.843 432.025 908.285 435.797 909.137 441.929C909.989 448.061 915.236 452.589 914.647 456.875C914.058 461.161 910.821 465.737 910.821 465.737Z" fill="#573419"/>
    <path d="M853.536 536.702C853.536 536.702 857.394 518.138 854.553 498.229C851.713 478.321 852.642 469.345 863.351 465.306C874.06 461.267 872.289 461.062 874.06 461.267C875.556 461.44 877.411 473.873 885.461 474.216C893.511 474.56 891.639 468.972 891.263 465.501C890.887 462.029 916.04 481.798 916.633 485.537C917.227 489.276 912.118 500.76 909.744 500.024C907.37 499.287 902.95 495.245 902.68 494.879C901.657 493.491 902.869 498.141 900.95 503.434C898.964 508.911 893.04 522.158 894.53 532.049" fill="#F7888E"/>
    <path d="M916.566 487.515C916.566 487.515 931.23 494.978 933.366 496.152C935.863 497.523 964.965 498.329 966.035 497.344C969.132 494.494 980.421 493.558 978.618 496.107C977.546 497.623 978.225 495.922 979.538 498.916C980.254 500.547 978.438 501.348 975.574 502.291C973.145 503.091 969.331 502.888 966.151 503.296C962.972 503.704 934.055 507.373 931.543 506.573C929.031 505.773 914.055 500.371 911.76 498.774" fill="#F7DFCA"/>
    <path d="M930.285 677.485L931.631 682.167C931.866 682.984 937.845 684.647 940.97 684.932C944.094 685.217 946.796 685.793 949.763 684.939C952.73 684.085 954.433 687.655 954.858 688.548C955.284 689.44 924.661 697.238 924.661 697.238L922.899 689.117L930.285 677.485Z" fill="#2B2B2B"/>
    <path d="M930.84 677.041C930.84 677.041 931.019 682.098 932.421 682.54C933.822 682.983 935.274 683.918 936.502 684.072C937.73 684.227 935.115 687.347 933.29 687.534C931.464 687.721 928.316 686.767 926.955 687.327C925.595 687.888 924.258 689.119 923.454 688.673C922.649 688.228 920.365 680.867 920.773 679.345C921.181 677.824 930.84 677.041 930.84 677.041Z" fill="#F7DFCA"/>
    <path d="M880.568 689.456C880.568 689.456 882.809 691.517 882.767 692.366C882.725 693.216 887.846 696.723 890.711 698.004C893.576 699.285 895.947 700.704 899.03 700.855C902.114 701.007 902.571 704.936 902.686 705.919C902.8 706.901 871.302 704.373 871.302 704.373L872.259 696.119L880.568 689.456Z" fill="#2B2B2B"/>
    <path d="M883.142 687.752C883.142 687.752 882.219 692.727 883.491 693.464C884.763 694.2 885.977 695.429 887.142 695.847C888.307 696.264 885.077 698.742 883.255 698.528C881.432 698.313 878.566 696.697 877.117 696.948C875.667 697.2 873.779 697.33 873.09 696.721C872.402 696.112 872.086 689.209 872.815 687.813C873.544 686.416 883.142 687.752 883.142 687.752Z" fill="#F7DFCA"/>
    <path d="M894.53 532.048C894.53 532.048 914.633 573.932 920.429 595.272C926.224 616.611 931.919 674.697 932.325 677.287C932.419 677.888 931.907 678.463 931.03 678.98C928.127 680.695 921.233 681.779 919.208 681.062C916.573 680.129 904.17 622.28 903.935 615.581C903.935 615.581 887.004 582.559 886.376 580.371C885.747 578.184 895.135 612.023 895.366 616.356C895.597 620.688 885.787 686.826 883.763 687.995C882.121 688.943 874.762 691.18 872.037 689.934C869.312 688.688 872.127 626.088 873.142 619.03C873.142 619.03 858.791 580.866 857.799 575.062C856.807 569.257 848.033 555.203 853.536 536.702L894.53 532.048Z" fill="#C5C5C5"/>
    <path d="M863.397 494.295C863.397 494.295 861.018 517.884 860.881 520.318C860.489 527.298 864.084 549.733 864.598 551.636C865.465 554.844 873.455 558.698 871.969 559.957C870.81 560.938 869.532 559.139 870.944 562.087C871.746 563.762 869.102 564.501 866.097 564.752C863.093 565.003 859.64 557.768 858.095 554.985C856.538 552.181 850.046 522.428 848.831 519.955C847.668 517.588 852.203 495.057 850.811 492.631" fill="#F7DFCA"/>
    <path d="M867.551 482.094C865.771 487.751 866.143 498.112 864.924 498.869C863.95 499.475 850.197 493.742 848.959 492.354C847.956 491.229 849.126 479.688 854.995 471.889" fill="#F7888E"/>
    <path d="M891.263 465.501C891.118 464.822 887.203 463.392 887.338 461.933C887.473 460.474 886.865 458.493 887.679 456.888C888.493 455.283 890.764 457.677 894.295 453.272C897.826 448.867 899.358 444.74 899.474 438.675C899.59 432.611 899.261 428.205 898.798 426.904C898.335 425.602 887.709 432.154 878.023 432.928C878.023 432.928 876.526 439.116 876.559 439.449C876.591 439.783 874.716 436.38 873.186 436.727C871.656 437.074 869.708 439.117 871.211 442.818C872.125 445.19 873.659 447.272 875.652 448.848C876.874 450.016 875.265 460.584 874.684 461.731C874.102 462.877 876.889 469.205 878.307 470.815C882.252 475.297 885.14 474.579 887.366 474.429C891.79 474.132 892.652 471.996 891.263 465.501Z" fill="#F7DFCA"/>
    <defs>
        <linearGradient id="footer_graphics_paint0_linear_21:5" x1="899.498" y1="370.582" x2="899.498" y2="443.73" gradientUnits="userSpaceOnUse">
            <stop stop-color="#D255A4"/>
            <stop offset="0.8207" stop-color="#7843A3"/>
        </linearGradient>
        <linearGradient id="footer_graphics_paint1_linear_21:5" x1="151.136" y1="387.5" x2="149.985" y2="474.5" gradientUnits="userSpaceOnUse">
            <stop stop-color="#C750CA"/>
            <stop offset="0.841702" stop-color="#4A3884"/>
        </linearGradient>
        <radialGradient id="footer_graphics_paint2_radial_21:5" cx="0" cy="0" r="1" gradientUnits="userSpaceOnUse" gradientTransform="translate(1437.5 432.5) scale(344.786 344.926)">
            <stop stop-color="#FFE7C1"/>
            <stop offset="0.0124" stop-color="#FEE7C2" stop-opacity="0.9643"/>
            <stop offset="0.0883" stop-color="#FAE8CB" stop-opacity="0.7643"/>
            <stop offset="0.1695" stop-color="#F6E8D2" stop-opacity="0.5826"/>
            <stop offset="0.2543" stop-color="#F3E9D9" stop-opacity="0.4258"/>
            <stop offset="0.3434" stop-color="#F0E9DE" stop-opacity="0.2938"/>
            <stop offset="0.4381" stop-color="#EEE9E2" stop-opacity="0.1864"/>
            <stop offset="0.5404" stop-color="#ECEAE6" stop-opacity="0.1035"/>
            <stop offset="0.6541" stop-color="#EBEAE8" stop-opacity="0.0449"/>
            <stop offset="0.788" stop-color="#EAEAEA" stop-opacity="0.01"/>
            <stop offset="0.9931" stop-color="#EAEAEA" stop-opacity="0"/>
        </radialGradient>
        <linearGradient id="footer_graphics_paint3_linear_21:5" x1="132.5" y1="441.841" x2="132.5" y2="532.841" gradientUnits="userSpaceOnUse">
            <stop stop-color="#B047AC"/>
            <stop offset="0.891854" stop-color="#4A3884"/>
        </linearGradient>
    </defs>
</svg>
